<svg width="15" height="15" viewBox="0 0 15 15" fill="none" xmlns="http://www.w3.org/2000/svg">
<path d="M13.7839 14.3918H1.21633C1.00129 14.3918 0.795055 14.3064 0.642999 14.1544C0.490942 14.0023 0.405518 13.7961 0.405518 13.581V4.86481C0.405518 4.81105 0.426874 4.75949 0.464888 4.72148C0.502902 4.68347 0.55446 4.66211 0.60822 4.66211H14.392C14.4458 4.66211 14.4973 4.68347 14.5353 4.72148C14.5734 4.75949 14.5947 4.81105 14.5947 4.86481V13.581C14.5947 13.7961 14.5093 14.0023 14.3572 14.1544C14.2052 14.3064 13.9989 14.3918 13.7839 14.3918ZM0.810923 5.06751V13.581C0.810923 13.6886 0.853635 13.7917 0.929663 13.8677C1.00569 13.9437 1.10881 13.9864 1.21633 13.9864H13.7839C13.8914 13.9864 13.9945 13.9437 14.0706 13.8677C14.1466 13.7917 14.1893 13.6886 14.1893 13.581V5.06751H0.810923Z" fill="#717175"/>
<path d="M14.392 5.06746H0.60822C0.55446 5.06746 0.502902 5.04611 0.464888 5.00809C0.426874 4.97008 0.405518 4.91852 0.405518 4.86476V2.63503C0.405518 2.41999 0.490942 2.21376 0.642999 2.0617C0.795055 1.90964 1.00129 1.82422 1.21633 1.82422H3.04065C3.09441 1.82422 3.14597 1.84557 3.18398 1.88359C3.222 1.9216 3.24336 1.97316 3.24336 2.02692C3.24336 2.08068 3.222 2.13224 3.18398 2.17025C3.14597 2.20827 3.09441 2.22962 3.04065 2.22962H1.21633C1.10881 2.22962 1.00569 2.27234 0.929663 2.34837C0.853635 2.42439 0.810923 2.52751 0.810923 2.63503V4.66206H14.1893V2.63503C14.1893 2.52751 14.1466 2.42439 14.0706 2.34837C13.9945 2.27234 13.8914 2.22962 13.7839 2.22962H11.9596C11.9058 2.22962 11.8543 2.20827 11.8162 2.17025C11.7782 2.13224 11.7569 2.08068 11.7569 2.02692C11.7569 1.97316 11.7782 1.9216 11.8162 1.88359C11.8543 1.84557 11.9058 1.82422 11.9596 1.82422H13.7839C13.9989 1.82422 14.2052 1.90964 14.3572 2.0617C14.5093 2.21376 14.5947 2.41999 14.5947 2.63503V4.86476C14.5947 4.91852 14.5734 4.97008 14.5353 5.00809C14.4973 5.04611 14.4458 5.06746 14.392 5.06746Z" fill="#717175"/>
<path d="M10.5404 2.22962H4.45929C4.40553 2.22962 4.35398 2.20827 4.31596 2.17025C4.27795 2.13224 4.25659 2.08068 4.25659 2.02692C4.25659 1.97316 4.27795 1.9216 4.31596 1.88359C4.35398 1.84557 4.40553 1.82422 4.45929 1.82422H10.5404C10.5941 1.82422 10.6457 1.84557 10.6837 1.88359C10.7217 1.9216 10.7431 1.97316 10.7431 2.02692C10.7431 2.08068 10.7217 2.13224 10.6837 2.17025C10.6457 2.20827 10.5941 2.22962 10.5404 2.22962Z" fill="#717175"/>
<path d="M11.7568 3.44575H10.7433C10.6358 3.44575 10.5327 3.40304 10.4566 3.32701C10.3806 3.25098 10.3379 3.14786 10.3379 3.04034V1.01332C10.3379 0.905795 10.3806 0.802679 10.4566 0.726651C10.5327 0.650622 10.6358 0.60791 10.7433 0.60791H11.7568C11.8643 0.60791 11.9674 0.650622 12.0435 0.726651C12.1195 0.802679 12.1622 0.905795 12.1622 1.01332V3.04034C12.1622 3.14786 12.1195 3.25098 12.0435 3.32701C11.9674 3.40304 11.8643 3.44575 11.7568 3.44575ZM10.7433 1.01332V3.04034H11.7568V1.01332H10.7433Z" fill="#717175"/>
<path d="M4.25681 3.44575H3.2433C3.13578 3.44575 3.03266 3.40304 2.95663 3.32701C2.8806 3.25098 2.83789 3.14786 2.83789 3.04034V1.01332C2.83789 0.905795 2.8806 0.802679 2.95663 0.726651C3.03266 0.650622 3.13578 0.60791 3.2433 0.60791H4.25681C4.36433 0.60791 4.46745 0.650622 4.54347 0.726651C4.6195 0.802679 4.66222 0.905795 4.66222 1.01332V3.04034C4.66222 3.14786 4.6195 3.25098 4.54347 3.32701C4.46745 3.40304 4.36433 3.44575 4.25681 3.44575ZM4.25681 1.01332H3.2433V3.04034H4.25681V1.01332Z" fill="#717175"/>
<path d="M12.3016 7.90531H11.3132C11.2293 7.90521 11.1488 7.87181 11.0894 7.81246C11.0301 7.7531 10.9967 7.67263 10.9966 7.58869V6.60031C10.9967 6.51637 11.0301 6.4359 11.0894 6.37655C11.1488 6.31719 11.2293 6.2838 11.3132 6.28369H12.3016C12.3855 6.2838 12.466 6.31719 12.5253 6.37655C12.5847 6.4359 12.6181 6.51637 12.6182 6.60031V7.58869C12.6181 7.67263 12.5847 7.7531 12.5253 7.81246C12.466 7.87181 12.3855 7.90521 12.3016 7.90531ZM11.402 7.49991H12.2128V6.6891H11.402V7.49991Z" fill="#717175"/>
<path d="M9.43 7.90531H8.44182C8.35785 7.90526 8.27733 7.87189 8.21793 7.81253C8.15853 7.75317 8.12511 7.67267 8.125 7.58869V6.60031C8.12511 6.51634 8.15853 6.43584 8.21793 6.37647C8.27733 6.31711 8.35785 6.28375 8.44182 6.28369H9.43C9.51394 6.2838 9.59441 6.31719 9.65377 6.37655C9.71312 6.4359 9.74651 6.51637 9.74662 6.60031V7.58869C9.74651 7.67263 9.71312 7.7531 9.65377 7.81246C9.59441 7.87181 9.51394 7.90521 9.43 7.90531ZM8.53041 7.49991H9.34122V6.6891H8.53041V7.49991Z" fill="#717175"/>
<path d="M6.55846 7.90531H5.57028C5.48634 7.90521 5.40587 7.87181 5.34652 7.81246C5.28716 7.7531 5.25377 7.67263 5.25366 7.58869V6.60031C5.25377 6.51637 5.28716 6.4359 5.34652 6.37655C5.40587 6.31719 5.48634 6.2838 5.57028 6.28369H6.55846C6.64244 6.28375 6.72296 6.31711 6.78236 6.37647C6.84176 6.43584 6.87518 6.51634 6.87529 6.60031V7.58869C6.87518 7.67267 6.84176 7.75317 6.78236 7.81253C6.72296 7.87189 6.64244 7.90526 6.55846 7.90531ZM5.65907 7.49991H6.46988V6.6891H5.65907V7.49991Z" fill="#717175"/>
<path d="M12.3016 10.3379H11.3132C11.2293 10.3378 11.1488 10.3044 11.0894 10.2451C11.0301 10.1857 10.9967 10.1052 10.9966 10.0213V9.03293C10.9967 8.94899 11.0301 8.86852 11.0894 8.80916C11.1488 8.74981 11.2293 8.71642 11.3132 8.71631H12.3016C12.3855 8.71642 12.466 8.74981 12.5253 8.80916C12.5847 8.86852 12.6181 8.94899 12.6182 9.03293V10.0213C12.6181 10.1052 12.5847 10.1857 12.5253 10.2451C12.466 10.3044 12.3855 10.3378 12.3016 10.3379ZM11.402 9.93253H12.2128V9.12171H11.402V9.93253Z" fill="#717175"/>
<path d="M9.43 10.3379H8.44182C8.35785 10.3379 8.27733 10.3045 8.21793 10.2451C8.15853 10.1858 8.12511 10.1053 8.125 10.0213V9.03293C8.12511 8.94895 8.15853 8.86845 8.21793 8.80909C8.27733 8.74973 8.35785 8.71636 8.44182 8.71631H9.43C9.51394 8.71642 9.59441 8.74981 9.65377 8.80916C9.71312 8.86852 9.74651 8.94899 9.74662 9.03293V10.0213C9.74651 10.1052 9.71312 10.1857 9.65377 10.2451C9.59441 10.3044 9.51394 10.3378 9.43 10.3379ZM8.53041 9.93253H9.34122V9.12171H8.53041V9.93253Z" fill="#717175"/>
<path d="M6.55846 10.3379H5.57028C5.48634 10.3378 5.40587 10.3044 5.34652 10.2451C5.28716 10.1857 5.25377 10.1052 5.25366 10.0213V9.03293C5.25377 8.94899 5.28716 8.86852 5.34652 8.80916C5.40587 8.74981 5.48634 8.71642 5.57028 8.71631H6.55846C6.64244 8.71636 6.72296 8.74973 6.78236 8.80909C6.84176 8.86845 6.87518 8.94895 6.87529 9.03293V10.0213C6.87518 10.1053 6.84176 10.1858 6.78236 10.2451C6.72296 10.3045 6.64244 10.3379 6.55846 10.3379ZM5.65907 9.93253H6.46988V9.12171H5.65907V9.93253Z" fill="#717175"/>
<path d="M3.68659 10.3379H2.69821C2.61427 10.3378 2.5338 10.3044 2.47445 10.2451C2.41509 10.1857 2.3817 10.1052 2.38159 10.0213V9.03293C2.3817 8.94899 2.41509 8.86852 2.47445 8.80916C2.5338 8.74981 2.61427 8.71642 2.69821 8.71631H3.68659C3.77053 8.71642 3.851 8.74981 3.91036 8.80916C3.96971 8.86852 4.00311 8.94899 4.00321 9.03293V10.0213C4.00311 10.1052 3.96971 10.1857 3.91036 10.2451C3.851 10.3044 3.77053 10.3378 3.68659 10.3379ZM2.787 9.93253H3.59781V9.12171H2.787V9.93253Z" fill="#717175"/>
<path d="M9.43 12.7706H8.44182C8.35785 12.7705 8.27733 12.7371 8.21793 12.6778C8.15853 12.6184 8.12511 12.5379 8.125 12.4539V11.4655C8.12511 11.3816 8.15853 11.3011 8.21793 11.2417C8.27733 11.1823 8.35785 11.149 8.44182 11.1489H9.43C9.51394 11.149 9.59441 11.1824 9.65377 11.2418C9.71312 11.3011 9.74651 11.3816 9.74662 11.4655V12.4539C9.74651 12.5379 9.71312 12.6183 9.65377 12.6777C9.59441 12.7371 9.51394 12.7704 9.43 12.7706ZM8.53041 12.3651H9.34122V11.5543H8.53041V12.3651Z" fill="#717175"/>
<path d="M6.55846 12.7706H5.57028C5.48634 12.7704 5.40587 12.7371 5.34652 12.6777C5.28716 12.6183 5.25377 12.5379 5.25366 12.4539V11.4655C5.25377 11.3816 5.28716 11.3011 5.34652 11.2418C5.40587 11.1824 5.48634 11.149 5.57028 11.1489H6.55846C6.64244 11.149 6.72296 11.1823 6.78236 11.2417C6.84176 11.3011 6.87518 11.3816 6.87529 11.4655V12.4539C6.87518 12.5379 6.84176 12.6184 6.78236 12.6778C6.72296 12.7371 6.64244 12.7705 6.55846 12.7706ZM5.65907 12.3651H6.46988V11.5543H5.65907V12.3651Z" fill="#717175"/>
<path d="M3.68659 12.7706H2.69821C2.61427 12.7704 2.5338 12.7371 2.47445 12.6777C2.41509 12.6183 2.3817 12.5379 2.38159 12.4539V11.4655C2.3817 11.3816 2.41509 11.3011 2.47445 11.2418C2.5338 11.1824 2.61427 11.149 2.69821 11.1489H3.68659C3.77053 11.149 3.851 11.1824 3.91036 11.2418C3.96971 11.3011 4.00311 11.3816 4.00321 11.4655V12.4539C4.00311 12.5379 3.96971 12.6183 3.91036 12.6777C3.851 12.7371 3.77053 12.7704 3.68659 12.7706ZM2.787 12.3651H3.59781V11.5543H2.787V12.3651Z" fill="#717175"/>
</svg>
