<svg width="15" height="15" viewBox="0 0 15 15" fill="none" xmlns="http://www.w3.org/2000/svg">
<g clip-path="url(#clip0)">
<path d="M9.56906 5.43457C9.37503 5.43457 9.21777 5.59183 9.21777 5.78586V12.4252C9.21777 12.6191 9.37503 12.7765 9.56906 12.7765C9.76309 12.7765 9.92035 12.6191 9.92035 12.4252V5.78586C9.92035 5.59183 9.76309 5.43457 9.56906 5.43457Z" fill="#717175"/>
<path d="M5.42404 5.43457C5.23001 5.43457 5.07275 5.59183 5.07275 5.78586V12.4252C5.07275 12.6191 5.23001 12.7765 5.42404 12.7765C5.61807 12.7765 5.77533 12.6191 5.77533 12.4252V5.78586C5.77533 5.59183 5.61807 5.43457 5.42404 5.43457Z" fill="#717175"/>
<path d="M2.4025 4.46564V13.1206C2.4025 13.6322 2.59008 14.1126 2.91776 14.4573C3.24394 14.8029 3.69787 14.9992 4.17293 15H10.8194C11.2946 14.9992 11.7485 14.8029 12.0746 14.4573C12.4022 14.1126 12.5898 13.6322 12.5898 13.1206V4.46564C13.2412 4.29275 13.6633 3.66345 13.5762 2.99504C13.4889 2.32677 12.9196 1.82688 12.2455 1.82674H10.447V1.38763C10.449 1.01837 10.303 0.663786 10.0416 0.402928C9.78021 0.142208 9.42508 -0.00297272 9.05582 4.61562e-05H5.9365C5.56724 -0.00297272 5.21211 0.142208 4.9507 0.402928C4.68929 0.663786 4.54329 1.01837 4.54535 1.38763V1.82674H2.74679C2.07275 1.82688 1.50342 2.32677 1.41615 2.99504C1.32901 3.66345 1.75111 4.29275 2.4025 4.46564ZM10.8194 14.2974H4.17293C3.57231 14.2974 3.10507 13.7815 3.10507 13.1206V4.49652H11.8872V13.1206C11.8872 13.7815 11.42 14.2974 10.8194 14.2974ZM5.24792 1.38763C5.24559 1.20471 5.31749 1.02866 5.4473 0.899533C5.57698 0.770408 5.75345 0.699464 5.9365 0.70262H9.05582C9.23887 0.699464 9.41534 0.770408 9.54501 0.899533C9.67482 1.02852 9.74673 1.20471 9.7444 1.38763V1.82674H5.24792V1.38763ZM2.74679 2.52931H12.2455C12.5948 2.52931 12.8778 2.8124 12.8778 3.16163C12.8778 3.51086 12.5948 3.79395 12.2455 3.79395H2.74679C2.39756 3.79395 2.11447 3.51086 2.11447 3.16163C2.11447 2.8124 2.39756 2.52931 2.74679 2.52931Z" fill="#717175"/>
<path d="M7.4963 5.43457C7.30227 5.43457 7.14502 5.59183 7.14502 5.78586V12.4252C7.14502 12.6191 7.30227 12.7765 7.4963 12.7765C7.69033 12.7765 7.84758 12.6191 7.84758 12.4252V5.78586C7.84758 5.59183 7.69033 5.43457 7.4963 5.43457Z" fill="#717175"/>
</g>
<defs>
<clipPath id="clip0">
<rect width="15" height="15" fill="white"/>
</clipPath>
</defs>
</svg>
