<svg width="79" height="100" viewBox="0 0 79 100" fill="none" xmlns="http://www.w3.org/2000/svg">
<path d="M78.8901 22.198C78.7813 22.198 78.7813 22.0892 78.6725 21.9804C78.5637 21.8716 78.5637 21.7628 78.4548 21.654L59.7388 0.652884C59.63 0.54407 59.4124 0.435256 59.3036 0.326442C59.1948 0.326442 59.1948 0.217628 59.086 0.217628C58.8683 0.108814 58.5419 0 58.2155 0H12.296C5.54951 0 0 5.54951 0 12.296V87.704C0 94.4505 5.54951 100 12.296 100H66.7029C73.4494 100 78.9989 94.4505 78.9989 87.704V22.9597C78.9989 22.7421 78.8901 22.4157 78.8901 22.198ZM60.2829 7.39935L72.3613 21.0011H60.2829V7.39935ZM74.864 87.5952C74.864 92.1654 71.2731 95.8651 66.7029 95.8651H12.296C7.72579 95.8651 4.13493 92.1654 4.13493 87.704V12.1872C4.13493 7.61697 7.8346 4.02612 12.296 4.02612H56.148V22.9597C56.148 24.0479 57.0185 25.0272 58.2155 25.0272H74.864V87.5952Z" fill="white"/>
<path d="M14.6895 25.0273H32.8615C33.9496 25.0273 34.9289 24.1568 34.9289 22.9598C34.9289 21.7628 34.0584 20.8923 32.8615 20.8923H14.6895C13.6014 20.8923 12.6221 21.7628 12.6221 22.9598C12.6221 24.1568 13.6014 25.0273 14.6895 25.0273Z" fill="white"/>
<path d="M32.8615 74.9727H14.6895C13.6014 74.9727 12.6221 75.8432 12.6221 77.0401C12.6221 78.1283 13.4926 79.1076 14.6895 79.1076H32.8615C33.9496 79.1076 34.9289 78.2371 34.9289 77.0401C34.9289 75.952 33.9496 74.9727 32.8615 74.9727Z" fill="white"/>
<path d="M12.6221 36.6705C12.6221 37.7586 13.4926 38.738 14.6895 38.738H63.2205C64.3087 38.738 65.288 37.8674 65.288 36.6705C65.288 35.5824 64.4175 34.603 63.2205 34.603H14.6895C13.6014 34.603 12.6221 35.4735 12.6221 36.6705Z" fill="white"/>
<path d="M63.2205 44.8313H14.6895C13.6014 44.8313 12.6221 45.7018 12.6221 46.8988C12.6221 47.9869 13.4926 48.9662 14.6895 48.9662H63.2205C64.3087 48.9662 65.288 48.0957 65.288 46.8988C65.288 45.7018 64.4175 44.8313 63.2205 44.8313Z" fill="white"/>
<path d="M63.2205 54.9509H14.6895C13.6014 54.9509 12.6221 55.8214 12.6221 57.0184C12.6221 58.1065 13.4926 59.0858 14.6895 59.0858H63.2205C64.3087 59.0858 65.288 58.2153 65.288 57.0184C65.288 55.8214 64.4175 54.9509 63.2205 54.9509Z" fill="white"/>
<path d="M63.2205 65.0708H14.6895C13.6014 65.0708 12.6221 65.9413 12.6221 67.1383C12.6221 68.2264 13.4926 69.2057 14.6895 69.2057H63.2205C64.3087 69.2057 65.288 68.3352 65.288 67.1383C65.288 66.0501 64.4175 65.0708 63.2205 65.0708Z" fill="white"/>
</svg>
