<svg width="33" height="25" viewBox="0 0 33 25" fill="none" xmlns="http://www.w3.org/2000/svg">
<path d="M16.1772 23.3536C16.3725 23.5488 16.6891 23.5488 16.8843 23.3536L20.0663 20.1716C20.2616 19.9763 20.2616 19.6597 20.0663 19.4645C19.871 19.2692 19.5545 19.2692 19.3592 19.4645L16.5308 22.2929L13.7023 19.4645C13.5071 19.2692 13.1905 19.2692 12.9952 19.4645C12.8 19.6597 12.8 19.9763 12.9952 20.1716L16.1772 23.3536ZM16.0308 2.51199e-08L16.0308 23L17.0308 23L17.0308 -2.51199e-08L16.0308 2.51199e-08Z" fill="white"/>
<path fill-rule="evenodd" clip-rule="evenodd" d="M0 7V24.5V25H0.5H32.5H33V24.5V7H32.5V24.5H0.5V7H0Z" fill="white"/>
</svg>
