<svg width="33" height="25" viewBox="0 0 33 25" fill="none" xmlns="http://www.w3.org/2000/svg">
<g clip-path="url(#clip0)">
<path d="M16.1773 23.3536C16.3726 23.5488 16.6892 23.5488 16.8844 23.3536L20.0664 20.1716C20.2617 19.9763 20.2617 19.6597 20.0664 19.4645C19.8711 19.2692 19.5546 19.2692 19.3593 19.4645L16.5309 22.2929L13.7024 19.4645C13.5072 19.2692 13.1906 19.2692 12.9953 19.4645C12.8001 19.6597 12.8001 19.9763 12.9953 20.1716L16.1773 23.3536ZM16.0309 5.02398e-08V23H17.0309V0L16.0309 5.02398e-08Z" fill="#717175"/>
<path fill-rule="evenodd" clip-rule="evenodd" d="M0 7V24.5V25H0.5H32.5H33V24.5V7H32.5V24.5H0.5V7H0Z" fill="#717175"/>
</g>
<defs>
<clipPath id="clip0">
<rect width="33" height="25" fill="white"/>
</clipPath>
</defs>
</svg>
