<svg width="15" height="15" viewBox="0 0 15 15" fill="none" xmlns="http://www.w3.org/2000/svg">
<g clip-path="url(#clip0)">
<path d="M13.8444 9.42266C13.6381 9.42266 13.4708 9.58989 13.4708 9.79624V13.1132C13.4701 13.7319 12.9688 14.2333 12.3501 14.2339H1.86789C1.24915 14.2333 0.747885 13.7319 0.747155 13.1132V3.37814C0.747885 2.75955 1.24915 2.25814 1.86789 2.25741H5.18485C5.39119 2.25741 5.55843 2.09017 5.55843 1.88383C5.55843 1.67763 5.39119 1.51025 5.18485 1.51025H1.86789C0.836756 1.51142 0.00116743 2.34701 0 3.37814V13.1133C0.00116743 14.1445 0.836756 14.9801 1.86789 14.9812H12.3501C13.3812 14.9801 14.2168 14.1445 14.218 13.1133V9.79624C14.218 9.58989 14.0508 9.42266 13.8444 9.42266Z" fill="#717175"/>
<path d="M14.0698 0.549529C13.4133 -0.107004 12.3489 -0.107004 11.6923 0.549529L5.02746 7.21439C4.98178 7.26006 4.9488 7.31668 4.93159 7.37885L4.05514 10.543C4.01909 10.6728 4.05572 10.8117 4.15087 10.907C4.24616 11.0021 4.38508 11.0387 4.51481 11.0028L7.67899 10.1263C7.74115 10.109 7.79778 10.0761 7.84345 10.0304L14.5082 3.36537C15.1637 2.7084 15.1637 1.64487 14.5082 0.987899L14.0698 0.549529ZM5.84145 7.45721L11.2961 2.0024L13.0553 3.76157L7.60048 9.21639L5.84145 7.45721ZM5.49006 8.16234L6.8955 9.56793L4.95143 10.1066L5.49006 8.16234ZM13.9799 2.83711L13.5837 3.23331L11.8244 1.47399L12.2207 1.07779C12.5854 0.713115 13.1767 0.713115 13.5414 1.07779L13.9799 1.51616C14.344 1.88128 14.344 2.47214 13.9799 2.83711Z" fill="#717175"/>
</g>
<defs>
<clipPath id="clip0">
<rect width="15" height="15" fill="white"/>
</clipPath>
</defs>
</svg>
