<svg width="30" height="28" viewBox="0 0 30 28" fill="none" xmlns="http://www.w3.org/2000/svg">
<path d="M15 27.331C14.5729 27.331 14.1611 27.1763 13.8402 26.8952C12.6283 25.8355 11.4599 24.8396 10.429 23.9612L10.4237 23.9566C7.40134 21.381 4.7914 19.1567 2.97546 16.9656C0.945509 14.5161 0 12.1937 0 9.65651C0 7.19145 0.845259 4.91728 2.37991 3.25262C3.93287 1.56828 6.06375 0.640625 8.38072 0.640625C10.1124 0.640625 11.6984 1.18811 13.0943 2.26775C13.7988 2.81271 14.4374 3.47968 15 4.25764C15.5628 3.47968 16.2011 2.81271 16.9059 2.26775C18.3018 1.18811 19.8877 0.640625 21.6194 0.640625C23.9362 0.640625 26.0673 1.56828 27.6203 3.25262C29.1549 4.91728 29.9999 7.19145 29.9999 9.65651C29.9999 12.1937 29.0547 14.5161 27.0247 16.9654C25.2088 19.1567 22.5991 21.3808 19.5771 23.9561C18.5444 24.836 17.3742 25.8334 16.1595 26.8957C15.8388 27.1763 15.4268 27.331 15 27.331ZM8.38072 2.39798C6.56043 2.39798 4.88822 3.12445 3.67172 4.44373C2.43713 5.78291 1.75712 7.63411 1.75712 9.65651C1.75712 11.7904 2.5502 13.6988 4.32838 15.8443C6.04705 17.9182 8.60342 20.0967 11.5633 22.6192L11.5688 22.6238C12.6036 23.5057 13.7766 24.5054 14.9975 25.573C16.2256 24.5034 17.4005 23.502 18.4373 22.6188C21.397 20.0963 23.9531 17.9182 25.6718 15.8443C27.4497 13.6988 28.2428 11.7904 28.2428 9.65651C28.2428 7.63411 27.5628 5.78291 26.3282 4.44373C25.1119 3.12445 23.4395 2.39798 21.6194 2.39798C20.286 2.39798 19.0617 2.82187 17.9807 3.65775C17.0173 4.40298 16.3463 5.34506 15.9528 6.00424C15.7505 6.34322 15.3943 6.54555 15 6.54555C14.6056 6.54555 14.2495 6.34322 14.0471 6.00424C13.6539 5.34506 12.9828 4.40298 12.0192 3.65775C10.9382 2.82187 9.71395 2.39798 8.38072 2.39798Z" fill="white"/>
</svg>
