<svg width="30" height="30" viewBox="0 0 30 30" fill="none" xmlns="http://www.w3.org/2000/svg">
<path d="M8.71447 0H21.2855C26.0907 0 30 3.90932 30 8.71453V21.2855C30 26.0907 26.0907 30 21.2855 30H8.71453C3.90932 30 0 26.0907 0 21.2855V8.71453C0 3.90932 3.90932 0 8.71447 0ZM2.34375 21.2855C2.34375 24.7983 5.20166 27.6562 8.71447 27.6562H21.2855C24.7983 27.6562 27.6562 24.7983 27.6562 21.2855V8.71453C27.6562 5.20166 24.7983 2.34375 21.2855 2.34375H8.71453C5.20166 2.34375 2.34375 5.20166 2.34375 8.71453V21.2855Z" fill="#010125"/>
<path d="M15 6.91406C19.4586 6.91406 23.0859 10.5414 23.0859 15C23.0859 19.4586 19.4586 23.0859 15 23.0859C10.5414 23.0859 6.91406 19.4586 6.91406 15C6.91406 10.5414 10.5414 6.91406 15 6.91406ZM15 20.7422C18.1662 20.7422 20.7422 18.1662 20.7422 15C20.7422 11.8338 18.1662 9.25781 15 9.25781C11.8338 9.25781 9.25781 11.8338 9.25781 15C9.25781 18.1662 11.8338 20.7422 15 20.7422Z" fill="#010125"/>
<path d="M6.79688 7.96875C6.14967 7.96875 5.625 7.44408 5.625 6.79688C5.625 6.14967 6.14967 5.625 6.79688 5.625C7.44408 5.625 7.96875 6.14967 7.96875 6.79688C7.96875 7.44408 7.44408 7.96875 6.79688 7.96875Z" fill="#010125"/>
</svg>
