<svg width="30" height="30" viewBox="0 0 30 30" fill="none" xmlns="http://www.w3.org/2000/svg">
<path d="M10.1825 16.4335C9.93872 16.6773 9.93872 17.0736 10.1825 17.3173C10.305 17.4385 10.4649 17.4998 10.625 17.4998C10.785 17.4998 10.945 17.4386 11.0662 17.3173L14.8162 13.5673C14.8737 13.5098 14.92 13.4398 14.9512 13.3636C14.9688 13.3198 14.9712 13.2748 14.9787 13.2286C14.985 13.1936 15 13.1611 15 13.1248C15 13.0773 14.9825 13.0348 14.9725 12.991C14.965 12.9573 14.965 12.921 14.9512 12.8886C14.9187 12.8098 14.8713 12.7398 14.8125 12.6798L11.0662 8.93354C10.8225 8.68979 10.4262 8.68979 10.1825 8.93354C9.93872 9.17729 9.93872 9.57356 10.1825 9.81731L12.8637 12.4998H1.87499C1.52999 12.4998 1.24997 12.7798 1.24997 13.1248C1.24997 13.4698 1.52999 13.7498 1.87499 13.7498H12.8662L10.1825 16.4335Z" fill="white"/>
<path d="M26.5512 0C26.455 0 26.3612 0.01875 26.2675 0.0287695C26.22 0.0175195 26.175 0 26.125 0H11.125C9.40247 0 7.99997 1.4025 7.99997 3.12498V9.375C7.99997 9.72 8.27999 10 8.62499 10C8.96999 10 9.25001 9.72 9.25001 9.375V3.12498C9.25001 2.09121 10.0912 1.24998 11.125 1.24998H23.08L18.3862 3.26121C17.3925 3.68748 16.75 4.66119 16.75 5.74248V25H11.125C10.2262 25 9.46253 24.3749 9.27626 24.1162L9.25001 16.8724C9.24878 16.5287 8.96876 16.2499 8.62499 16.2499C8.62499 16.2499 8.62376 16.2499 8.62247 16.2499C8.27747 16.2512 7.99874 16.5324 7.99997 16.8774L8.02874 24.1611C8.00372 24.4349 8.13251 24.7211 8.41997 25.0361C8.9312 25.5961 9.94622 26.2499 11.125 26.2499H16.75V27.3011C16.75 28.7886 17.9612 29.9999 19.4487 29.9999C19.8175 29.9999 20.1762 29.9261 20.5112 29.7824L27.6137 26.7386C28.6075 26.3123 29.2499 25.3386 29.2499 24.2573V2.69877C29.25 1.21125 28.0387 0 26.5512 0ZM28 24.2575C28 24.8375 27.655 25.3612 27.1212 25.5888L20.0187 28.6325C19.8387 28.7112 19.6462 28.75 19.4487 28.75C18.65 28.75 18 28.1 18 27.3012V5.74248C18 5.16246 18.345 4.63875 18.8787 4.41123L25.9812 1.36752C26.1612 1.28877 26.3537 1.25004 26.5512 1.25004C27.35 1.25004 28 1.90002 28 2.69877V24.2575Z" fill="white"/>
<path d="M19.375 13.75C19.03 13.75 18.75 14.03 18.75 14.375V16.875C18.75 17.22 19.03 17.5 19.375 17.5C19.72 17.5 20 17.22 20 16.875V14.375C20 14.03 19.72 13.75 19.375 13.75Z" fill="white"/>
</svg>
