<svg width="20" height="16" viewBox="0 0 20 16" fill="none" xmlns="http://www.w3.org/2000/svg">
<path d="M19 0L1 0C0.447734 0 1.97363e-07 0.467161 4.40842e-07 1.04348L6.31873e-06 14.9565C6.56219e-06 15.5328 0.447702 16 1.00001 16L19 16C19.5523 16 20 15.5328 20 14.9565L20 1.04348C20 0.467201 19.5523 0 19 0ZM19.3333 14.9566C19.3333 15.1487 19.1841 15.3044 19 15.3044L1.00001 15.3044C0.815905 15.3044 0.666686 15.1487 0.666686 14.9566L0.66668 1.04348C0.66668 0.851373 0.815899 0.695666 1 0.695666L19 0.695666C19.1841 0.695666 19.3333 0.851373 19.3333 1.04348L19.3333 14.9566V14.9566Z" fill="#EC4E20"/>
<path d="M18.3622 1.39258C18.2741 1.38455 18.1865 1.41337 18.1188 1.47271L10.4287 8.21355C10.1807 8.43109 9.81874 8.43109 9.57073 8.21355L1.88071 1.47267C1.7895 1.39278 1.66434 1.36971 1.55243 1.41218C1.44051 1.45466 1.35879 1.55623 1.33809 1.67864C1.31739 1.80104 1.36083 1.92565 1.45204 2.00554L9.1421 8.74605C9.63773 9.18149 10.3618 9.18149 10.8575 8.74605L18.5475 2.00558C18.6152 1.94627 18.6576 1.86133 18.6653 1.76941C18.6729 1.6775 18.6453 1.58615 18.5885 1.51551C18.5317 1.44479 18.4503 1.40061 18.3622 1.39258Z" fill="#EC4E20"/>
<path d="M6.41114 8.6983C6.29313 8.67083 6.17016 8.71216 6.08969 8.80632L1.42297 14.0237C1.33852 14.114 1.3075 14.2449 1.34195 14.3658C1.37641 14.4867 1.4709 14.5787 1.58887 14.6061C1.70688 14.6336 1.82985 14.5923 1.91032 14.4981L6.57704 9.28073C6.66149 9.19049 6.69251 9.05956 6.65805 8.93867C6.6236 8.81777 6.52915 8.72577 6.41114 8.6983Z" fill="#EC4E20"/>
<path d="M13.9103 8.80632C13.8299 8.71216 13.7069 8.67083 13.5889 8.6983C13.4709 8.72577 13.3764 8.81777 13.342 8.93866C13.3075 9.0596 13.3385 9.19048 13.423 9.28073L18.0897 14.4981C18.2162 14.6333 18.4231 14.6384 18.5556 14.5094C18.688 14.3804 18.6976 14.1647 18.577 14.0236L13.9103 8.80632Z" fill="#EC4E20"/>
</svg>
