<svg width="32" height="24" viewBox="0 0 32 24" fill="none" xmlns="http://www.w3.org/2000/svg">
<path d="M28.3633 0.95H3.63672C2.15705 0.95 0.95 2.15573 0.95 3.63672V21.2148C0.95 22.6908 2.15165 23.9016 3.63672 23.9016H28.3633C29.8392 23.9016 31.05 22.6999 31.05 21.2148V3.63672C31.05 2.16078 29.8483 0.95 28.3633 0.95ZM16.0557 14.6306L4.13077 2.80781H27.8785L16.0557 14.6306ZM11.1525 12.3854L2.80781 20.7301V4.1123L11.1525 12.3854ZM16.7155 16.5982L19.5742 13.7394L27.8785 22.0438H4.12147L12.4718 13.6934L15.4046 16.6011C15.7678 16.9611 16.3538 16.9599 16.7155 16.5982ZM29.1922 4.12141V20.7301L20.8879 12.4258L29.1922 4.12141Z" fill="#010125" stroke="#010125" stroke-width="0.1"/>
</svg>
