<svg width="132" height="94" viewBox="0 0 132 94" fill="none" xmlns="http://www.w3.org/2000/svg">
<g opacity="0.5">
<path d="M37.5238 92.5159H1C1 92.1966 1 91.8774 1 91.5582C1 56.7614 14.8463 25.157 37.5238 1.85278M1 92.5159C20.5157 92.5159 40.0314 92.5159 49.7347 92.5159C59.5471 92.5159 59.5471 92.5159 59.4381 92.5159C59.3291 92.5159 59.111 92.5159 59.002 92.5159H1Z" stroke="white"/>
<path d="M109.481 91.769H72.8481C72.8481 91.4498 72.8481 91.0242 72.8481 90.7049C72.8481 56.0148 86.8035 24.4105 109.481 1M72.8481 91.769C92.3638 91.769 111.88 91.769 121.583 91.769C131.395 91.769 131.395 91.769 131.286 91.769C131.177 91.769 131.068 91.769 130.85 91.769H72.8481Z" stroke="white"/>
</g>
</svg>
