<?xml version="1.0" encoding="UTF-8"?>
<!DOCTYPE svg PUBLIC "-//W3C//DTD SVG 1.1//EN" "http://www.w3.org/Graphics/SVG/1.1/DTD/svg11.dtd">
<!-- Creator: CorelDRAW X8 -->
<svg xmlns="http://www.w3.org/2000/svg" xml:space="preserve" width="7.99mm" height="7.99mm" version="1.1" style="shape-rendering:geometricPrecision; text-rendering:geometricPrecision; image-rendering:optimizeQuality; fill-rule:evenodd; clip-rule:evenodd"
viewBox="0 0 221 221"
 xmlns:xlink="http://www.w3.org/1999/xlink">
 <defs>
  <style type="text/css">
   <![CDATA[
    .fil0 {fill:black}
   ]]>
  </style>
 </defs>
 <g id="Слой_x0020_1">
  <metadata id="CorelCorpID_0Corel-Layer"/>
  <g id="_522296088">
   <path class="fil0" d="M215 133c2,-7 3,-15 3,-22 0,-29 -11,-56 -32,-76 -20,-20 -47,-31 -75,-31 -8,0 -15,0 -22,2 -9,-4 -18,-6 -27,-6 -34,0 -62,28 -62,62 0,9 2,18 6,27 -2,7 -2,14 -2,22 0,28 11,55 31,75 20,21 47,32 76,32 7,0 15,-1 22,-3 8,4 17,6 27,6 34,0 61,-27 61,-61 0,-10 -2,-19 -6,-27zm-55 75c-9,0 -16,-1 -23,-5 -1,-1 -2,-1 -3,-1 -1,0 -1,0 -2,0 -7,2 -14,3 -21,3 -52,0 -94,-42 -94,-94 0,-7 1,-15 2,-22 1,-1 0,-3 0,-4 -4,-7 -6,-15 -6,-23 0,-27 22,-49 49,-49 8,0 16,2 23,6 1,0 3,1 4,0 7,-1 15,-2 22,-2 52,0 94,42 94,94 0,7 -1,14 -3,21 0,2 0,3 1,5 4,7 5,14 5,23 0,26 -22,48 -48,48l0 0zm0 0z"/>
   <path class="fil0" d="M111 61c19,0 35,10 35,21 0,4 3,7 6,7 4,0 7,-3 7,-7 0,-9 -5,-18 -15,-25 -9,-6 -21,-9 -33,-9 -13,0 -25,3 -33,9 -10,7 -16,16 -16,25 0,10 6,19 16,26 8,6 20,9 33,9 19,0 35,10 35,22 0,12 -16,22 -35,22 -19,0 -36,-10 -36,-22 0,-4 -2,-6 -6,-6 -4,0 -7,2 -7,6 0,10 6,19 16,25 8,6 20,10 33,10 12,0 24,-4 33,-10 10,-6 15,-15 15,-25 0,-10 -5,-19 -15,-25 -9,-6 -21,-10 -33,-10 -19,0 -36,-10 -36,-22 0,-11 17,-21 36,-21zm0 0z"/>
  </g>
 </g>
</svg>
