<svg width="45" height="45" viewBox="0 0 45 45" fill="none" xmlns="http://www.w3.org/2000/svg">
<circle cx="22.5" cy="22.5" r="22.5" fill="#FF5722"/>
<path d="M30.5 21.75V19.25H29.25V21.75H26.75V23H29.25V25.5H30.5V23H33V21.75H30.5Z" fill="white"/>
<path d="M19.25 21.75V24.25H22.7863C22.27 25.705 20.88 26.75 19.25 26.75C17.1825 26.75 15.5 25.0675 15.5 23C15.5 20.9325 17.1825 19.25 19.25 19.25C20.1462 19.25 21.0087 19.5712 21.6788 20.155L23.3212 18.27C22.1962 17.29 20.7512 16.75 19.25 16.75C15.8038 16.75 13 19.5538 13 23C13 26.4462 15.8038 29.25 19.25 29.25C22.6962 29.25 25.5 26.4462 25.5 23V21.75H19.25Z" fill="white"/>
</svg>
