<svg width="45" height="45" viewBox="0 0 45 45" fill="none" xmlns="http://www.w3.org/2000/svg">
<circle cx="22.5" cy="22.5" r="22.5" fill="#1169D6"/>
<path d="M29.1743 15.5214C27.3506 13.8405 25.0821 13 22.373 13C19.5252 13 17.0976 13.9547 15.0943 15.8682C13.0911 17.7817 12.0874 20.1603 12.0874 23.0082C12.0874 25.7377 13.0421 28.0836 14.9475 30.0502C16.861 32.0167 19.4313 33 22.6668 33C24.617 33 26.5305 32.6002 28.4073 31.7964C29.0193 31.5353 29.3171 30.8335 29.0682 30.2175C28.8112 29.581 28.085 29.2872 27.4526 29.5565C25.8206 30.2583 24.2212 30.6091 22.6627 30.6091C20.1821 30.6091 18.2604 29.8543 16.8977 28.3407C15.5391 26.8311 14.8577 25.0563 14.8577 23.0204C14.8577 20.8091 15.588 18.9649 17.0446 17.4839C18.497 16.0069 20.2881 15.2644 22.4097 15.2644C24.364 15.2644 26.0164 15.8723 27.3628 17.0881C28.7092 18.304 29.3824 19.8339 29.3824 21.6781C29.3824 22.9388 29.0723 23.9914 28.4562 24.8278C27.8402 25.6683 27.1996 26.0845 26.5346 26.0845C26.1755 26.0845 25.996 25.8927 25.996 25.5051C25.996 25.1909 26.0205 24.8237 26.0654 24.3994L26.8242 18.1938H24.2131L24.0458 18.8017C23.3808 18.2591 22.6504 17.9857 21.8589 17.9857C20.6023 17.9857 19.5252 18.4876 18.6317 19.4871C17.7341 20.4867 17.2894 21.776 17.2894 23.3509C17.2894 24.889 17.6851 26.1334 18.4807 27.0759C19.2763 28.0224 20.231 28.4916 21.3489 28.4916C22.3485 28.4916 23.2012 28.0714 23.9111 27.235C24.4456 28.0388 25.2331 28.4386 26.2734 28.4386C27.8034 28.4386 29.1253 27.7736 30.2392 26.4394C31.353 25.1093 31.912 23.5018 31.912 21.621C31.912 19.2383 31.0021 17.2024 29.1743 15.5214ZM23.1604 24.9094C22.6994 25.5296 22.1486 25.8437 21.508 25.8437C21.0715 25.8437 20.7206 25.6153 20.4554 25.1583C20.1861 24.7013 20.0515 24.1342 20.0515 23.4529C20.0515 22.6124 20.2392 21.9351 20.6145 21.4211C20.9899 20.907 21.455 20.6459 22.0099 20.6459C22.4913 20.6459 22.9197 20.8376 23.2951 21.2252C23.6704 21.6128 23.8581 22.1269 23.8581 22.7715C23.854 23.5753 23.6215 24.2852 23.1604 24.9094Z" fill="#FF8D47"/>
</svg>
