<svg width="23" height="25" viewBox="0 0 23 25" fill="none" xmlns="http://www.w3.org/2000/svg">
<path d="M8.10184 25C6.28201 25 4.56571 24.4194 3.13846 23.3208C2.87186 23.1157 2.61551 22.8916 2.37625 22.6553C0.710237 21.0088 -0.128142 18.8159 0.0159012 16.4805C0.124788 14.7153 0.835726 13.0137 2.01883 11.689C3.58573 9.93457 5.74588 8.96826 8.10233 8.96826C8.50711 8.96826 8.9158 8.99854 9.31815 9.05811L9.94315 9.15088V14.6973L8.98075 14.3794C8.70047 14.2866 8.40897 14.2397 8.11405 14.2397C7.36893 14.2397 6.67118 14.5317 6.1492 15.0615C5.62967 15.5889 5.34989 16.2861 5.36063 17.0259C5.37479 17.9795 5.87723 18.8438 6.70438 19.3389C7.08524 19.5664 7.51883 19.6997 7.95926 19.7241C8.30692 19.7432 8.65018 19.6978 8.98026 19.5889C10.1087 19.2163 10.867 18.1694 10.867 16.9844L10.8719 11.2324V0H16.1726L16.179 0.725586C16.1819 1.0542 16.2156 1.38281 16.2791 1.70117C16.5281 2.95312 17.2303 4.06885 18.2561 4.84229C19.1668 5.5293 20.2537 5.89209 21.3982 5.89209C21.4251 5.89209 21.4251 5.89209 21.6697 5.90918L22.3509 5.95703V10.4492V11.1816L22.1067 11.1812H21.6199C21.616 11.1812 21.6121 11.1812 21.6077 11.1812H21.3738C21.3728 11.1812 21.3714 11.1812 21.3699 11.1812C19.9583 11.1812 18.6355 10.9121 17.3245 10.3589C16.9339 10.1938 16.5535 10.0054 16.1863 9.79492L16.2029 17.0122C16.1941 19.147 15.3504 21.1494 13.8274 22.6548C12.5916 23.876 11.032 24.6562 9.31717 24.9102C8.91727 24.9697 8.50858 25 8.10184 25ZM8.10184 10.4331C6.16873 10.4331 4.39627 11.2256 3.11112 12.6646C2.14627 13.7451 1.56619 15.1323 1.47733 16.5703C1.36014 18.4771 2.04471 20.2681 3.40555 21.6128C3.60233 21.8071 3.81278 21.9912 4.03153 22.1597C5.20047 23.0596 6.60819 23.5352 8.10184 23.5352C8.4368 23.5352 8.77323 23.5103 9.10282 23.4614C10.5076 23.2534 11.7854 22.6143 12.7981 21.6133C14.0423 20.3838 14.7312 18.7495 14.7386 17.0112L14.7156 6.93359L15.8987 7.84619C16.5096 8.31738 17.1814 8.70898 17.8948 9.01025C18.8699 9.42188 19.8528 9.65039 20.8855 9.70459V7.33887C19.6092 7.24316 18.4036 6.78955 17.3738 6.0127C16.0603 5.02246 15.1614 3.59277 14.8421 1.98779C14.8079 1.81543 14.7801 1.64111 14.7596 1.46533H12.3362V11.2329L12.3313 16.9849C12.3313 18.8027 11.1692 20.4082 9.43924 20.9795C8.93485 21.146 8.40994 21.2153 7.87869 21.1865C7.20194 21.1494 6.53592 20.9448 5.95194 20.5957C4.68582 19.8384 3.91678 18.5117 3.8953 17.0474C3.87869 15.9126 4.30789 14.8423 5.10477 14.0332C5.90409 13.2217 6.97244 12.7749 8.11307 12.7749C8.23514 12.7749 8.35623 12.7803 8.47733 12.7905V10.4434C8.35233 10.4365 8.22684 10.4331 8.10184 10.4331Z" fill="#FFFCFC"/>
</svg>
