<svg width="245" height="63" viewBox="0 0 245 63" fill="none" xmlns="http://www.w3.org/2000/svg">
<path d="M41.4978 8.23341H36.6605V28.6204H41.7013C44.9073 28.6204 46.5687 26.9332 46.5687 23.7854V22.1282C46.5687 19.9708 45.8981 18.4269 44.18 17.7567C45.6079 17.0865 46.2484 15.7493 46.2484 13.6519V12.9217C46.2484 9.77728 44.8206 8.23341 41.4978 8.23341ZM41.2943 19.4473C42.7522 19.4473 43.3627 20.0308 43.3627 21.9215V23.6987C43.3627 25.2126 42.7789 25.7094 41.7013 25.7094H39.8665V19.4473H41.2943ZM41.4111 11.1444C42.5487 11.1444 43.0424 11.788 43.0424 13.2418V14.3789C43.0424 16.0094 42.3152 16.5329 41.1208 16.5329H39.8665V11.1444H41.4111ZM51.4361 12.9217C51.4361 11.4645 52.0766 10.911 53.0975 10.911C54.115 10.911 54.7588 11.4645 54.7588 12.9217V23.9322C54.7588 25.3893 54.115 25.9429 53.0975 25.9429C52.0766 25.9429 51.4361 25.3893 51.4361 23.9322V12.9217ZM48.2301 23.7288C48.2301 26.9899 49.9482 28.8539 53.0975 28.8539C56.2434 28.8539 57.9648 26.9899 57.9648 23.7288V13.1251C57.9648 9.86398 56.2434 8 53.0975 8C49.9482 8 48.2301 9.86398 48.2301 13.1251V23.7288ZM66.2984 21.0178V23.9322C66.2984 25.3893 65.6579 25.9128 64.6371 25.9128C63.6162 25.9128 62.9757 25.3893 62.9757 23.9322V12.9217C62.9757 11.4645 63.6162 10.911 64.6371 10.911C65.6579 10.911 66.2984 11.4645 66.2984 12.9217V15.1058H69.3276V13.1251C69.3276 9.86398 67.6963 8 64.5503 8C61.401 8 59.7697 9.86398 59.7697 13.1251V23.7288C59.7697 26.9899 61.401 28.8539 64.5503 28.8539C67.6963 28.8539 69.3276 26.9899 69.3276 23.7288V21.0178H66.2984ZM70.3485 11.1444H73.7013V28.6204H76.9039V11.1444H80.2567V8.23341H70.3485V11.1444ZM84.597 12.9217C84.597 11.4645 85.2409 10.911 86.2584 10.911C87.2792 10.911 87.9198 11.4645 87.9198 12.9217V23.9322C87.9198 25.3893 87.2792 25.9429 86.2584 25.9429C85.2409 25.9429 84.597 25.3893 84.597 23.9322V12.9217ZM81.3943 23.7288C81.3943 26.9899 83.1124 28.8539 86.2584 28.8539C89.4077 28.8539 91.1258 26.9899 91.1258 23.7288V13.1251C91.1258 9.86398 89.4077 8 86.2584 8C83.1124 8 81.3943 9.86398 81.3943 13.1251V23.7288ZM100.51 28.6204H103.803L99.3459 17.3199L103.803 8.23341H100.597L96.4001 17.1165V8.23341H93.1941V28.6204H96.4001V22.3583L97.391 20.4943L100.51 28.6204ZM36.6872 54.9962H37.1809C40.3869 54.9962 41.728 53.5424 41.8448 49.8144L42.1951 37.4935H44.9907V54.9695H48.2568V34.5792H39.1926L38.6688 49.9878C38.6087 51.8818 38.145 52.0852 36.6872 52.0852V54.9962ZM53.6479 39.2674C53.6479 37.8136 54.2885 37.2601 55.3093 37.2601C56.3268 37.2601 56.9673 37.8236 56.9673 39.2674V50.2779C56.9673 51.7251 56.3268 52.2886 55.3093 52.2886C54.2885 52.2886 53.6479 51.7351 53.6479 50.2779V39.2674ZM50.4419 50.0745C50.4419 53.3156 52.16 55.2029 55.3093 55.2029C58.4553 55.2029 60.1733 53.339 60.1733 50.0745V39.4742C60.1733 36.2097 58.4553 34.3458 55.3093 34.3458C52.16 34.3458 50.4419 36.2197 50.4419 39.4742V50.0745ZM65.4778 54.9695V37.4935H70.7255V34.5792H62.2718V54.9695H65.4778ZM78.8556 45.6196L80.1666 40.6079V54.9695H83.049V34.5792H79.5228L76.9006 42.9987L75.7363 47.4836V34.5792H72.8806V54.9695H76.1733L78.8556 45.6196ZM91.5895 47.3669V50.2779C91.5895 51.7251 90.9489 52.2586 89.9281 52.2586C88.9072 52.2586 88.2667 51.7351 88.2667 50.2779V39.2674C88.2667 37.8136 88.9072 37.2601 89.9281 37.2601C90.9489 37.2601 91.5895 37.8236 91.5895 39.2674V41.4549H94.6187V39.4742C94.6187 36.2097 92.9873 34.3458 89.8414 34.3458C86.6921 34.3458 85.0607 36.2197 85.0607 39.4742V50.0745C85.0607 53.3256 86.6921 55.2029 89.8414 55.2029C92.9873 55.2029 94.6187 53.339 94.6187 50.0745V47.3669H91.5895ZM95.6395 37.4935H98.9923V54.9695H102.195V37.4935H105.548V34.5792H95.6395V37.4935ZM112.921 45.6196L114.232 40.6079V54.9695H117.117V34.5792H113.591L110.969 42.9987L109.801 47.4836V34.5792H106.946V54.9695H110.238L112.921 45.6196ZM126.705 54.9695H129.998L125.538 43.6656L129.998 34.5792H126.792L122.595 43.4622V34.5792H119.389V54.9695H122.595V48.7074L123.586 46.8434L126.705 54.9695Z" fill="#FEFEFE"/>
<path fill-rule="evenodd" clip-rule="evenodd" d="M18.7056 8.00667L12.8941 8.01667L9.53126 29.7842C11.2327 30.6812 13.0475 31.5114 14.9691 32.2684L18.7056 8.00667ZM8.45036 29.1906L5.80816 8.01L0 8L2.09174 24.7791C3.92993 26.373 6.06504 27.8502 8.45036 29.1906ZM27.7664 35.8663C25.7748 35.4961 23.8365 35.0593 21.9683 34.5592V8.00667H27.7664V35.8663Z" fill="#FEFEFE"/>
<path fill-rule="evenodd" clip-rule="evenodd" d="M9.21098 31.328L8.86402 33.7856L8.54709 30.9112C6.05168 29.3407 4.08004 27.7368 2.29523 25.8762L5.75811 53.6924L5.95494 55.2563L11.3428 55.2496L11.5796 53.7224L14.5955 34.1523C12.6739 33.2854 10.8724 32.3417 9.21098 31.328ZM27.7664 38.3871V51.7451H33.5679V55.1929H27.7664H21.9683V51.7451V36.8966C23.8298 37.4602 25.7681 37.9603 27.7664 38.3871Z" fill="#FEFEFE"/>
<path d="M158.394 17V6.486H156.252V5.66H161.544V6.486H159.458V17H158.394ZM162.791 17V5.66H165.507C166.188 5.66 166.725 5.786 167.117 6.038C167.509 6.29 167.784 6.64 167.943 7.088C168.111 7.536 168.195 8.06333 168.195 8.67C168.195 9.202 168.106 9.69667 167.929 10.154C167.761 10.602 167.476 10.9613 167.075 11.232C166.683 11.5027 166.165 11.638 165.521 11.638H163.855V17H162.791ZM163.855 10.84H165.213C165.67 10.84 166.039 10.7747 166.319 10.644C166.608 10.504 166.818 10.2753 166.949 9.958C167.08 9.64067 167.145 9.21133 167.145 8.67C167.145 8.09133 167.089 7.64333 166.977 7.326C166.865 6.99933 166.669 6.77533 166.389 6.654C166.118 6.52333 165.731 6.458 165.227 6.458H163.855V10.84ZM168.724 17L171.118 5.66H172.238L174.646 17H173.596L173.036 13.962H170.334L169.76 17H168.724ZM170.488 13.192H172.896L171.692 7.074L170.488 13.192ZM175.998 17V5.66H177.076V10.686H180.646V5.66H181.71V17H180.646V11.484H177.076V17H175.998ZM186.327 17.14C185.562 17.14 184.969 16.9813 184.549 16.664C184.139 16.3467 183.854 15.922 183.695 15.39C183.537 14.8487 183.457 14.2513 183.457 13.598V9.09C183.457 8.39 183.537 7.774 183.695 7.242C183.863 6.71 184.157 6.29467 184.577 5.996C184.997 5.69733 185.581 5.548 186.327 5.548C187.009 5.548 187.541 5.67867 187.923 5.94C188.315 6.20133 188.595 6.57467 188.763 7.06C188.931 7.536 189.015 8.10533 189.015 8.768V9.454H188.007V8.796C188.007 8.30133 187.965 7.87667 187.881 7.522C187.807 7.16733 187.648 6.892 187.405 6.696C187.163 6.5 186.808 6.402 186.341 6.402C185.828 6.402 185.441 6.50933 185.179 6.724C184.927 6.92933 184.755 7.22333 184.661 7.606C184.577 7.98867 184.535 8.432 184.535 8.936V13.766C184.535 14.326 184.587 14.7927 184.689 15.166C184.801 15.5393 184.988 15.8193 185.249 16.006C185.511 16.1927 185.875 16.286 186.341 16.286C186.817 16.286 187.172 16.1833 187.405 15.978C187.648 15.7727 187.807 15.488 187.881 15.124C187.965 14.7507 188.007 14.3167 188.007 13.822V13.08H189.015V13.752C189.015 14.4147 188.936 15.0027 188.777 15.516C188.628 16.02 188.357 16.4167 187.965 16.706C187.583 16.9953 187.037 17.14 186.327 17.14ZM190.682 17V5.66H196.478V17H195.414V6.458H191.745V17H190.682ZM201.135 17.14C200.379 17.14 199.786 16.9953 199.357 16.706C198.937 16.4073 198.638 15.9967 198.461 15.474C198.293 14.942 198.209 14.3353 198.209 13.654V8.95C198.209 8.25933 198.298 7.662 198.475 7.158C198.662 6.64467 198.965 6.248 199.385 5.968C199.814 5.688 200.398 5.548 201.135 5.548C201.863 5.548 202.437 5.688 202.857 5.968C203.286 6.248 203.59 6.64467 203.767 7.158C203.944 7.662 204.033 8.25933 204.033 8.95V13.668C204.033 14.3493 203.944 14.9513 203.767 15.474C203.599 15.9873 203.305 16.3933 202.885 16.692C202.465 16.9907 201.882 17.14 201.135 17.14ZM201.135 16.286C201.63 16.286 202.008 16.188 202.269 15.992C202.53 15.7867 202.708 15.5067 202.801 15.152C202.904 14.788 202.955 14.368 202.955 13.892V8.754C202.955 8.278 202.904 7.86267 202.801 7.508C202.708 7.15333 202.53 6.88267 202.269 6.696C202.008 6.5 201.63 6.402 201.135 6.402C200.631 6.402 200.244 6.5 199.973 6.696C199.712 6.88267 199.53 7.15333 199.427 7.508C199.334 7.86267 199.287 8.278 199.287 8.754V13.892C199.287 14.368 199.334 14.788 199.427 15.152C199.53 15.5067 199.712 15.7867 199.973 15.992C200.244 16.188 200.631 16.286 201.135 16.286ZM205.803 17V5.66H208.519C209.2 5.66 209.737 5.786 210.129 6.038C210.521 6.29 210.796 6.64 210.955 7.088C211.123 7.536 211.207 8.06333 211.207 8.67C211.207 9.202 211.118 9.69667 210.941 10.154C210.773 10.602 210.488 10.9613 210.087 11.232C209.695 11.5027 209.177 11.638 208.533 11.638H206.867V17H205.803ZM206.867 10.84H208.225C208.682 10.84 209.051 10.7747 209.331 10.644C209.62 10.504 209.83 10.2753 209.961 9.958C210.091 9.64067 210.157 9.21133 210.157 8.67C210.157 8.09133 210.101 7.64333 209.989 7.326C209.877 6.99933 209.681 6.77533 209.401 6.654C209.13 6.52333 208.743 6.458 208.239 6.458H206.867V10.84ZM213.97 17V6.486H211.828V5.66H217.12V6.486H215.034V17H213.97ZM218.353 17V5.66H219.431V10.686H223.001V5.66H224.065V17H223.001V11.484H219.431V17H218.353ZM225.435 17L227.829 5.66H228.949L231.357 17H230.307L229.747 13.962H227.045L226.471 17H225.435ZM227.199 13.192H229.607L228.403 7.074L227.199 13.192ZM231.995 17L234.305 11.862C233.754 11.638 233.343 11.2553 233.073 10.714C232.802 10.1633 232.667 9.50533 232.667 8.74C232.667 8.17067 232.76 7.65733 232.947 7.2C233.143 6.73333 233.469 6.36 233.927 6.08C234.393 5.8 235.023 5.66 235.817 5.66H238.225V17H237.147V12.142H235.719C235.663 12.142 235.579 12.142 235.467 12.142C235.364 12.1327 235.285 12.128 235.229 12.128L233.199 17H231.995ZM235.901 11.358H237.147V6.458H235.859C235.168 6.458 234.636 6.63533 234.263 6.99C233.889 7.33533 233.703 7.914 233.703 8.726C233.703 9.60333 233.866 10.2613 234.193 10.7C234.529 11.1387 235.098 11.358 235.901 11.358ZM156.224 38.014V37.202C156.495 37.1927 156.723 37.1647 156.91 37.118C157.097 37.062 157.251 36.9453 157.372 36.768C157.503 36.5907 157.61 36.3013 157.694 35.9C157.787 35.4987 157.871 34.948 157.946 34.248C158.03 33.548 158.114 32.652 158.198 31.56L158.534 26.66H162.944V38H161.866V27.472H159.486L159.22 31.56C159.136 32.6333 159.052 33.548 158.968 34.304C158.893 35.0507 158.795 35.6713 158.674 36.166C158.553 36.6513 158.389 37.034 158.184 37.314C157.988 37.5847 157.731 37.7713 157.414 37.874C157.097 37.9767 156.7 38.0233 156.224 38.014ZM167.612 38.14C166.856 38.14 166.263 37.9953 165.834 37.706C165.414 37.4073 165.115 36.9967 164.938 36.474C164.77 35.942 164.686 35.3353 164.686 34.654V29.95C164.686 29.2593 164.774 28.662 164.952 28.158C165.138 27.6447 165.442 27.248 165.862 26.968C166.291 26.688 166.874 26.548 167.612 26.548C168.34 26.548 168.914 26.688 169.334 26.968C169.763 27.248 170.066 27.6447 170.244 28.158C170.421 28.662 170.51 29.2593 170.51 29.95V34.668C170.51 35.3493 170.421 35.9513 170.244 36.474C170.076 36.9873 169.782 37.3933 169.362 37.692C168.942 37.9907 168.358 38.14 167.612 38.14ZM167.612 37.286C168.106 37.286 168.484 37.188 168.746 36.992C169.007 36.7867 169.184 36.5067 169.278 36.152C169.38 35.788 169.432 35.368 169.432 34.892V29.754C169.432 29.278 169.38 28.8627 169.278 28.508C169.184 28.1533 169.007 27.8827 168.746 27.696C168.484 27.5 168.106 27.402 167.612 27.402C167.108 27.402 166.72 27.5 166.45 27.696C166.188 27.8827 166.006 28.1533 165.904 28.508C165.81 28.8627 165.764 29.278 165.764 29.754V34.892C165.764 35.368 165.81 35.788 165.904 36.152C166.006 36.5067 166.188 36.7867 166.45 36.992C166.72 37.188 167.108 37.286 167.612 37.286ZM172.279 38V26.66H176.297V27.486H173.343V38H172.279ZM177.515 38V26.66H178.467V35.648L182.135 26.66H182.961V38H182.009V28.97L178.355 38H177.515ZM187.571 38.14C186.806 38.14 186.213 37.9813 185.793 37.664C185.383 37.3467 185.098 36.922 184.939 36.39C184.781 35.8487 184.701 35.2513 184.701 34.598V30.09C184.701 29.39 184.781 28.774 184.939 28.242C185.107 27.71 185.401 27.2947 185.821 26.996C186.241 26.6973 186.825 26.548 187.571 26.548C188.253 26.548 188.785 26.6787 189.167 26.94C189.559 27.2013 189.839 27.5747 190.007 28.06C190.175 28.536 190.259 29.1053 190.259 29.768V30.454H189.251V29.796C189.251 29.3013 189.209 28.8767 189.125 28.522C189.051 28.1673 188.892 27.892 188.649 27.696C188.407 27.5 188.052 27.402 187.585 27.402C187.072 27.402 186.685 27.5093 186.423 27.724C186.171 27.9293 185.999 28.2233 185.905 28.606C185.821 28.9887 185.779 29.432 185.779 29.936V34.766C185.779 35.326 185.831 35.7927 185.933 36.166C186.045 36.5393 186.232 36.8193 186.493 37.006C186.755 37.1927 187.119 37.286 187.585 37.286C188.061 37.286 188.416 37.1833 188.649 36.978C188.892 36.7727 189.051 36.488 189.125 36.124C189.209 35.7507 189.251 35.3167 189.251 34.822V34.08H190.259V34.752C190.259 35.4147 190.18 36.0027 190.021 36.516C189.872 37.02 189.601 37.4167 189.209 37.706C188.827 37.9953 188.281 38.14 187.571 38.14ZM193.326 38V27.486H191.184V26.66H196.476V27.486H194.39V38H193.326ZM197.709 38V26.66H198.661V35.648L202.329 26.66H203.155V38H202.203V28.97L198.549 38H197.709ZM209.375 38V32.75C208.777 32.9087 208.222 32.988 207.709 32.988C207.102 32.988 206.584 32.8993 206.155 32.722C205.735 32.5447 205.413 32.274 205.189 31.91C204.965 31.5367 204.853 31.056 204.853 30.468V26.66H205.931V30.468C205.931 30.916 206.01 31.2707 206.169 31.532C206.337 31.7933 206.565 31.98 206.855 32.092C207.153 32.1947 207.503 32.246 207.905 32.246C208.157 32.246 208.409 32.2273 208.661 32.19C208.913 32.1433 209.151 32.0827 209.375 32.008V26.66H210.453V38H209.375ZM212.433 38V26.66H216.535V27.486H213.511V31.742H215.975V32.526H213.511V37.202H216.563V38H212.433ZM220.657 38.14C219.892 38.14 219.299 37.9813 218.879 37.664C218.469 37.3467 218.184 36.922 218.025 36.39C217.867 35.8487 217.787 35.2513 217.787 34.598V30.09C217.787 29.39 217.867 28.774 218.025 28.242C218.193 27.71 218.487 27.2947 218.907 26.996C219.327 26.6973 219.911 26.548 220.657 26.548C221.339 26.548 221.871 26.6787 222.253 26.94C222.645 27.2013 222.925 27.5747 223.093 28.06C223.261 28.536 223.345 29.1053 223.345 29.768V30.454H222.337V29.796C222.337 29.3013 222.295 28.8767 222.211 28.522C222.137 28.1673 221.978 27.892 221.735 27.696C221.493 27.5 221.138 27.402 220.671 27.402C220.158 27.402 219.771 27.5093 219.509 27.724C219.257 27.9293 219.085 28.2233 218.991 28.606C218.907 28.9887 218.865 29.432 218.865 29.936V34.766C218.865 35.326 218.917 35.7927 219.019 36.166C219.131 36.5393 219.318 36.8193 219.579 37.006C219.841 37.1927 220.205 37.286 220.671 37.286C221.147 37.286 221.502 37.1833 221.735 36.978C221.978 36.7727 222.137 36.488 222.211 36.124C222.295 35.7507 222.337 35.3167 222.337 34.822V34.08H223.345V34.752C223.345 35.4147 223.266 36.0027 223.107 36.516C222.958 37.02 222.687 37.4167 222.295 37.706C221.913 37.9953 221.367 38.14 220.657 38.14ZM224.998 38V26.66H226.076V31.868H226.874L229.198 26.66H230.276L227.812 32.12L230.654 38H229.576L226.888 32.442H226.076V38H224.998ZM231.177 38L233.571 26.66H234.691L237.099 38H236.049L235.489 34.962H232.787L232.213 38H231.177ZM232.941 34.192H235.349L234.145 28.074L232.941 34.192ZM237.737 38L240.047 32.862C239.496 32.638 239.085 32.2553 238.815 31.714C238.544 31.1633 238.409 30.5053 238.409 29.74C238.409 29.1707 238.502 28.6573 238.689 28.2C238.885 27.7333 239.211 27.36 239.669 27.08C240.135 26.8 240.765 26.66 241.559 26.66H243.967V38H242.889V33.142H241.461C241.405 33.142 241.321 33.142 241.209 33.142C241.106 33.1327 241.027 33.128 240.971 33.128L238.941 38H237.737ZM241.643 32.358H242.889V27.458H241.601C240.91 27.458 240.378 27.6353 240.005 27.99C239.631 28.3353 239.445 28.914 239.445 29.726C239.445 30.6033 239.608 31.2613 239.935 31.7C240.271 32.1387 240.84 32.358 241.643 32.358ZM156.98 59V47.66H158.058V52.868H158.856L161.18 47.66H162.258L159.794 53.12L162.636 59H161.558L158.87 53.442H158.058V59H156.98ZM166.463 59.14C165.707 59.14 165.115 58.9953 164.685 58.706C164.265 58.4073 163.967 57.9967 163.789 57.474C163.621 56.942 163.537 56.3353 163.537 55.654V50.95C163.537 50.2593 163.626 49.662 163.803 49.158C163.99 48.6447 164.293 48.248 164.713 47.968C165.143 47.688 165.726 47.548 166.463 47.548C167.191 47.548 167.765 47.688 168.185 47.968C168.615 48.248 168.918 48.6447 169.095 49.158C169.273 49.662 169.361 50.2593 169.361 50.95V55.668C169.361 56.3493 169.273 56.9513 169.095 57.474C168.927 57.9873 168.633 58.3933 168.213 58.692C167.793 58.9907 167.21 59.14 166.463 59.14ZM166.463 58.286C166.958 58.286 167.336 58.188 167.597 57.992C167.859 57.7867 168.036 57.5067 168.129 57.152C168.232 56.788 168.283 56.368 168.283 55.892V50.754C168.283 50.278 168.232 49.8627 168.129 49.508C168.036 49.1533 167.859 48.8827 167.597 48.696C167.336 48.5 166.958 48.402 166.463 48.402C165.959 48.402 165.572 48.5 165.301 48.696C165.04 48.8827 164.858 49.1533 164.755 49.508C164.662 49.8627 164.615 50.278 164.615 50.754V55.892C164.615 56.368 164.662 56.788 164.755 57.152C164.858 57.5067 165.04 57.7867 165.301 57.992C165.572 58.188 165.959 58.286 166.463 58.286ZM171.033 59L171.313 47.66H172.377L174.617 57.502L176.899 47.66H177.963L178.243 59H177.361L177.137 49.97L174.967 59H174.281L172.139 49.984L171.915 59H171.033ZM180.127 59V47.66H185.923V59H184.859V48.458H181.191V59H180.127ZM187.276 59L189.67 47.66H190.79L193.198 59H192.148L191.588 55.962H188.886L188.312 59H187.276ZM189.04 55.192H191.448L190.244 49.074L189.04 55.192ZM194.55 59V47.66H195.628V52.686H199.198V47.66H200.262V59H199.198V53.484H195.628V59H194.55ZM202.234 59V47.66H203.186V56.648L206.854 47.66H207.68V59H206.728V49.97L203.074 59H202.234ZM208.93 59L211.24 53.862C210.689 53.638 210.279 53.2553 210.008 52.714C209.737 52.1633 209.602 51.5053 209.602 50.74C209.602 50.1707 209.695 49.6573 209.882 49.2C210.078 48.7333 210.405 48.36 210.862 48.08C211.329 47.8 211.959 47.66 212.752 47.66H215.16V59H214.082V54.142H212.654C212.598 54.142 212.514 54.142 212.402 54.142C212.299 54.1327 212.22 54.128 212.164 54.128L210.134 59H208.93ZM212.836 53.358H214.082V48.458H212.794C212.103 48.458 211.571 48.6353 211.198 48.99C210.825 49.3353 210.638 49.914 210.638 50.726C210.638 51.6033 210.801 52.2613 211.128 52.7C211.464 53.1387 212.033 53.358 212.836 53.358Z" fill="white"/>
<line x1="143.5" y1="-2.18557e-08" x2="143.5" y2="63" stroke="white"/>
</svg>
