<svg width="28" height="29" viewBox="0 0 28 29" fill="none" xmlns="http://www.w3.org/2000/svg">
<path fill-rule="evenodd" clip-rule="evenodd" d="M23.9123 4.08726C21.281 1.45294 17.7817 0.00154495 14.0537 0C6.3719 0 0.119991 6.25174 0.116901 13.9356C0.115871 16.3919 0.757542 18.7897 1.9772 20.9032L0 28.125L7.38813 26.1869C9.42386 27.2974 11.7157 27.8826 14.0481 27.8833H14.0539C21.7349 27.8833 27.9875 21.6311 27.9904 13.9468C27.992 10.2228 26.5437 6.7214 23.9123 4.08726ZM14.0537 25.5297H14.0489C11.9705 25.5288 9.93198 24.9702 8.15323 23.915L7.73043 23.6639L3.34619 24.814L4.51641 20.5395L4.24089 20.1012C3.08132 18.2569 2.46901 16.1252 2.47004 13.9365C2.47244 7.54984 7.66897 2.35382 14.0584 2.35382C17.1524 2.35485 20.0609 3.56129 22.2478 5.75083C24.4348 7.94037 25.6385 10.8507 25.6375 13.9459C25.6347 20.3331 20.4385 25.5297 14.0537 25.5297V25.5297ZM20.4076 16.8541C20.0595 16.6796 18.3473 15.8375 18.028 15.7211C17.7091 15.6049 17.4767 15.547 17.2448 15.8955C17.0125 16.244 16.3453 17.0285 16.142 17.2607C15.9388 17.4932 15.7359 17.5223 15.3876 17.3479C15.0393 17.1737 13.9173 16.8058 12.5871 15.6195C11.552 14.6961 10.8531 13.5558 10.6499 13.2073C10.447 12.8585 10.6482 12.6882 10.8026 12.4966C11.1796 12.0285 11.5571 11.5377 11.6731 11.3054C11.7894 11.073 11.7312 10.8696 11.644 10.6954C11.5571 10.5211 10.8607 8.80709 10.5706 8.10963C10.2877 7.43088 10.0008 7.52254 9.78693 7.5119C9.58402 7.50177 9.35177 7.49971 9.11951 7.49971C8.88742 7.49971 8.51011 7.58675 8.19082 7.93556C7.8717 8.28421 6.9722 9.12655 6.9722 10.8406C6.9722 12.5546 8.22 14.2105 8.39407 14.4429C8.56813 14.6753 10.8497 18.1927 14.3428 19.7009C15.1737 20.06 15.8222 20.2741 16.3281 20.4346C17.1624 20.6996 17.9213 20.6622 18.5214 20.5726C19.1905 20.4725 20.5815 19.7301 20.872 18.9167C21.1621 18.1032 21.1621 17.4061 21.0749 17.2607C20.988 17.1155 20.7557 17.0285 20.4076 16.8541V16.8541Z" fill="#010125"/>
</svg>
