<svg width="245" height="87" viewBox="0 0 245 87" fill="none" xmlns="http://www.w3.org/2000/svg">
<path fill-rule="evenodd" clip-rule="evenodd" d="M21.8714 24.911L15.0764 24.923L11.1449 50.344C13.1342 51.3921 15.2561 52.3615 17.5028 53.2455L21.8714 24.9121V24.911ZM9.8808 49.6504L6.79168 24.9154L0 24.9033L2.4461 44.4983C4.59534 46.3605 7.09183 48.0847 9.8808 49.6504ZM32.4664 57.4468C30.1375 57.0146 27.8711 56.5037 25.6868 55.9194V24.911H32.4664V57.4468Z" fill="white"/>
<path fill-rule="evenodd" clip-rule="evenodd" d="M10.7691 52.1461L10.3627 55.0159L9.99244 51.6592C7.0742 49.8256 4.76941 47.9525 2.68152 45.7786L6.73024 78.2629L6.96028 80.0901L13.2601 80.0824L13.5362 78.299L17.0635 55.4448C14.8156 54.4317 12.7102 53.3299 10.7669 52.1461H10.7691ZM32.4652 60.39V75.9894H39.2482V80.0157H32.4652H25.6856V75.9894V58.6493C27.8622 59.3069 30.1287 59.8911 32.4652 60.39Z" fill="white"/>
<path d="M148.073 38.3082V24.0227H149.415V38.3082H148.073ZM151.957 38.3082V24.0227H152.928L157.484 35.1167V24.0227H158.649V38.3082H157.696L153.123 27.0905V38.3082H151.957ZM162.905 38.3082V25.0632H160.204V24.0227H166.878V25.0632H164.247V38.3082H162.905ZM168.433 38.3082V24.0227H173.606V25.0632H169.792V30.4253H172.9V31.4132H169.792V37.3038H173.641V38.3092H168.433V38.3082ZM175.478 38.3082V24.0227H178.71C179.605 24.0227 180.308 24.1671 180.82 24.4549C181.331 24.7426 181.699 25.1606 181.924 25.7065C182.147 26.2536 182.259 26.9034 182.259 27.6551C182.259 28.1835 182.2 28.6835 182.083 29.154C181.965 29.6244 181.765 30.0238 181.482 30.3531C181.2 30.6824 180.799 30.9001 180.282 31.0052L182.472 38.3071H181.165L179.064 31.2874H176.821V38.3071H175.479L175.478 38.3082ZM176.82 30.3006H178.639C179.239 30.3006 179.705 30.201 180.034 30.0008C180.364 29.8006 180.599 29.5063 180.741 29.119C180.882 28.7306 180.952 28.2426 180.952 27.6551C180.952 26.7733 180.799 26.1146 180.493 25.6792C180.188 25.2448 179.581 25.0271 178.675 25.0271H176.82V30.3006ZM184.52 38.3082V24.0227H185.492L190.048 35.1167V24.0227H191.213V38.3082H190.259L185.686 27.0905V38.3082H184.52ZM192.925 38.3082L195.944 24.0227H197.357L200.395 38.3082H199.071L198.364 34.4811H194.956L194.232 38.3082H192.925ZM195.15 33.5106H198.188L196.669 25.8039L195.151 33.5106H195.15ZM203.255 38.3082V25.0632H200.553V24.0227H207.228V25.0632H204.597V38.3082H203.255ZM208.835 38.3082V24.0227H210.177V38.3082H208.835ZM216.111 38.4843C215.158 38.4843 214.413 38.2994 213.878 37.9285C213.342 37.5576 212.965 37.0401 212.747 36.376C212.529 35.7119 212.421 34.9504 212.421 34.0927V28.1671C212.421 27.2973 212.536 26.5413 212.765 25.9002C212.994 25.2601 213.377 24.7634 213.913 24.41C214.448 24.0577 215.181 23.8816 216.111 23.8816C217.029 23.8816 217.757 24.0577 218.292 24.41C218.828 24.7634 219.208 25.2601 219.431 25.9002C219.655 26.5413 219.767 27.2962 219.767 28.1671V34.1102C219.767 34.969 219.658 35.7239 219.44 36.376C219.222 37.0292 218.849 37.5434 218.319 37.9187C217.788 38.295 217.053 38.4832 216.111 38.4832V38.4843ZM216.111 37.4077C216.735 37.4077 217.212 37.2819 217.542 37.0292C217.872 36.7764 218.098 36.4241 218.222 35.9712C218.346 35.5182 218.407 34.992 218.407 34.3924V27.9198C218.407 27.3203 218.345 26.7973 218.222 26.3498C218.098 25.9035 217.872 25.5588 217.542 25.3181C217.212 25.0774 216.736 24.956 216.111 24.956C215.476 24.956 214.99 25.0763 214.654 25.3181C214.319 25.5588 214.089 25.9035 213.965 26.3498C213.841 26.7962 213.78 27.3203 213.78 27.9198V34.3924C213.78 34.992 213.843 35.5182 213.965 35.9712C214.089 36.4241 214.318 36.7764 214.654 37.0292C214.99 37.2819 215.475 37.4077 216.111 37.4077ZM221.992 38.3071V24.0216H222.963L227.519 35.1156V24.0216H228.685V38.3071H227.73L223.157 27.0894V38.3071H221.992ZM230.397 38.3071L233.417 24.0216H234.83L237.868 38.3071H236.543L235.837 34.48H232.429L231.705 38.3071H230.398H230.397ZM232.622 33.5095H235.659L234.141 25.8028L232.623 33.5095H232.622ZM239.596 38.3071V24.0216H240.938V37.3016H245V38.3071H239.596ZM211.855 59.0115V44.726H213.197V59.0115H211.855ZM215.74 59.0115V44.726H216.712L221.267 55.8189V44.726H222.433V59.0115H221.48L216.907 47.7949V59.0115H215.741H215.74ZM228.153 59.2051C227.246 59.2051 226.538 59.0169 226.025 58.6406C225.513 58.2642 225.151 57.7325 224.939 57.0443C224.728 56.3561 224.622 55.5596 224.622 54.6548V49.0816C224.622 48.1647 224.725 47.3704 224.931 46.7009C225.137 46.0313 225.501 45.5105 226.025 45.1407C226.549 44.7698 227.288 44.5849 228.241 44.5849C229.101 44.5849 229.78 44.7435 230.281 45.0608C230.781 45.3781 231.143 45.8431 231.366 46.4547C231.59 47.0663 231.701 47.8124 231.701 48.6943V49.1888H230.43V48.6943C230.43 48.0127 230.368 47.4481 230.245 47.0006C230.121 46.5542 229.906 46.2184 229.6 45.9952C229.295 45.772 228.847 45.6604 228.258 45.6604C227.599 45.6604 227.105 45.8015 226.775 46.0838C226.446 46.3661 226.231 46.7545 226.131 47.2479C226.031 47.7424 225.981 48.3059 225.981 48.9415V54.8146C225.981 55.5082 226.044 56.099 226.166 56.587C226.29 57.0749 226.52 57.4513 226.855 57.7161C227.19 57.9808 227.665 58.1132 228.277 58.1132C228.877 58.1132 229.336 57.9808 229.654 57.7161C229.972 57.4513 230.195 57.0727 230.326 56.5782C230.455 56.0837 230.519 55.4841 230.519 54.7796V53.1045H228.4V52.0991H231.755V59.0126H230.89L230.731 57.39C230.555 57.9305 230.263 58.3692 229.857 58.704C229.45 59.0388 228.883 59.2062 228.152 59.2062L228.153 59.2051ZM148.038 59.0115V44.726H153.176V45.7315H149.38V51.1111H152.54V52.0991H149.38V59.0126H148.038V59.0115ZM158.244 59.1876C157.291 59.1876 156.546 59.0027 156.01 58.6318C155.475 58.262 155.098 57.7445 154.88 57.0804C154.662 56.4163 154.553 55.6548 154.553 54.796V48.8704C154.553 48.0006 154.668 47.2446 154.897 46.6046C155.127 45.9634 155.51 45.4667 156.045 45.1144C156.581 44.7621 157.314 44.586 158.244 44.586C159.162 44.586 159.889 44.7621 160.425 45.1144C160.961 45.4667 161.341 45.9634 161.564 46.6046C161.788 47.2457 161.899 48.0006 161.899 48.8704V54.8146C161.899 55.6723 161.791 56.4283 161.573 57.0804C161.355 57.7325 160.981 58.2478 160.451 58.6231C159.921 58.9994 159.186 59.1876 158.244 59.1876ZM158.244 58.1121C158.867 58.1121 159.345 57.9863 159.675 57.7325C160.004 57.4797 160.231 57.1275 160.355 56.6745C160.479 56.2215 160.54 55.6953 160.54 55.0957V48.6232C160.54 48.0236 160.477 47.5006 160.355 47.0531C160.231 46.6057 160.004 46.2621 159.675 46.0214C159.345 45.7807 158.868 45.6604 158.244 45.6604C157.609 45.6604 157.122 45.7807 156.787 46.0214C156.452 46.2632 156.222 46.6068 156.098 47.0531C155.974 47.4995 155.913 48.0225 155.913 48.6232V55.0957C155.913 55.6953 155.975 56.2215 156.098 56.6745C156.222 57.1275 156.451 57.4797 156.787 57.7325C157.122 57.9852 157.607 58.1121 158.244 58.1121ZM164.124 59.0115V44.726H167.356C168.251 44.726 168.954 44.8705 169.467 45.1582C169.978 45.447 170.346 45.8639 170.571 46.4109C170.794 46.9569 170.906 47.6068 170.906 48.3595C170.906 48.889 170.847 49.3879 170.729 49.8584C170.611 50.3288 170.411 50.7293 170.128 51.0575C169.846 51.3868 169.446 51.6034 168.928 51.7096L171.117 59.0115H169.811L167.71 51.9918H165.467V59.0115H164.125H164.124ZM165.466 51.0039H167.285C167.885 51.0039 168.349 50.9043 168.679 50.7041C169.009 50.5039 169.244 50.2107 169.386 49.8223C169.527 49.4339 169.597 48.9459 169.597 48.3584C169.597 47.4766 169.444 46.8179 169.138 46.3836C168.832 45.9481 168.225 45.7315 167.32 45.7315H165.465V51.005L165.466 51.0039ZM174.861 59.0115L172.442 44.726H173.589L175.478 56.331L177.632 44.9383H178.745L180.952 56.3496L182.701 44.7271H183.831L181.517 59.0126H180.476L178.197 47.2315L175.955 59.0126H174.859L174.861 59.0115ZM184.379 59.0115L187.399 44.726H188.812L191.85 59.0115H190.525L189.819 55.1844H186.411L185.687 59.0115H184.38H184.379ZM186.604 54.215H189.641L188.123 46.5083L186.605 54.215H186.604ZM193.579 59.0115V44.726H196.811C197.706 44.726 198.409 44.8705 198.921 45.1582C199.432 45.447 199.8 45.8639 200.025 46.4109C200.248 46.9569 200.36 47.6068 200.36 48.3595C200.36 48.889 200.301 49.3879 200.184 49.8584C200.066 50.3288 199.866 50.7293 199.583 51.0575C199.301 51.3868 198.9 51.6034 198.383 51.7096L200.573 59.0115H199.266L197.165 51.9918H194.922V59.0115H193.58H193.579ZM194.921 51.0039H196.74C197.34 51.0039 197.805 50.9043 198.135 50.7041C198.465 50.5039 198.7 50.2107 198.842 49.8223C198.983 49.4339 199.053 48.9459 199.053 48.3584C199.053 47.4766 198.9 46.8179 198.594 46.3836C198.289 45.9481 197.682 45.7315 196.776 45.7315H194.921V51.005V51.0039ZM202.621 59.0115V44.726H205.729C206.729 44.726 207.509 44.9 208.069 45.2457C208.628 45.5926 209.025 46.0838 209.26 46.7184C209.496 47.3529 209.614 48.0881 209.614 48.9229V54.6023C209.614 55.4841 209.497 56.2566 209.26 56.9218C209.025 57.5859 208.637 58.1012 208.095 58.4644C207.554 58.8287 206.806 59.0115 205.853 59.0115H202.621ZM203.963 58.006H205.764C206.517 58.006 207.071 57.8495 207.423 57.5388C207.777 57.227 208.001 56.7981 208.095 56.2511C208.189 55.7051 208.236 55.0848 208.236 54.3912V49.0652C208.236 48.3485 208.175 47.7457 208.051 47.2566C207.927 46.7687 207.686 46.3989 207.327 46.1451C206.968 45.8923 206.429 45.7654 205.711 45.7654H203.963V58.006ZM151.359 79.892C150.394 79.892 149.649 79.6918 149.126 79.2924C148.602 78.8931 148.239 78.3548 148.04 77.6787C147.839 77.0025 147.74 76.2531 147.74 75.4303V69.751C147.74 68.8691 147.843 68.0934 148.049 67.4228C148.255 66.7521 148.623 66.2291 149.153 65.8528C149.682 65.4764 150.418 65.2882 151.36 65.2882C152.219 65.2882 152.894 65.4534 153.382 65.7827C153.871 66.112 154.221 66.5792 154.433 67.1853C154.644 67.7904 154.751 68.5114 154.751 69.3462V70.2105H153.479V69.3812C153.479 68.7586 153.428 68.2236 153.329 67.7761C153.229 67.3298 153.025 66.9818 152.72 66.7357C152.414 66.4895 151.966 66.3659 151.378 66.3659C150.73 66.3659 150.245 66.4983 149.921 66.763C149.598 67.0278 149.38 67.4009 149.267 67.8834C149.155 68.3659 149.099 68.9238 149.099 69.5595V75.6437C149.099 76.3494 149.167 76.9369 149.302 77.4073C149.438 77.8778 149.67 78.2301 150 78.4653C150.329 78.7006 150.788 78.8176 151.377 78.8176C151.977 78.8176 152.427 78.6885 152.727 78.4292C153.027 78.1699 153.228 77.8089 153.328 77.3439C153.427 76.88 153.478 76.3351 153.478 75.7126V74.7783H154.749V75.6251C154.749 76.4599 154.652 77.1973 154.458 77.8384C154.264 78.4795 153.922 78.9817 153.434 79.3461C152.945 79.7104 152.254 79.8931 151.359 79.8931V79.892ZM160.241 79.892C159.287 79.892 158.542 79.7071 158.007 79.3362C157.472 78.9653 157.095 78.4478 156.877 77.7848C156.659 77.1207 156.55 76.3592 156.55 75.5004V69.5748C156.55 68.705 156.665 67.949 156.894 67.309C157.124 66.6678 157.507 66.1711 158.042 65.8188C158.578 65.4665 159.311 65.2893 160.241 65.2893C161.159 65.2893 161.886 65.4665 162.422 65.8188C162.958 66.1711 163.338 66.6678 163.56 67.309C163.784 67.9501 163.895 68.705 163.895 69.5748V75.5179C163.895 76.3767 163.787 77.1316 163.569 77.7848C163.351 78.4369 162.977 78.9511 162.447 79.3275C161.918 79.7038 161.182 79.892 160.24 79.892H160.241ZM160.241 78.8165C160.864 78.8165 161.342 78.6896 161.672 78.4369C162.001 78.1841 162.228 77.8319 162.352 77.3789C162.476 76.926 162.537 76.3997 162.537 75.8001V69.3276C162.537 68.728 162.476 68.205 162.352 67.7575C162.228 67.3112 162.001 66.9665 161.672 66.7258C161.342 66.4851 160.865 66.3648 160.241 66.3648C159.606 66.3648 159.119 66.4851 158.784 66.7258C158.449 66.9665 158.219 67.3112 158.095 67.7575C157.971 68.2039 157.91 68.728 157.91 69.3276V75.8001C157.91 76.3997 157.972 76.926 158.095 77.3789C158.219 77.8319 158.449 78.1841 158.784 78.4369C159.119 78.6896 159.604 78.8165 160.241 78.8165ZM165.997 79.7159L166.35 65.4304H167.692L170.517 77.8286L173.396 65.4304H174.738L175.092 79.7159H173.979L173.696 68.3407L170.959 79.7159H170.093L167.391 68.3582L167.108 79.7159H165.995H165.997ZM177.475 79.7159V65.4304H180.901C181.76 65.4304 182.437 65.5891 182.932 65.9064C183.427 66.2236 183.776 66.6646 183.982 67.2291C184.188 67.7937 184.291 68.4578 184.291 69.2225C184.291 69.8921 184.183 70.5124 183.965 71.0825C183.747 71.6525 183.387 72.1087 182.887 72.449C182.386 72.7903 181.73 72.9599 180.918 72.9599H178.817V79.7148H177.475V79.7159ZM178.817 71.9555H180.53C181.108 71.9555 181.576 71.8702 181.935 71.6995C182.294 71.5289 182.556 71.2433 182.72 70.844C182.886 70.4446 182.968 69.903 182.968 69.2214C182.968 68.4928 182.898 67.9249 182.756 67.519C182.615 67.1131 182.371 66.8309 182.024 66.6722C181.676 66.5136 181.184 66.4337 180.549 66.4337H178.818V71.9544L178.817 71.9555ZM184.504 79.7159L187.524 65.4304H188.937L191.974 79.7159H190.65L189.944 75.8888H186.536L185.812 79.7159H184.505H184.504ZM186.728 74.9183H189.766L188.248 67.2116L186.73 74.9183H186.728ZM193.704 79.7159V65.4304H194.676L199.232 76.5233V65.4304H200.397V79.7159H199.443L194.87 68.4993V79.7159H193.704ZM205.165 79.7159V74.9719L201.933 65.4304H203.24L205.819 73.3669L208.291 65.4304H209.615L206.473 74.9719V79.7159H205.166H205.165Z" fill="#FEFEFE"/>
<path d="M50.2454 44.8157L53.1264 25.2579H56.5902L52.8865 49.2336H47.2626L43.5589 25.2579H47.3655L50.2465 44.8157H50.2454ZM61.8022 43.7194C61.8022 44.587 61.9797 45.1975 62.3335 45.552C62.6873 45.9054 63.1617 46.0826 63.7565 46.0826C64.3513 46.0826 64.8256 45.9054 65.1795 45.552C65.5333 45.1975 65.7107 44.587 65.7107 43.7194V30.7721C65.7107 29.9045 65.5333 29.294 65.1795 28.9395C64.8256 28.585 64.3502 28.4088 63.7565 28.4088C63.1617 28.4088 62.6873 28.5861 62.3335 28.9395C61.9797 29.2929 61.8022 29.9045 61.8022 30.7721V43.7194ZM58.0296 31.0128C58.0296 29.0719 58.5214 27.5817 59.504 26.5434C60.4866 25.5041 61.9041 24.9844 63.7565 24.9844C65.6089 24.9844 67.0263 25.5041 68.0089 26.5434C68.9916 27.5817 69.4834 29.0719 69.4834 31.0128V43.4798C69.4834 45.4207 68.9916 46.9109 68.0089 47.9492C67.0252 48.9885 65.6089 49.5082 63.7565 49.5082C61.9052 49.5082 60.4866 48.9885 59.504 47.9492C58.5203 46.9109 58.0296 45.4207 58.0296 43.4798V31.0128ZM71.4377 31.0128C71.4377 29.0719 71.901 27.5817 72.8267 26.5434C73.7523 25.5041 75.1413 24.9844 76.9937 24.9844C78.8461 24.9844 80.234 25.5041 81.1607 26.5434C82.0863 27.5817 82.5497 29.0719 82.5497 31.0128V31.9373H78.983V30.7721C78.983 29.9045 78.8176 29.294 78.4857 28.9395C78.1538 28.585 77.6915 28.4088 77.0967 28.4088C76.5018 28.4088 76.0396 28.5861 75.7076 28.9395C75.3757 29.2929 75.2103 29.9045 75.2103 30.7721C75.2103 31.5937 75.3933 32.3191 75.7591 32.9471C76.125 33.5751 76.5818 34.1692 77.1306 34.7283C77.6794 35.2873 78.2677 35.8475 78.8965 36.4066C79.5252 36.9657 80.1135 37.5773 80.6623 38.2392C81.2111 38.9011 81.6679 39.6549 82.0338 40.4995C82.3996 41.3442 82.5826 42.3376 82.5826 43.4798C82.5826 45.4207 82.1083 46.9109 81.1596 47.9492C80.211 48.9885 78.811 49.5082 76.9586 49.5082C75.1063 49.5082 73.7063 48.9885 72.7577 47.9492C71.809 46.9109 71.3347 45.4207 71.3347 43.4798V41.8354H74.9014V43.7194C74.9014 44.587 75.0789 45.1921 75.4327 45.5345C75.7865 45.877 76.2608 46.0487 76.8557 46.0487C77.4505 46.0487 77.9248 45.8781 78.2786 45.5345C78.6325 45.1921 78.8099 44.587 78.8099 43.7194C78.8099 42.8978 78.627 42.1724 78.2611 41.5444C77.8952 40.9164 77.4384 40.3234 76.8885 39.7632C76.3397 39.2042 75.7515 38.644 75.1227 38.0849C74.4939 37.5258 73.9057 36.9142 73.3568 36.2523C72.808 35.5904 72.3512 34.8366 71.9854 33.9919C71.6195 33.1473 71.4366 32.1539 71.4366 31.0117L71.4377 31.0128ZM83.7153 25.259H95.375V28.6846H91.4315V49.2347H87.6588V28.6846H83.7153V25.259ZM100.553 43.7205C100.553 44.5881 100.731 45.1986 101.084 45.5531C101.439 45.9065 101.914 46.0837 102.507 46.0837C103.102 46.0837 103.577 45.9065 103.93 45.5531C104.285 45.1986 104.462 44.5881 104.462 43.7205V30.7732C104.462 29.9056 104.284 29.2951 103.93 28.9406C103.577 28.5861 103.102 28.4099 102.507 28.4099C101.913 28.4099 101.438 28.5872 101.084 28.9406C100.731 29.294 100.553 29.9056 100.553 30.7732V43.7205ZM96.7816 31.0139C96.7816 29.073 97.2734 27.5828 98.256 26.5445C99.2386 25.5052 100.656 24.9855 102.508 24.9855C104.361 24.9855 105.778 25.5052 106.761 26.5445C107.745 27.5828 108.235 29.073 108.235 31.0139V43.4809C108.235 45.4218 107.744 46.912 106.761 47.9502C105.778 48.9896 104.361 49.5093 102.508 49.5093C100.656 49.5093 99.2386 48.9896 98.256 47.9502C97.2723 46.912 96.7816 45.4218 96.7816 43.4809V31.0139ZM115.609 39.679L114.442 41.8704V49.2347H110.669V25.259H114.442V35.7053L119.449 25.259H123.153L117.906 35.9449L123.153 49.2347H119.277L115.608 39.679H115.609ZM44.5525 55.7598H48.3251V76.3099H54.5318V79.7355H44.5525V55.7598ZM59.71 74.2213C59.71 75.0889 59.8874 75.6994 60.2412 76.0539C60.5962 76.4084 61.0705 76.5846 61.6642 76.5846C62.259 76.5846 62.7333 76.4073 63.0872 76.0539C63.4421 75.7005 63.6185 75.0889 63.6185 74.2213V61.274C63.6185 60.4064 63.441 59.7959 63.0872 59.4414C62.7333 59.088 62.259 58.9108 61.6642 58.9108C61.0694 58.9108 60.5951 59.088 60.2412 59.4414C59.8874 59.7959 59.71 60.4064 59.71 61.274V74.2213ZM55.9373 61.5147C55.9373 59.5738 56.4291 58.0836 57.4117 57.0453C58.3954 56.006 59.8118 55.4863 61.6642 55.4863C63.5166 55.4863 64.9341 56.006 65.9167 57.0453C66.9004 58.0836 67.3911 59.5738 67.3911 61.5147V73.9817C67.3911 75.9226 66.8993 77.4128 65.9167 78.4511C64.9341 79.4904 63.5166 80.0101 61.6642 80.0101C59.8118 80.0101 58.3943 79.4904 57.4117 78.4511C56.4291 77.4128 55.9373 75.9226 55.9373 73.9817V61.5147ZM75.4842 66.3779H80.7653V73.9817C80.7653 75.9226 80.2909 77.4128 79.3423 78.4511C78.3937 79.4904 76.9926 80.0101 75.1413 80.0101C73.2889 80.0101 71.889 79.4904 70.9403 78.4511C69.9917 77.4128 69.5174 75.9226 69.5174 73.9817V61.5147C69.5174 59.5738 69.9917 58.0836 70.9403 57.0453C71.889 56.006 73.29 55.4863 75.1413 55.4863C76.9926 55.4863 78.3937 56.006 79.3423 57.0453C80.2909 58.0836 80.7653 59.5738 80.7653 61.5147V63.844H77.1985V61.2751C77.1985 60.4075 77.0211 59.797 76.6673 59.4425C76.3134 59.0891 75.838 58.9119 75.2443 58.9119C74.6495 58.9119 74.1751 59.0891 73.8213 59.4425C73.4664 59.797 73.29 60.4075 73.29 61.2751V74.2224C73.29 75.09 73.4675 75.6951 73.8213 76.0375C74.1751 76.38 74.6495 76.5517 75.2443 76.5517C75.8391 76.5517 76.3134 76.3811 76.6673 76.0375C77.0211 75.6951 77.1985 75.09 77.1985 74.2224V69.8034H75.4842V66.379V66.3779ZM83.2004 55.7598H86.9731V79.7355H83.2004V55.7598ZM89.2362 61.5136C89.2362 59.5727 89.6985 58.0825 90.6252 57.0443C91.5509 56.0049 92.9399 55.4852 94.7923 55.4852C96.6446 55.4852 98.0326 56.0049 98.9593 57.0443C99.8849 58.0825 100.348 59.5727 100.348 61.5136V62.4381H96.7816V61.2729C96.7816 60.4053 96.6162 59.7948 96.2842 59.4403C95.9523 59.0869 95.4901 58.9097 94.8952 58.9097C94.3004 58.9097 93.8382 59.0869 93.5062 59.4403C93.1754 59.7948 93.0089 60.4053 93.0089 61.2729C93.0089 62.0945 93.1918 62.8199 93.5577 63.4479C93.9236 64.0759 94.3804 64.67 94.9292 65.2291C95.478 65.7882 96.0663 66.3483 96.695 66.9074C97.3238 67.4665 97.9121 68.0781 98.4609 68.74C99.0097 69.4019 99.4665 70.1557 99.8324 71.0004C100.198 71.845 100.381 72.8384 100.381 73.9806C100.381 75.9215 99.9068 77.4117 98.9582 78.45C98.0096 79.4893 96.6085 80.009 94.7572 80.009C92.9048 80.009 91.5049 79.4893 90.5562 78.45C89.6076 77.4117 89.1333 75.9215 89.1333 73.9806V72.3362H92.7V74.2202C92.7 75.0879 92.8775 75.6929 93.2313 76.0353C93.5862 76.3778 94.0605 76.5495 94.6543 76.5495C95.2491 76.5495 95.7234 76.3789 96.0772 76.0353C96.4321 75.6929 96.6085 75.0879 96.6085 74.2202C96.6085 73.3986 96.4256 72.6732 96.0597 72.0452C95.6938 71.4172 95.237 70.8231 94.6882 70.264C94.1394 69.705 93.5512 69.1448 92.9224 68.5857C92.2936 68.0266 91.7053 67.4151 91.1565 66.7531C90.6077 66.0912 90.1509 65.3374 89.7851 64.4928C89.4192 63.6481 89.2362 62.6547 89.2362 61.5125V61.5136ZM101.514 55.7598H113.174V59.1843H109.23V79.7355H105.457V59.1843H101.514V55.7598ZM114.888 55.7598H118.66V79.7355H114.888V55.7598ZM132.344 70.7958V73.9806C132.344 75.9215 131.869 77.4117 130.921 78.45C129.972 79.4893 128.572 80.009 126.72 80.009C124.867 80.009 123.467 79.4893 122.519 78.45C121.57 77.4117 121.096 75.9215 121.096 73.9806V61.5136C121.096 59.5727 121.57 58.0825 122.519 57.0443C123.467 56.0049 124.867 55.4852 126.72 55.4852C128.572 55.4852 129.972 56.0049 130.921 57.0443C131.869 58.0825 132.344 59.5727 132.344 61.5136V63.8429H128.777V61.274C128.777 60.4064 128.6 59.7959 128.246 59.4414C127.892 59.088 127.418 58.9108 126.823 58.9108C126.228 58.9108 125.754 59.088 125.4 59.4414C125.046 59.7959 124.868 60.4064 124.868 61.274V74.2213C124.868 75.0889 125.046 75.694 125.4 76.0364C125.755 76.3789 126.229 76.5506 126.823 76.5506C127.418 76.5506 127.892 76.38 128.246 76.0364C128.601 75.694 128.777 75.0889 128.777 74.2213V70.7969H132.344V70.7958Z" fill="#FEFEFE"/>
<path fill-rule="evenodd" clip-rule="evenodd" d="M139.118 4.90796H140.474V86.2956H139.118V4.90796Z" fill="#FEFEFE"/>
<path fill-rule="evenodd" clip-rule="evenodd" d="M106.496 20.7997C106.522 20.8204 106.548 20.8401 106.576 20.8587C106.707 20.9485 106.859 21.025 107.004 21.0918C107.176 21.1727 107.369 21.2384 107.548 21.3008C107.841 21.4025 108.134 21.4988 108.428 21.5972C109.222 21.8642 110.01 22.1421 110.785 22.4616C112.604 23.2121 114.628 24.304 115.931 25.8062C117.2 27.2722 117.804 29.1617 117.935 31.0709C118.084 33.2383 117.498 34.7656 115.924 36.3181C113.677 38.5315 110.238 40.0697 107.157 40.5971C103.545 41.2152 99.2308 40.7338 95.7758 39.5796C94.3824 39.1135 93.011 38.4953 91.7687 37.7076C90.98 37.2065 90.1081 36.5544 89.5089 35.8302C89.051 35.2755 88.6292 34.4615 89.1748 33.8116C89.3533 33.5993 89.5998 33.4637 89.8638 33.3882C90.5944 33.1792 91.336 33.4691 91.9418 33.8718C92.6177 34.3225 93.2038 34.921 93.872 35.3947C94.7001 35.9822 95.6268 36.3433 96.5853 36.6628C98.188 37.1956 99.9067 37.6179 101.582 37.8433C103.349 38.0818 105.158 38.096 106.913 37.7568C108.551 37.4407 110.188 36.8083 111.605 35.9275C112.716 35.2361 113.887 34.2634 114.45 33.0556C114.954 31.9757 114.932 30.7733 114.696 29.6278C114.486 28.6048 114.041 27.3499 113.249 26.6355C112.517 25.9758 111.478 25.7941 110.526 25.7449C109.552 25.6946 108.447 25.7931 107.486 25.9462C107.131 26.0031 106.772 26.0731 106.414 26.1158C106.174 26.3095 105.935 26.3653 105.583 26.4189C105.215 26.4758 104.791 26.4725 104.419 26.4681C103.823 26.4604 103.225 26.4254 102.631 26.3795C102.105 26.339 101.581 26.293 101.056 26.2427C100.193 26.1607 99.3196 26.0742 98.4607 25.9528C98.1726 25.9123 97.8856 25.8653 97.6008 25.8051C97.5406 25.792 97.4748 25.7755 97.4102 25.7602C97.1922 25.8893 97.0104 25.9484 96.7267 25.9987C96.3553 26.0644 95.9522 26.0841 95.5765 26.0983C95.043 26.118 94.5073 26.1191 93.9738 26.1114C92.851 26.0972 91.7315 26.0447 90.6098 26.0173C90.3096 26.0097 89.8298 25.9758 89.5395 26.0764C89.2635 26.1716 88.9984 26.3149 88.7212 26.4167C88.4003 26.5337 88.0695 26.595 87.7332 26.5064C87.456 26.4342 87.1942 26.2613 87.0025 26.0513C86.9905 26.0392 86.9795 26.0261 86.9696 26.013C86.9368 26.0173 86.905 26.0228 86.8765 26.0261C86.7615 26.0403 86.6465 26.0469 86.5315 26.0338C86.2324 25.9998 85.9673 25.8346 85.814 25.583C85.4853 25.5906 85.1808 25.4254 85.0132 25.1311C84.9957 25.1005 84.9814 25.0688 84.9683 25.0381C84.7875 25.0491 84.5312 25.1136 84.3713 25.1475C83.9561 25.2362 83.5442 25.3215 83.1247 25.3839C82.0895 25.5381 80.948 25.5906 79.9019 25.5381C79.0749 25.4977 78.181 25.3795 77.3868 25.1366C77.1907 25.0764 77.0012 25.0086 76.8172 24.9265C76.7986 25.1114 76.7405 25.2974 76.6802 25.455C76.5652 25.7526 76.3209 26.0939 76.0964 26.3237C75.8225 26.6049 75.4621 26.8609 75.1576 27.1136C74.5058 27.6563 73.8727 28.2121 73.1946 28.7263C72.5176 29.2405 71.8067 29.7066 71.0771 30.1431C70.5995 30.4298 70.1011 30.6956 69.63 30.9888C69.5205 31.0567 69.4011 31.1256 69.3266 31.2339C69.1952 31.4276 69.0922 31.5906 68.9279 31.7656C68.7614 31.9407 68.5642 32.0982 68.4623 32.3236C68.3309 32.6179 68.3013 33.1026 68.2859 33.4243C68.2575 33.9976 68.2509 34.5359 68.1041 35.0971C67.9551 35.6693 67.6867 36.2087 67.4184 36.7328C67.2201 37.1212 66.9791 37.5829 66.6658 37.8903C66.4741 38.0785 66.2627 38.2317 66.0217 38.3411L65.2308 38.631L64.5549 38.5829C64.4245 38.5697 64.2964 38.5336 64.1792 38.4702C64.108 38.4319 64.0444 38.3848 63.9853 38.3301C63.7114 38.5544 63.374 38.6485 63.0191 38.5511C62.7025 38.4647 62.3498 38.2021 62.1701 37.9286C62.1252 37.8608 62.0946 37.8017 62.0705 37.7415C62.0387 37.7328 62.0047 37.7229 61.9686 37.7087C61.5742 37.5588 61.3376 37.2043 61.2587 36.8017C61.1788 36.398 61.2292 35.8706 61.3026 35.4636C61.4263 34.7711 61.6772 34.2755 62.0453 33.6858C62.1647 33.4943 62.3586 33.2044 62.41 32.9845C62.4615 32.7678 62.4385 32.5764 62.5174 32.3444C62.5678 32.1967 62.6456 32.0643 62.7518 31.9495C62.9654 31.7208 63.259 31.5961 63.5219 31.4352C63.5909 31.3926 63.6643 31.3444 63.7224 31.2886C63.9327 31.0895 64.0663 30.6048 64.1562 30.3357C64.3698 29.6946 64.6075 29.0808 65.0018 28.525C65.4104 27.9473 65.9461 27.4856 66.4686 27.0151C66.8279 26.6924 67.2004 26.3478 67.5016 25.9681C67.6867 25.734 67.8434 25.4845 67.9924 25.2285C67.9102 25.2187 67.8302 25.2033 67.7514 25.1836C67.5126 25.1213 67.3537 25.0184 67.0941 25.0119C66.8827 25.0064 66.6505 25.0349 66.4401 25.0556C66.1082 25.0885 65.7785 25.1224 65.4455 25.141C64.7488 25.1804 64.0587 25.1585 63.3631 25.1716C62.8581 25.1815 62.3487 25.2373 61.8448 25.2657C60.7549 25.327 59.6572 25.3609 58.5651 25.3904C56.6897 25.4419 54.8132 25.4484 52.9389 25.3904C52.1163 25.3642 51.287 25.3128 50.4655 25.3062C50.1467 25.3029 49.8794 25.2985 49.5825 25.4167C49.1608 25.5841 48.8311 25.7504 48.3721 25.8423C47.8309 25.9517 47.2394 25.9484 46.6884 25.9429C46.2579 25.9386 45.8252 25.9331 45.3947 25.9178C45.1176 25.909 44.8021 25.886 44.5797 25.7033C44.5096 25.6453 44.4712 25.5983 44.4176 25.5348C44.3518 25.5294 44.2587 25.5294 44.1744 25.5305L44.5271 26.0119L42.9289 25.3609C42.8851 25.3445 42.8423 25.3281 42.793 25.3073L42.7339 25.2821L42.7164 25.2745C42.6725 25.257 42.6265 25.2416 42.5794 25.2274L42.5849 25.2624L42.4107 25.1836C42.2497 25.1464 42.081 25.1158 41.9266 25.0589C41.736 24.9889 41.5651 24.8948 41.4818 24.7241C41.2715 24.537 41.0732 24.2241 40.9374 24.0261C40.7008 23.6782 40.7818 23.292 40.9637 22.943C41.1554 22.5754 41.4621 22.1848 41.7557 21.8916C42.1095 21.5382 42.4929 21.2876 42.9672 21.1235C43.4459 20.9583 44.0177 20.8795 44.5238 20.9211C44.9981 20.9594 45.3903 21.106 45.8394 21.2417C46.2064 21.3522 46.5964 21.4506 46.9743 21.5152C47.1474 21.5447 47.2865 21.5666 47.4574 21.5272C47.7345 21.4627 48.0215 21.3533 48.3009 21.2778C48.8727 21.1246 49.4587 21.0294 50.047 20.9638C50.9453 20.8642 51.8545 20.815 52.7549 20.7428C53.617 20.6749 54.4769 20.5874 55.3368 20.5054C55.9766 20.4441 56.6535 20.3949 57.2834 20.2701C57.6668 20.1935 58.0447 20.0776 58.403 19.9189C58.4303 19.9069 58.4917 19.8817 58.518 19.862C58.5508 19.8172 58.5936 19.6651 58.6067 19.6148C58.7371 19.1268 58.8148 18.5962 58.9189 18.0995C58.9561 17.9222 58.9945 17.7461 59.0383 17.5699C59.195 16.9288 59.4086 16.3008 59.6704 15.6958C59.8643 15.2494 60.0636 14.8807 60.3649 14.4956C60.6387 14.1455 60.9663 13.8183 61.2226 13.4595C61.3431 13.291 61.411 13.1695 61.4044 12.9628C61.3946 12.6794 61.2971 12.3315 61.227 12.0547C61.1613 11.7965 61.0725 11.4059 60.9356 11.1794C60.8282 11.0022 60.6179 10.9234 60.4328 10.8523C59.9377 10.6608 59.4261 10.5164 58.931 10.3173C58.4358 10.117 57.9341 9.86322 57.4981 9.55359C57.3305 9.43434 57.1739 9.30524 57.0161 9.17285C56.9154 9.08752 56.8091 8.99561 56.6985 8.9234C56.5407 8.81946 56.3786 8.77023 56.1902 8.76367C55.9076 8.75382 55.5986 8.81399 55.3105 8.82275C54.4714 8.8501 53.7353 8.54157 53.559 7.64004C53.5031 7.35558 53.5305 7.10176 53.5502 6.81839C53.559 6.70023 53.5677 6.57222 53.5907 6.4475C53.559 6.38732 53.5338 6.31949 53.5151 6.2429C53.4801 6.14443 53.4406 6.05581 53.41 5.95188C53.3344 5.69586 53.2906 5.40265 53.3563 5.13788C53.3421 4.88733 53.3508 4.63023 53.3771 4.38406C53.3935 4.23526 53.4253 4.07662 53.4341 3.92892V3.92126V3.91251C53.4341 3.90922 53.4341 3.90704 53.4341 3.90485C53.3519 3.64883 53.296 3.46503 53.4067 3.18494C53.4286 3.12805 53.4571 3.07335 53.491 3.01864L53.5042 2.81842L53.5841 2.88735C53.7583 2.66744 54.0015 2.47598 54.2162 2.3425C54.5383 2.14119 54.9261 1.97926 55.2908 1.8797C55.591 1.79765 55.8517 1.77139 56.1606 1.79108C56.395 1.80749 56.6251 1.8436 56.8573 1.86767C56.9603 1.87751 56.9745 1.88517 57.061 1.83485C57.3579 1.66198 57.6219 1.43551 57.9319 1.26264C58.1685 1.13135 58.3887 1.03507 58.6297 0.957391C58.7688 0.67293 58.9496 0.425668 59.2311 0.250614C59.4666 0.104007 59.7591 0.0131987 60.0373 0.00116384C60.3638 -0.0119651 60.6628 0.0865021 60.9312 0.270308C61.067 0.363305 61.2412 0.51757 61.3782 0.665272C61.7013 0.66746 62.019 0.688247 62.3367 0.772492C62.4068 0.791091 62.4758 0.812973 62.5437 0.837042C62.696 0.890652 62.8417 0.955203 62.9884 1.02194C63.0761 1.06133 63.1736 1.10947 63.2656 1.13901C63.2776 1.14229 63.3039 1.15104 63.3171 1.15104C63.3379 1.14776 63.3883 1.11822 63.4058 1.10728C63.6906 0.937698 63.902 0.759362 64.2186 0.61932C64.6195 0.440985 65.0917 0.350176 65.532 0.367681C65.945 0.385186 66.3963 0.502253 66.7425 0.733105C67.0284 0.923475 67.231 1.17949 67.3121 1.51537C67.3986 1.87642 67.3165 2.17401 67.2968 2.5274C67.2869 2.70573 67.3077 2.8053 67.426 2.94534C67.5432 3.08319 67.7087 3.21667 67.85 3.32936C68.0669 3.50441 68.2881 3.674 68.5039 3.85233C68.9235 4.20134 69.3551 4.60287 69.7111 5.01753C69.9828 5.33481 70.1438 5.61271 70.3399 5.97376C70.5502 6.36106 70.7802 6.76478 70.9478 7.17178C71.0092 7.31948 71.0563 7.46718 71.1045 7.62035C71.1198 7.67068 71.1406 7.74836 71.1669 7.79431C71.168 7.7954 71.168 7.79759 71.1691 7.79869C71.3115 8.0175 72.1693 8.30087 72.4201 8.37527C73.039 8.55798 73.6393 8.70896 74.2232 8.9978C74.7851 9.2757 75.3208 9.67613 75.7743 10.1083C75.9759 10.3009 76.1501 10.5076 76.345 10.7013C76.3746 10.7308 76.4053 10.7593 76.436 10.7866C76.6594 10.9792 76.9147 11.0766 77.2006 11.1367C77.7965 11.2626 78.5403 11.2483 79.1472 11.2243C80.2119 11.1838 81.2854 11.0766 82.3458 10.9682C83.519 10.8479 84.712 10.7013 85.8895 10.6477C86.7867 10.6072 87.5601 10.6542 88.4364 10.8326C89.2963 11.0076 90.1716 11.2582 91.0019 11.5437C91.6877 11.779 92.3767 12.0525 93.0285 12.3709C93.264 12.4857 93.7055 12.7494 93.9662 12.7636C94.2335 12.7779 94.5796 12.6356 94.8108 12.5054C95.1832 12.2954 95.4669 12.0437 95.8755 11.8785C96.822 11.4956 98.395 11.6422 99.3524 11.9606C100.814 12.4474 101.472 13.4365 102.406 14.5535C102.893 15.1345 103.412 15.6925 103.921 16.2537C104.57 16.9693 105.275 17.8303 105.717 18.6914C106.082 19.4014 106.307 20.0524 106.509 20.8008L106.496 20.7997ZM65.5999 1.99458C65.4411 2.02303 65.2768 2.16307 65.1771 2.26044C65.038 2.3972 64.9339 2.55803 64.8386 2.72762C64.6579 3.05365 64.5155 3.35234 64.2745 3.64664C64.2559 3.66962 64.2361 3.6926 64.2164 3.71448C64.3314 3.6915 64.4421 3.65977 64.5297 3.61601C64.6393 3.5624 64.6918 3.44533 64.7521 3.34468C64.9186 3.06897 65.0851 2.78998 65.2636 2.52193C65.3622 2.37423 65.5255 2.16963 65.5945 2.0088C65.5967 2.00443 65.5989 1.99896 65.601 1.99349L65.5999 1.99458Z" fill="#FEFEFE"/>
<path fill-rule="evenodd" clip-rule="evenodd" d="M59.3439 2.46821C59.1489 2.58747 59.2015 2.6006 59.1697 2.69469C59.0963 2.91679 59.1029 3.1367 59.2979 3.29315C59.5794 3.51963 59.9497 3.3763 60.2115 3.19031C60.5083 2.98024 60.5423 2.75705 60.2378 2.53276C59.9738 2.33692 59.5378 2.34896 59.3428 2.46821H59.3439ZM66.9922 3.30409C67.2365 3.59293 67.6944 3.91131 68.138 4.27892C68.5817 4.64653 69.01 5.06447 69.2795 5.37847C69.5479 5.69138 69.6585 5.90144 69.8425 6.23951C70.0266 6.57758 70.2862 7.04476 70.4253 7.38392C70.5644 7.72199 70.5852 7.93206 70.6937 8.10055C70.9456 8.48894 71.8275 8.78106 72.2525 8.90688C72.7257 9.04583 73.3841 9.20557 73.9668 9.49331C74.5496 9.78215 75.0579 10.2001 75.381 10.5086C75.7042 10.8172 75.8444 11.0163 76.0635 11.2055C76.2826 11.3948 76.5816 11.5732 77.0746 11.6782C77.5675 11.7821 78.2554 11.8128 79.157 11.7778C80.0585 11.7427 81.1748 11.6432 82.3907 11.5185C83.6066 11.3937 84.9223 11.2449 85.9027 11.2001C86.8842 11.1552 87.5316 11.2154 88.3137 11.374C89.0958 11.5338 90.0127 11.792 90.8102 12.0655C91.6077 12.339 92.2846 12.6279 92.7732 12.8664C93.2618 13.1049 93.5608 13.2942 93.9234 13.3138C94.2871 13.3335 94.7154 13.1847 95.0692 12.9856C95.4231 12.7865 95.7024 12.5381 96.0705 12.3883C96.8888 12.0567 98.3435 12.2099 99.164 12.4823C100.492 12.9244 101.117 13.8882 101.969 14.9057C102.427 15.4528 102.926 15.9911 103.499 16.6223C104.072 17.2536 104.798 18.1333 105.213 18.9407C105.627 19.7481 105.813 20.3564 106.012 21.1267C106.153 21.2066 106.198 21.3214 106.768 21.5895C107.339 21.8575 108.886 22.2744 110.574 22.9702C112.263 23.6671 114.26 24.7218 115.511 26.166C116.762 27.6102 117.268 29.445 117.382 31.108C117.497 32.771 117.221 34.2611 115.534 35.923C113.846 37.585 110.747 39.4197 107.062 40.0499C103.377 40.6801 99.107 40.1079 95.95 39.0532C92.7929 37.9985 90.75 36.4613 89.9349 35.4756C89.1199 34.4898 89.5329 34.0544 90.0149 33.9165C90.4969 33.7786 91.0479 33.9395 91.634 34.329C92.2189 34.7185 92.8389 35.3377 93.551 35.8421C94.263 36.3465 95.0671 36.7359 96.41 37.1834C97.753 37.6309 99.6361 38.1353 101.507 38.3869C103.378 38.6386 105.238 38.6386 107.017 38.295C108.797 37.9515 110.495 37.2633 111.896 36.3913C113.296 35.5193 114.398 34.4646 114.949 33.2841C115.5 32.1036 115.5 30.7962 115.236 29.5117C114.972 28.2273 114.444 26.9658 113.617 26.2207C112.79 25.4757 111.665 25.2459 110.552 25.189C109.439 25.131 108.094 25.2853 107.396 25.3969C106.698 25.5085 106.524 25.5501 106.171 25.5807C106.021 25.7393 105.939 25.8006 105.497 25.8684C105.054 25.9374 104.022 25.9286 102.672 25.8236C101.322 25.7196 99.5178 25.5391 98.5374 25.4002C97.5559 25.2612 97.3959 25.1617 97.2919 25.1868C97.1878 25.212 97.1374 25.3608 96.6291 25.4505C96.1209 25.5402 95.1547 25.5697 93.9793 25.5544C92.8039 25.5391 91.4182 25.48 90.6218 25.4603C89.8243 25.4406 89.6151 25.4603 89.3566 25.5501C89.098 25.6398 88.7891 25.7995 88.5295 25.8936C88.271 25.9877 88.0607 26.0183 87.8722 25.968C87.6827 25.9188 87.514 25.7886 87.4089 25.6748C87.3048 25.5599 87.2643 25.4603 87.1295 25.4461C86.9948 25.4308 86.7659 25.5008 86.5917 25.4811C86.4175 25.4614 86.2981 25.352 86.2532 25.2273C86.2083 25.1026 86.2379 24.9636 86.1831 24.9385C86.1283 24.9133 85.9892 25.003 85.849 25.0227C85.7099 25.0424 85.5696 24.9932 85.4908 24.8531C85.4108 24.7142 85.3911 24.4855 85.0329 24.48C84.6747 24.4757 83.9769 24.6945 83.0403 24.8334C82.1037 24.9724 80.9283 25.0326 79.926 24.9822C78.9248 24.933 78.0977 24.7733 77.5445 24.6037C76.9913 24.4341 76.7131 24.2558 76.5685 24.1562C76.2103 23.9089 76.2727 24.0654 75.3547 23.084C75.0261 22.7317 74.8574 22.2601 74.7479 21.8028C74.6383 21.3455 74.6285 20.8674 74.5989 20.8521C74.5682 20.8368 74.5189 21.2853 74.5047 21.6879C74.4894 22.0906 74.5091 22.4494 74.6044 22.7426C74.6986 23.0359 74.8684 23.2645 75.1028 23.4888C75.3372 23.7131 75.6363 23.9319 75.8356 24.1759C76.035 24.4188 76.1588 24.6868 76.2081 24.6857C76.3286 24.6814 76.253 25.0161 76.1621 25.2514C76.0887 25.4406 75.8981 25.7295 75.6987 25.933C75.4993 26.1376 75.2803 26.2864 74.8015 26.6846C74.3228 27.0829 73.5856 27.7295 72.8583 28.282C72.1309 28.8345 71.4134 29.2918 70.7912 29.666C70.169 30.0391 69.641 30.3279 69.3364 30.5161C69.0319 30.7054 68.953 30.7951 68.8676 30.9187C68.7832 31.0434 68.6934 31.2021 68.5236 31.3815C68.3538 31.5609 68.1052 31.7601 67.9562 32.0927C67.8072 32.4264 67.7568 32.8935 67.7316 33.3913C67.7064 33.8891 67.7064 34.4165 67.5673 34.9537C67.4282 35.4909 67.1489 36.039 66.9243 36.4767C66.6997 36.9143 66.4982 37.2753 66.2769 37.492C66.0556 37.7086 65.8541 37.8169 65.6788 37.8793C65.6886 37.8639 65.6854 37.8519 65.6744 37.7797C65.6624 37.7064 65.6383 37.5324 65.6854 37.2863C65.7325 37.0401 65.8486 36.7097 65.9143 36.4066C65.98 36.1047 65.9943 35.8311 66.0589 35.6069C66.1235 35.3826 66.2386 35.2086 66.2878 35.0872C66.3382 34.9657 66.3229 34.8957 66.2506 34.9351C66.1783 34.9745 66.049 35.1244 65.9724 35.3476C65.8946 35.5718 65.8705 35.8705 65.808 36.1933C65.7456 36.516 65.6459 36.865 65.5495 37.1298C65.4542 37.3946 65.3545 37.6211 65.3425 37.7009C65.3304 37.7797 65.3381 37.7655 65.3436 37.7917C65.3304 37.771 65.3414 37.7589 65.2965 37.7556C65.2516 37.7523 65.0774 37.9001 64.9131 37.9744C64.7488 38.0488 64.5691 38.0488 64.4399 37.9799C64.3106 37.9099 64.223 37.7523 64.1802 37.6408C64.1375 37.5303 64.1244 37.4613 64.0882 37.4373C64.0882 37.4197 64.0937 37.4493 64.0795 37.365C64.0652 37.2797 63.9787 36.9438 63.9776 36.6681C63.9765 36.2064 64.2142 35.5915 64.4377 35.1889C64.5691 34.9504 64.7433 34.6867 64.7433 34.6408C64.7433 34.5959 64.5691 34.7699 64.3873 35.0587C64.2054 35.3476 64.0159 35.7502 63.9217 36.1189C63.8297 36.4756 63.7629 37.1418 64.0313 37.4449C63.9557 37.4996 63.8297 37.7119 63.6818 37.8541C63.5339 37.9974 63.363 38.0685 63.1637 38.0138C62.9643 37.9591 62.7266 37.7677 62.6302 37.6211C62.5327 37.4734 62.5426 37.365 62.5108 37.2983C62.5174 37.2764 62.5141 37.3082 62.5316 37.2031C62.5491 37.0992 62.5886 36.7152 62.6324 36.4241C62.6762 36.1342 62.7365 35.8749 62.8186 35.6036C62.9008 35.3322 63.0059 35.0489 63.018 34.9198C63.0311 34.7907 62.9512 34.8158 62.869 35.0368C62.7868 35.2589 62.7025 35.6758 62.6324 36.1025C62.5623 36.5281 62.4998 37.0489 62.4922 37.1725C62.4834 37.2961 62.4889 37.2403 62.4889 37.2633C62.4319 37.2141 62.307 37.2414 62.1646 37.1878C62.0222 37.1342 61.8612 36.9942 61.801 36.69C61.7418 36.3869 61.7812 35.9187 61.8459 35.5554C61.9587 34.9241 62.18 34.5084 62.513 33.9734C62.6773 33.7097 62.8767 33.4012 62.9468 33.1069C63.0169 32.8137 62.9566 32.5347 63.156 32.3213C63.3554 32.1069 63.8133 31.9581 64.1025 31.6846C64.3917 31.4111 64.5111 31.0128 64.6808 30.5052C64.8506 29.9975 65.0697 29.3804 65.4531 28.8378C65.8365 28.2951 66.3842 27.8279 66.8388 27.4198C67.2924 27.0117 67.6506 26.6638 67.9343 26.305C68.218 25.9472 68.4272 25.5785 68.6419 25.1956C68.8566 24.8126 69.0757 24.4144 69.0856 24.3291C69.0954 24.2448 68.8972 24.4735 68.6529 24.5884C68.4086 24.7032 68.1194 24.7032 67.8905 24.6431C67.6615 24.584 67.4917 24.4636 67.1083 24.4538C66.7249 24.4439 66.1268 24.5435 65.4148 24.5829C64.7028 24.6223 63.8757 24.6037 63.3521 24.6135C62.8296 24.6234 62.6094 24.6628 61.813 24.7076C61.0166 24.7525 59.6408 24.8017 58.5497 24.8323C56.6875 24.8827 54.8176 24.8903 52.9553 24.8323C51.999 24.8028 51.0526 24.7525 50.4687 24.7481C49.8859 24.7426 49.6668 24.7831 49.3777 24.8969C49.0885 25.0118 48.7303 25.1999 48.2625 25.2951C47.7937 25.3903 47.2164 25.3892 46.6928 25.3848C46.1691 25.3794 45.7014 25.3695 45.4122 25.3597C45.123 25.3498 44.9904 25.3203 44.9291 25.27C44.8678 25.2196 44.859 25.1978 44.8228 25.1551C44.8382 25.1573 44.8218 25.166 44.8645 25.1529C44.9072 25.1398 44.9455 24.9921 45.0145 24.7831C45.0836 24.5741 45.2128 24.2951 45.3596 24.0938C45.5064 23.8925 45.6718 23.7678 45.8602 23.7207C46.0497 23.6737 46.2633 23.7032 46.4331 23.7054C46.6029 23.7076 46.7267 23.6835 46.5876 23.6562C46.4485 23.6288 46.0443 23.5993 45.7452 23.6759C45.4461 23.7525 45.2523 23.9374 45.0649 24.1387C44.8787 24.34 44.6991 24.5599 44.6092 24.7032C44.5194 24.8466 44.5183 24.9155 44.584 24.9964C44.4504 24.9669 44.285 24.98 44.0352 24.9713C43.7855 24.9625 43.3867 24.9089 43.2378 24.8717C43.0888 24.8345 43.0712 24.8192 43.0066 24.7919C43.0077 24.7853 42.954 24.6759 42.9486 24.6628C42.931 24.6256 42.9179 24.5971 42.954 24.4286C42.9902 24.2601 43.0745 23.9516 43.1885 23.6934C43.3035 23.4341 43.4481 23.2251 43.654 23.0785C43.8611 22.9319 44.1294 22.8477 44.3934 22.8477C44.6574 22.8477 44.9171 22.9319 45.0156 22.9319C45.1153 22.9319 45.0551 22.8477 44.8941 22.8028C44.0604 22.572 43.6858 22.7175 43.2235 23.2076C42.9716 23.4735 42.8741 23.9822 42.8248 24.2437C42.7919 24.4231 42.8094 24.6059 42.919 24.7547C42.6605 24.6496 42.3724 24.6288 42.1106 24.5326C41.8816 24.4483 42.0021 24.4811 42.0372 24.3674C42.081 24.2262 42.0295 23.9122 42.1281 23.6299C42.6605 22.1168 43.9925 22.1026 44.3606 22.2208C44.4077 22.2109 44.2981 22.0917 44.0692 22.0391C42.8368 21.758 41.7107 23.1934 41.8816 24.3356C41.7754 24.2875 41.4621 23.817 41.3876 23.7076C41.3131 23.5982 41.3131 23.4494 41.4478 23.1901C41.5826 22.9319 41.8509 22.5632 42.1401 22.2744C42.4293 21.9855 42.7382 21.7766 43.1414 21.6376C43.5445 21.4987 44.0429 21.4286 44.4712 21.4637C44.8995 21.4987 45.2577 21.6376 45.6718 21.7623C46.0848 21.8871 46.5536 21.9965 46.8724 22.0512C47.1912 22.1059 47.361 22.1059 47.5746 22.0567C47.7893 22.0063 48.0478 21.9079 48.4367 21.8028C48.8256 21.6989 49.3437 21.5884 50.1006 21.5041C50.8576 21.4199 51.8544 21.3597 52.791 21.2853C53.7276 21.2109 54.604 21.1212 55.3817 21.0468C56.1584 20.9724 56.8365 20.9122 57.3842 20.8028C57.9319 20.6934 58.3503 20.5337 58.6198 20.4144C58.8893 20.2952 59.0087 20.2153 59.1336 19.7481C59.2585 19.281 59.3877 18.4243 59.5674 17.6935C59.747 16.9615 59.976 16.3554 60.1699 15.9068C60.3637 15.4593 60.5237 15.1705 60.7921 14.827C61.0615 14.4834 61.4406 14.0852 61.664 13.7723C61.8886 13.4583 61.9576 13.2296 61.9477 12.9364C61.9379 12.6421 61.8481 12.2843 61.7539 11.9112C61.6596 11.5382 61.56 11.1498 61.4 10.8861C61.2401 10.6224 61.021 10.4835 60.6223 10.3292C60.2235 10.1749 59.6462 10.0053 59.1281 9.79637C58.61 9.5874 58.1521 9.33905 57.8081 9.09507C57.4641 8.85109 57.2352 8.61258 56.9909 8.45284C56.7466 8.2931 56.4881 8.21433 56.1989 8.20339C55.9097 8.19354 55.591 8.25372 55.282 8.26356C54.7223 8.28107 54.2129 8.1454 54.0913 7.52725C54.0464 7.29858 54.0771 7.05898 54.0913 6.8511C54.1066 6.64213 54.1285 6.44192 54.1757 6.39815C54.2228 6.35439 54.2337 6.36643 54.2753 6.36752C54.0541 6.22638 54.0562 6.16511 54.0387 6.09619C54.0223 6.02835 53.9774 5.95505 53.9303 5.79094C53.8821 5.62683 53.8284 5.36534 53.9051 5.20013C53.881 4.9299 53.8941 4.64544 53.9171 4.43865C53.939 4.23187 53.9675 4.08964 53.9763 3.95945C53.9861 3.9682 53.9763 3.96054 54.0135 3.98899C54.0508 4.01634 54.1778 4.10168 54.2731 4.20233C54.4648 4.40911 54.4988 4.70889 54.524 4.97913L54.5733 4.99007C54.5766 4.85988 54.5733 4.83909 54.5897 4.62684C54.6062 4.41349 54.6664 4.23406 54.7497 4.17279C54.8318 4.11152 54.9435 4.05791 55.0509 4.00977C55.1572 3.96054 55.2579 3.91678 55.2284 3.92115C55.1988 3.92553 55.0389 3.98023 54.9238 4.024C54.8077 4.06885 54.7376 4.10386 54.6686 4.15419C54.5985 4.20561 54.5317 4.27454 54.4594 4.26032C54.3871 4.2461 54.3104 4.14982 54.2282 4.0798C54.1515 4.01415 54.0694 3.97257 53.9807 3.92772C53.9818 3.88286 53.9905 3.89818 53.9741 3.8019C53.9588 3.70562 53.8503 3.54807 53.9149 3.38396C53.9796 3.21985 54.2096 2.99118 54.5032 2.80628C54.7968 2.62248 55.1561 2.48353 55.4299 2.40804C55.7038 2.33364 55.8933 2.32379 56.1179 2.33802C56.3424 2.35224 56.6009 2.39272 56.7959 2.41241C56.9898 2.43211 57.1191 2.43211 57.3338 2.30848C57.5485 2.18375 57.8946 1.90914 58.1959 1.74174C58.496 1.57435 58.7261 1.4901 59.0416 1.40805C59.0339 1.39601 59.0416 1.37523 59.0547 1.3435C59.1577 1.09733 59.2858 0.861007 59.5192 0.715494C59.6649 0.624685 59.8642 0.557946 60.0548 0.550288C60.2454 0.542629 60.4273 0.595145 60.6146 0.723152C60.8019 0.85116 61.0199 1.09076 61.0659 1.15531C61.1119 1.21987 61.0966 1.20345 61.0977 1.21768C61.514 1.21221 61.8524 1.21549 62.192 1.3052C62.5316 1.39492 62.8591 1.58857 63.0936 1.66297C63.328 1.73737 63.4868 1.69798 63.6862 1.57872C63.8856 1.45947 64.1244 1.26035 64.4388 1.1214C64.7521 0.98245 65.1409 0.902582 65.5046 0.916805C65.8683 0.931028 66.2068 1.04153 66.4314 1.19033C66.9495 1.53496 66.7698 1.98353 66.7403 2.49447C66.7249 2.75267 66.7556 3.01197 66.9988 3.30081L66.9922 3.30409ZM59.6802 2.57872C59.7372 2.62795 59.8051 2.71329 59.8916 2.76143C59.9782 2.80957 60.0855 2.8227 60.1074 2.84677C60.1282 2.87193 60.0636 2.90913 59.93 2.90803C59.7963 2.90694 59.5948 2.86646 59.4677 2.803C59.2541 2.69578 59.2365 2.52948 59.5027 2.51745C59.575 2.51416 59.6221 2.52948 59.6802 2.57872ZM98.2504 22.1825C98.2405 22.2372 97.8922 22.4363 97.6972 22.6748C97.5033 22.9133 97.4628 23.1923 97.4332 23.4702C97.4036 23.7492 97.3839 24.0282 97.362 24.3148C97.3401 24.6015 97.316 24.8969 97.2513 25.073C97.1867 25.2492 97.0816 25.3061 96.9709 25.3509C96.8603 25.3947 96.7442 25.4253 96.7967 25.3969C96.8493 25.3684 97.0695 25.2798 97.1769 25.0435C97.2842 24.8072 97.2787 24.4221 97.2513 24.0654C97.224 23.7087 97.1736 23.3805 97.2283 23.0917C97.2831 22.8028 97.443 22.5545 97.6862 22.3849C97.9305 22.2153 98.2591 22.1267 98.2493 22.1803L98.2504 22.1825ZM89.7301 23.8455C89.4573 23.8116 88.7815 23.6431 88.4222 23.8203C88.03 24.0129 87.6729 24.7109 87.5305 25.1113C87.4483 25.3422 87.4275 25.5118 87.4505 25.4024C87.5688 24.828 87.7178 24.0172 88.3203 23.7579C88.6489 23.6168 89.1123 23.6409 89.4168 23.6835C89.7202 23.7262 89.8648 23.7853 89.9076 23.8203C89.9492 23.8553 90.004 23.8794 89.7301 23.8455ZM87.9917 23.0019C88.0114 23.0194 87.7923 22.9987 87.5852 23.0391C87.1186 23.1289 86.8612 23.4494 86.6563 23.8509C86.5523 24.0555 86.457 24.2787 86.4098 24.421C86.3627 24.5632 86.3627 24.6223 86.3397 24.7196C86.3167 24.817 86.2696 24.9505 86.2729 24.8564C86.2751 24.7623 86.3266 24.4385 86.4044 24.1474C86.4821 23.8564 86.5873 23.5971 86.767 23.3914C86.9466 23.1847 87.2008 23.0304 87.4571 22.9812C87.7134 22.9319 87.973 22.9866 87.9927 23.0041L87.9917 23.0019ZM95.5863 17.7044C95.3847 17.9462 94.9235 18.7941 94.8337 19.1431C94.5467 20.2558 94.9674 21.9221 94.4251 22.4122C93.6923 23.0731 91.8224 23.2492 90.8639 23.2623C90.1661 23.2722 89.5954 23.2076 89.1057 23.0851C88.616 22.9636 88.2075 22.7842 87.9084 22.6847C87.6093 22.5851 87.4198 22.5654 87.1558 22.6048C86.8918 22.6453 86.5533 22.7448 86.3233 22.9341C86.0944 23.1234 85.975 23.4013 85.8271 23.6912C85.6792 23.9811 85.5039 24.282 85.5028 24.5074C85.5017 24.7317 85.6748 24.8805 85.6748 24.8805C85.6748 24.8805 85.5017 24.7328 85.5127 24.4133C85.5236 24.0938 85.7186 23.6037 85.9366 23.2437C86.1546 22.8838 86.3934 22.6551 86.767 22.526C87.1405 22.3969 87.6488 22.3663 88.007 22.4363C88.3663 22.5063 88.5755 22.6748 88.9184 22.7853C89.2624 22.8947 89.7411 22.945 90.3238 22.9691C91.3897 23.0151 92.6319 22.9932 93.6419 22.6212C94.0056 22.4866 94.1655 22.2 94.1797 21.8488C94.2455 20.1967 94.2761 17.9812 95.5852 17.7055L95.5863 17.7044ZM63.1779 24.4046C63.1483 24.2481 63.064 24.0391 62.9512 23.7065C62.8394 23.3728 62.5951 22.9527 62.2315 22.5917C61.8678 22.2306 61.4789 21.8553 61.4362 21.7952C61.3945 21.7361 61.8031 21.9549 62.1581 22.2426C62.5141 22.5315 62.8186 22.8892 63.0476 23.2525C63.2765 23.6157 63.431 23.9833 63.4682 24.2131C63.5055 24.4417 63.4255 24.5315 63.351 24.561C63.2765 24.5905 63.2075 24.561 63.1768 24.4046H63.1779ZM68.7734 13.9189C68.8183 13.9287 68.3703 14.3565 67.9617 14.7799C66.6669 16.1213 66.2068 17.525 66.2429 19.3379C66.2572 20.0993 66.3875 20.8455 66.7457 21.6562C67.1039 22.468 67.6922 23.3433 67.7316 23.4921C67.7722 23.6409 67.2628 23.0643 66.8651 22.3225C66.4664 21.5807 65.9888 20.7131 65.899 19.7875C65.7182 17.9199 65.9789 15.304 68.7734 13.9189ZM55.3007 3.6159C55.2349 3.5426 54.937 3.38943 54.8252 3.47805C54.7343 3.55026 54.7508 3.86536 54.8285 3.88286C54.8745 3.8938 54.949 3.81175 55.0378 3.77783C55.1265 3.74501 55.2295 3.76142 55.2864 3.74282C55.3423 3.72531 55.3664 3.68921 55.3007 3.6159ZM54.3641 3.99665C54.4079 3.93975 54.444 3.78768 54.4166 3.66842C54.3893 3.55026 54.2994 3.46602 54.2118 3.44851C54.1242 3.4321 54.0376 3.48461 53.9949 3.53932C53.8865 3.68046 54.099 3.86317 54.1965 3.9496C54.2666 4.01196 54.3202 4.05135 54.3641 3.99555V3.99665ZM60.5445 2.86427C60.527 2.70016 60.3429 2.54042 60.1556 2.4343C59.9683 2.32708 59.7799 2.27237 59.5904 2.29754C59.2497 2.34239 58.9408 2.61482 58.7283 2.86974C58.6538 2.95946 58.6132 3.01416 58.6089 3.05136C58.6045 3.08856 58.6341 3.10825 58.7184 3.1356C58.8028 3.16295 58.943 3.19797 59.0766 3.28987C59.2114 3.38177 59.3406 3.53166 59.5378 3.55354C59.735 3.57542 59.999 3.47149 60.2049 3.33473C60.4119 3.19797 60.5609 3.02838 60.5434 2.86427H60.5445ZM65.7675 1.27457C65.7774 1.2877 65.4937 1.22205 65.2494 1.28223C65.0051 1.34131 64.8013 1.52621 64.6064 1.76253C64.4125 1.99885 64.2273 2.28769 64.1156 2.53167C64.0039 2.77565 63.9633 2.97477 63.8396 3.17827C63.7147 3.38177 63.5054 3.59074 63.2743 3.74063C63.0421 3.88942 62.7879 3.97914 62.7879 3.94741C62.7879 3.91459 63.0421 3.76032 63.294 3.53166C63.546 3.303 63.7946 2.99884 63.9491 2.68375C64.2021 2.16625 64.1802 1.63343 64.706 1.27785C64.8605 1.17282 65.0051 1.12906 65.2297 1.15094C65.4542 1.17282 65.7577 1.26253 65.7675 1.27566V1.27457ZM66.1597 1.70236C66.209 1.84021 66.1838 2.04371 66.1049 2.2297C66.0249 2.41679 65.8902 2.58528 65.7259 2.83145C65.5616 3.07762 65.3677 3.40146 65.2275 3.63232C65.0884 3.86426 65.0029 4.00321 64.774 4.11481C64.545 4.2264 64.1715 4.31174 63.833 4.30299C63.4945 4.29533 63.19 4.19467 63.0541 4.14216C62.9183 4.08964 62.9501 4.08527 63.1242 3.95726C63.2995 3.82925 63.6183 3.57761 63.8483 3.29643C64.0784 3.01525 64.2197 2.70672 64.3577 2.46055C64.4946 2.21439 64.6272 2.02949 64.7915 1.86756C65.0686 1.59514 65.4378 1.36538 65.8409 1.45837C65.9888 1.49229 66.1115 1.56341 66.1597 1.70017V1.70236Z" fill="#2B2A29"/>
<path d="M115.609 39.6783L114.442 41.8697V49.234H110.669L110.746 27.2834L114.442 26.7791V35.7057L119.449 25.2583H123.153L117.906 35.9442L123.153 49.234H119.277L115.609 39.6783Z" fill="#FEFEFE"/>
</svg>
