<svg width="749" height="273" viewBox="0 0 749 273" fill="none" xmlns="http://www.w3.org/2000/svg">
<path d="M239.08 1.34476H211.211V118.8H240.252C258.723 118.8 268.295 109.079 268.295 90.9442V81.3964C268.295 68.967 264.431 60.0723 254.533 56.211C262.759 52.3496 266.45 44.646 266.45 32.5624V28.3552C266.45 10.2394 258.223 1.34476 239.08 1.34476ZM237.908 65.9509C246.307 65.9509 249.824 69.3128 249.824 80.2053V90.4447C249.824 99.1664 246.461 102.029 240.252 102.029H229.681V65.9509H237.908ZM238.58 18.1158C245.134 18.1158 247.979 21.8235 247.979 30.1995V36.7504C247.979 46.1445 243.789 49.1606 236.908 49.1606H229.681V18.1158H238.58ZM296.337 28.3552C296.337 19.9601 300.027 16.7711 305.909 16.7711C311.771 16.7711 315.48 19.9601 315.48 28.3552V91.7895C315.48 100.185 311.771 103.374 305.909 103.374C300.027 103.374 296.337 100.185 296.337 91.7895V28.3552ZM277.866 90.6176C277.866 109.406 287.765 120.145 305.909 120.145C324.033 120.145 333.951 109.406 333.951 90.6176V29.5271C333.951 10.7389 324.033 0 305.909 0C287.765 0 277.866 10.7389 277.866 29.5271V90.6176ZM381.963 74.9992V91.7895C381.963 100.185 378.273 103.201 372.391 103.201C366.51 103.201 362.82 100.185 362.82 91.7895V28.3552C362.82 19.9601 366.51 16.7711 372.391 16.7711C378.273 16.7711 381.963 19.9601 381.963 28.3552V40.9383H399.415V29.5271C399.415 10.7389 390.016 0 371.892 0C353.748 0 344.349 10.7389 344.349 29.5271V90.6176C344.349 109.406 353.748 120.145 371.892 120.145C390.016 120.145 399.415 109.406 399.415 90.6176V74.9992H381.963ZM405.296 18.1158H424.613V118.8H443.064V18.1158H462.38V1.34476H405.296V18.1158ZM487.386 28.3552C487.386 19.9601 491.095 16.7711 496.958 16.7711C502.839 16.7711 506.529 19.9601 506.529 28.3552V91.7895C506.529 100.185 502.839 103.374 496.958 103.374C491.095 103.374 487.386 100.185 487.386 91.7895V28.3552ZM468.935 90.6176C468.935 109.406 478.833 120.145 496.958 120.145C515.102 120.145 525 109.406 525 90.6176V29.5271C525 10.7389 515.102 0 496.958 0C478.833 0 468.935 10.7389 468.935 29.5271V90.6176ZM579.066 118.8H598.037L572.359 53.6943L598.037 1.34476H579.566L555.387 52.5225V1.34476H536.916V118.8H555.387V82.7219L561.095 71.9831L579.066 118.8ZM211.364 270.758H214.209C232.68 270.758 240.406 262.382 241.079 240.904L243.097 169.92H259.204V270.604H278.02V153.13H225.799L222.781 241.903C222.435 252.815 219.764 253.987 211.364 253.987V270.758ZM309.08 180.14C309.08 171.764 312.77 168.575 318.652 168.575C324.514 168.575 328.204 171.822 328.204 180.14V243.574C328.204 251.912 324.514 255.159 318.652 255.159C312.77 255.159 309.08 251.97 309.08 243.574V180.14ZM290.609 242.403C290.609 261.076 300.508 271.949 318.652 271.949C336.776 271.949 346.675 261.21 346.675 242.403V181.331C346.675 162.524 336.776 151.785 318.652 151.785C300.508 151.785 290.609 162.581 290.609 181.331V242.403ZM377.235 270.604V169.92H407.468V153.13H358.764V270.604H377.235ZM454.308 216.737L461.862 187.863V270.604H478.468V153.13H458.152L443.045 201.637L436.337 227.476V153.13H419.885V270.604H438.855L454.308 216.737ZM527.672 226.803V243.574C527.672 251.912 523.981 254.986 518.1 254.986C512.218 254.986 508.528 251.97 508.528 243.574V180.14C508.528 171.764 512.218 168.575 518.1 168.575C523.981 168.575 527.672 171.822 527.672 180.14V192.743H545.123V181.331C545.123 162.524 535.725 151.785 517.6 151.785C499.456 151.785 490.058 162.581 490.058 181.331V242.403C490.058 261.133 499.456 271.949 517.6 271.949C535.725 271.949 545.123 261.21 545.123 242.403V226.803H527.672ZM551.005 169.92H570.321V270.604H588.773V169.92H608.089V153.13H551.005V169.92ZM650.566 216.737L658.119 187.863V270.604H674.745V153.13H654.429L639.322 201.637L632.595 227.476V153.13H616.142V270.604H635.113L650.566 216.737ZM729.983 270.604H748.954L723.256 205.479L748.954 153.13H730.483L706.304 204.307V153.13H687.834V270.604H706.304V234.526L712.013 223.787L729.983 270.604Z" fill="#FEFEFE"/>
<path fill-rule="evenodd" clip-rule="evenodd" d="M107.768 0.0384217L74.2861 0.0960543L54.9121 125.505C64.7145 130.672 75.1703 135.456 86.2411 139.817L107.768 0.0384217ZM48.6848 122.085L33.4624 0.0576326L0 0L12.0511 96.669C22.6414 105.852 34.9423 114.362 48.6848 122.085ZM159.97 160.545C148.495 158.413 137.328 155.896 126.565 153.014V0.0384217H159.97V160.545Z" fill="#FEFEFE"/>
<path fill-rule="evenodd" clip-rule="evenodd" d="M53.0664 134.399L51.0675 148.558L49.2416 131.998C34.8649 122.95 23.5057 113.709 13.2229 102.99L33.1735 263.247L34.3075 272.257L65.3481 272.218L66.7128 263.42L84.0878 150.671C73.017 145.676 62.6381 140.24 53.0664 134.399ZM159.969 175.069V252.028H193.393V271.892H159.969H126.564V252.028V166.482C137.289 169.728 148.456 172.61 159.969 175.069Z" fill="#FEFEFE"/>
</svg>
