<svg width="245" height="85" viewBox="0 0 245 85" fill="none" xmlns="http://www.w3.org/2000/svg">
<g clip-path="url(#clip0)">
<path fill-rule="evenodd" clip-rule="evenodd" d="M43.2747 29.7865H38.2142V50.9108H43.4715C46.8171 50.9108 48.5601 49.1784 48.5601 45.9091V44.1767C48.5601 41.9414 47.8573 40.3487 46.058 39.6501C47.548 38.9515 48.2228 37.5824 48.2228 35.4029V34.6485C48.2228 31.3792 46.7327 29.7865 43.2747 29.7865ZM43.0498 41.4105C44.5679 41.4105 45.2146 42.0252 45.2146 43.9811V45.8253C45.2146 47.3901 44.5961 47.893 43.4715 47.893H41.5597V41.4105H43.0498ZM43.1622 32.8043C44.3711 32.8043 44.8772 33.4749 44.8772 34.9838V36.1573C44.8772 37.8618 44.1181 38.3927 42.8811 38.3927H41.5597V32.8043H43.1622ZM53.6207 34.6485C53.6207 33.1396 54.2954 32.5528 55.3637 32.5528C56.4039 32.5528 57.0787 33.1396 57.0787 34.6485V46.0489C57.0787 47.5577 56.4039 48.1445 55.3637 48.1445C54.2954 48.1445 53.6207 47.5577 53.6207 46.0489V34.6485ZM50.2751 45.8533C50.2751 49.2343 52.0744 51.1623 55.3637 51.1623C58.6249 51.1623 60.4242 49.2343 60.4242 45.8533V34.872C60.4242 31.491 58.6249 29.563 55.3637 29.563C52.0744 29.563 50.2751 31.491 50.2751 34.872V45.8533ZM69.1115 43.0311V46.0489C69.1115 47.5577 68.4367 48.1166 67.3965 48.1166C66.3282 48.1166 65.6534 47.5577 65.6534 46.0489V34.6485C65.6534 33.1396 66.3282 32.5528 67.3965 32.5528C68.4367 32.5528 69.1115 33.1396 69.1115 34.6485V36.9118H72.2884V34.872C72.2884 31.491 70.5734 29.563 67.2841 29.563C64.0228 29.563 62.3079 31.491 62.3079 34.872V45.8533C62.3079 49.2343 64.0228 51.1623 67.2841 51.1623C70.5734 51.1623 72.2884 49.2343 72.2884 45.8533V43.0311H69.1115ZM73.3286 32.8043H76.8428V50.9108H80.1603V32.8043H83.6745V29.7865H73.3286V32.8043ZM88.2009 34.6485C88.2009 33.1396 88.8756 32.5528 89.9158 32.5528C90.9842 32.5528 91.6589 33.1396 91.6589 34.6485V46.0489C91.6589 47.5577 90.9842 48.1445 89.9158 48.1445C88.8756 48.1445 88.2009 47.5577 88.2009 46.0489V34.6485ZM84.8553 45.8533C84.8553 49.2343 86.6546 51.1623 89.9158 51.1623C93.2052 51.1623 95.0045 49.2343 95.0045 45.8533V34.872C95.0045 31.491 93.2052 29.563 89.9158 29.563C86.6546 29.563 84.8553 31.491 84.8553 34.872V45.8533ZM104.788 50.9108H108.218L103.579 39.203L108.218 29.7865H104.872L100.487 39.0074V29.7865H97.1411V50.9108H100.487V44.4282L101.527 42.5002L104.788 50.9108ZM38.2423 78.2382H38.7765C42.0939 78.2382 43.4996 76.7293 43.6402 72.8733L44.0057 60.1037H46.9014V78.2103H50.3032V57.086H40.8569L40.3227 73.041C40.2665 75.0249 39.7604 75.2204 38.2423 75.2204V78.2382ZM55.926 61.9479C55.926 60.4391 56.6007 59.8523 57.6691 59.8523C58.7093 59.8523 59.384 60.4391 59.384 61.9479V73.3483C59.384 74.8572 58.7093 75.444 57.6691 75.444C56.6007 75.444 55.926 74.8572 55.926 73.3483V61.9479ZM52.5804 73.1527C52.5804 76.5058 54.3797 78.4617 57.6691 78.4617C60.9303 78.4617 62.7296 76.5337 62.7296 73.1527V62.1715C62.7296 58.7625 60.9303 56.8345 57.6691 56.8345C54.3797 56.8345 52.5804 58.7905 52.5804 62.1715V73.1527ZM68.2681 78.2103V60.1037H73.7222V57.086H64.9225V78.2103H68.2681ZM82.2126 68.5143L83.5621 63.345V78.2103H86.5703V57.086H82.9155L80.1603 65.8039L78.9514 70.4703V57.086H75.9713V78.2103H79.4012L82.2126 68.5143ZM95.4824 70.3306V73.3483C95.4824 74.8572 94.8077 75.416 93.7393 75.416C92.6991 75.416 92.0244 74.8572 92.0244 73.3483V61.9479C92.0244 60.4391 92.6991 59.8523 93.7393 59.8523C94.8077 59.8523 95.4824 60.4391 95.4824 61.9479V64.2112H98.6312V62.1715C98.6312 58.7625 96.9443 56.8345 93.655 56.8345C90.3657 56.8345 88.6788 58.7905 88.6788 62.1715V73.1527C88.6788 76.5058 90.3657 78.4617 93.655 78.4617C96.9443 78.4617 98.6312 76.5337 98.6312 73.1527V70.3306H95.4824ZM99.6995 60.1037H103.186V78.2103H106.531V60.1037H110.045V57.086H99.6995V60.1037ZM117.721 68.5143L119.07 63.345V78.2103H122.078V57.086H118.423L115.696 65.8039L114.459 70.4703V57.086H111.479V78.2103H114.909L117.721 68.5143ZM132.087 78.2103H135.517L130.878 66.5025L135.517 57.086H132.171L127.814 66.279V57.086H124.468V78.2103H127.814V71.7277L128.826 69.7997L132.087 78.2103Z" fill="#FEFEFE"/>
<path fill-rule="evenodd" clip-rule="evenodd" d="M19.5184 29.563H13.4458L9.93151 52.1123C11.7027 53.0623 13.6144 53.9006 15.6105 54.683L19.5184 29.563ZM8.80695 51.4976L6.05177 29.563H0.00726318L2.20016 46.943C4.11191 48.5916 6.33291 50.1284 8.80695 51.4976ZM28.9647 58.4272C26.8843 58.036 24.86 57.589 22.9202 57.0581V29.563H28.9647V58.4272Z" fill="#FEFEFE"/>
<path fill-rule="evenodd" clip-rule="evenodd" d="M9.62227 53.7049L9.25679 56.2755L8.91942 53.2857C6.30482 51.6651 4.2525 49.9886 2.39697 48.0605L5.99557 76.8968L6.22048 78.5175L11.8433 78.4895L12.0682 76.9248L15.217 56.6388C13.2209 55.7446 11.3372 54.7667 9.62227 53.7049ZM28.9647 61.0257V74.885H35.0092V78.4337H28.9647H22.9202V74.885V59.4889C24.8601 60.0757 26.8562 60.5786 28.9647 61.0257Z" fill="#FEFEFE"/>
<path fill-rule="evenodd" clip-rule="evenodd" d="M97.9284 25.5951C97.9565 25.623 97.9846 25.651 98.0127 25.651C98.1533 25.7348 98.2939 25.8186 98.4345 25.8745C98.575 25.9583 98.7718 26.0142 98.9405 26.0701C99.2216 26.1819 99.5028 26.2657 99.7839 26.3495C100.543 26.601 101.302 26.8804 102.033 27.1878C103.776 27.8863 105.716 28.9202 106.953 30.3732C108.162 31.7423 108.724 33.5586 108.865 35.3748C109.005 37.4146 108.443 38.8676 106.953 40.3485C104.788 42.4442 101.499 43.9251 98.575 44.4281C95.117 45.0149 91.0124 44.5398 87.6949 43.4501C86.3735 43.003 85.0522 42.4162 83.8714 41.6618C83.1123 41.1868 82.297 40.5721 81.7066 39.8735C81.2849 39.3706 80.8632 38.5882 81.3974 37.9734C81.566 37.7778 81.791 37.6381 82.044 37.5543C82.7468 37.3587 83.4497 37.6381 84.0401 38.0293C84.6867 38.4485 85.249 39.0352 85.8956 39.4823C86.6828 40.0412 87.5543 40.3765 88.4821 40.6838C90.0002 41.1868 91.659 41.578 93.2334 41.8015C94.9202 42.0251 96.6633 42.053 98.3501 41.7177C99.8964 41.4103 101.471 40.8235 102.82 39.9853C103.889 39.3147 104.985 38.3926 105.547 37.2469C106.025 36.2131 105.997 35.0675 105.772 34.0057C105.575 33.0277 105.154 31.8262 104.395 31.1556C103.692 30.5129 102.708 30.3452 101.78 30.2894C100.852 30.2614 99.812 30.3452 98.8843 30.4849C98.5469 30.5408 98.2095 30.6247 97.8722 30.6526C97.6191 30.8482 97.3942 30.9041 97.0569 30.932C96.7195 30.9879 96.2978 30.9879 95.9604 30.9879C95.3981 30.9879 94.8077 30.96 94.2455 30.9041C93.7394 30.8761 93.2334 30.8203 92.7554 30.7644C91.912 30.7085 91.0967 30.6247 90.2533 30.5129C90.0002 30.457 89.7191 30.4291 89.438 30.3732C89.3817 30.3452 89.3255 30.3173 89.2693 30.3173C89.0444 30.4291 88.8757 30.4849 88.5945 30.5408C88.2572 30.5967 87.8636 30.6247 87.4981 30.6247C86.992 30.6526 86.486 30.6526 85.9799 30.6526C84.9116 30.6247 83.8433 30.5967 82.7749 30.5688C82.4657 30.5408 82.0159 30.5129 81.7347 30.6247C81.4817 30.7085 81.2287 30.8482 80.9475 30.932C80.6664 31.0438 80.329 31.0997 80.0198 31.0158C79.7386 30.96 79.5137 30.7923 79.3169 30.5967C79.3169 30.5688 79.2888 30.5688 79.2888 30.5688C79.2607 30.5688 79.2326 30.5688 79.2045 30.5688C79.092 30.5967 78.9795 30.5967 78.8671 30.5688C78.586 30.5408 78.3329 30.4011 78.1924 30.1496C77.8831 30.1496 77.5738 30.0099 77.4052 29.7305C77.4052 29.7026 77.3771 29.6746 77.3771 29.6187C77.2084 29.6467 76.9553 29.7026 76.8148 29.7305C76.4212 29.8143 76.0276 29.8982 75.6059 29.954C74.6219 30.0938 73.5254 30.1496 72.5414 30.0938C71.7542 30.0658 70.8827 29.954 70.1236 29.7305C69.955 29.6746 69.7582 29.5908 69.5895 29.5349C69.5614 29.7026 69.5051 29.8702 69.4489 30.0379C69.3364 30.3173 69.1115 30.6247 68.9147 30.8482C68.6336 31.1276 68.2962 31.3512 68.0151 31.6026C67.3685 32.1056 66.7781 32.6365 66.1314 33.1395C65.4848 33.6145 64.8101 34.0615 64.1072 34.4807C63.6574 34.7601 63.1795 35.0116 62.7296 35.291C62.6172 35.3469 62.5047 35.4028 62.4485 35.5145C62.3079 35.7101 62.2236 35.8498 62.0549 36.0175C61.8862 36.1851 61.7175 36.3528 61.6051 36.5484C61.4926 36.8278 61.4645 37.3028 61.4364 37.6102C61.4083 38.1411 61.4083 38.6441 61.2677 39.2029C61.1271 39.7338 60.8741 40.2368 60.6211 40.7397C60.4243 41.103 60.1994 41.55 59.8901 41.8574C59.7214 42.0251 59.5247 42.1648 59.2716 42.2765L59.7214 44.3443L58.5125 42.556L57.641 42.8633L57.8659 42.5001C57.7535 42.5001 57.641 42.4442 57.5286 42.3883C57.4442 42.3604 57.388 42.3045 57.3318 42.2765C57.0787 42.4721 56.7414 42.556 56.404 42.4721C56.1229 42.3883 55.7855 42.1368 55.5887 41.8853C55.5606 41.8295 55.5325 41.7736 55.5043 41.6898C55.4762 41.6898 55.4481 41.6898 55.42 41.6618C55.0264 41.5221 54.8015 41.1868 54.7172 40.8235C54.6609 40.4324 54.689 39.9294 54.7734 39.5382C54.8858 38.8676 55.1389 38.4205 55.4762 37.8617C55.5887 37.6661 55.7855 37.3867 55.8417 37.1911C55.8698 36.9675 55.8698 36.7999 55.9261 36.5763C55.9823 36.4366 56.0666 36.2969 56.151 36.2131C56.3478 35.9896 56.6289 35.8498 56.8819 35.7101C56.9663 35.6822 57.0225 35.6263 57.0787 35.5704C57.2755 35.3748 57.4161 34.9277 57.5004 34.6763C57.6972 34.0615 57.9222 33.4748 58.3157 32.9439C58.7093 32.385 59.2154 31.9659 59.6933 31.5188C60.0588 31.2114 60.3962 30.8761 60.7054 30.5129C60.8741 30.2894 61.0147 30.0658 61.1553 29.8143C61.0709 29.8143 61.0147 29.7864 60.9304 29.7584C60.7054 29.7026 60.5368 29.6187 60.3118 29.6187C60.0869 29.5908 59.8901 29.6187 59.6652 29.6467C59.356 29.6746 59.0467 29.7026 58.7375 29.7305C58.0627 29.7584 57.4161 29.7584 56.7414 29.7584C56.2634 29.7584 55.7574 29.8143 55.2794 29.8423C54.2392 29.8982 53.199 29.9261 52.1588 29.954C50.3595 30.0099 48.5602 30.0099 46.789 29.954C46.0018 29.954 45.2146 29.8982 44.4274 29.8982C44.1182 29.8702 43.8651 29.8702 43.584 29.982C43.1623 30.1496 42.853 30.3173 42.4313 30.4011C41.8972 30.4849 41.3349 30.4849 40.8007 30.4849C40.4071 30.4849 39.9854 30.4849 39.5637 30.457C39.3107 30.457 39.0014 30.4291 38.8046 30.2614C38.7203 30.2055 38.6922 30.1496 38.6359 30.0938C38.5797 30.0938 38.4954 30.0938 38.411 30.0938L38.7484 30.5688L37.2302 29.9261C37.174 29.9261 37.1459 29.8982 37.0897 29.8982L37.0334 29.8702L37.0053 29.8423C36.9772 29.8423 36.921 29.8143 36.8929 29.8143V29.8423L36.7242 29.7584C36.5836 29.7305 36.4149 29.7026 36.2744 29.6467C36.0776 29.5908 35.9089 29.507 35.8526 29.3393C35.6277 29.1437 35.4591 28.8643 35.3185 28.6687C35.0936 28.3334 35.1779 27.9702 35.3466 27.6348C35.5153 27.2995 35.8245 26.9084 36.1057 26.6289C36.443 26.2936 36.8085 26.0701 37.2584 25.9024C37.7082 25.7627 38.2705 25.6789 38.7484 25.7068C39.1982 25.7627 39.5637 25.9024 40.0135 26.0142C40.3509 26.126 40.7164 26.2098 41.0819 26.2657C41.2505 26.3216 41.3911 26.3216 41.5317 26.2936C41.8128 26.2377 42.094 26.126 42.347 26.0421C42.9093 25.9024 43.4434 25.8186 44.0057 25.7627C44.8772 25.651 45.7488 25.623 46.5922 25.5392C47.4356 25.4833 48.2509 25.3995 49.0662 25.3156C49.6847 25.2598 50.3314 25.2039 50.9218 25.0921C51.2872 25.0362 51.6527 24.9245 51.9901 24.7568C52.0182 24.7568 52.0744 24.7289 52.1026 24.7009C52.1307 24.673 52.1869 24.5333 52.1869 24.4774C52.3275 24.0024 52.3837 23.4994 52.4961 23.0244C52.5243 22.8567 52.5524 22.6891 52.6086 22.5214C52.7492 21.9067 52.946 21.3199 53.199 20.7611C53.3958 20.314 53.5926 19.9787 53.8737 19.6155C54.1268 19.2801 54.436 18.9728 54.689 18.6095C54.8015 18.4698 54.8577 18.3581 54.8577 18.1625C54.8577 17.883 54.7734 17.5477 54.689 17.2963C54.6328 17.0448 54.5485 16.6815 54.4079 16.458C54.3236 16.2903 54.0986 16.2065 53.93 16.1506C53.452 15.955 52.9741 15.8153 52.4961 15.6477C52.0182 15.4521 51.5403 15.2006 51.1186 14.9212C50.978 14.8094 50.8093 14.6697 50.6687 14.5579C50.5844 14.4741 50.4719 14.3903 50.3595 14.3064C50.2189 14.2226 50.0502 14.1667 49.8815 14.1667C49.6004 14.1388 49.3193 14.2226 49.0381 14.2226C48.2509 14.2506 47.5481 13.9432 47.3794 13.1049C47.3232 12.8255 47.3513 12.574 47.3513 12.3226C47.3794 12.2108 47.3794 12.0711 47.4075 11.9593C47.3794 11.9034 47.3513 11.8475 47.3232 11.7637C47.2951 11.6799 47.2669 11.5961 47.2388 11.4843C47.1545 11.2328 47.1264 10.9813 47.1826 10.7298C47.1545 10.4784 47.1826 10.2269 47.2107 10.0034C47.2107 9.86364 47.2388 9.69599 47.2388 9.55628C47.1826 9.3048 47.1264 9.13715 47.2388 8.85772C47.2388 8.80184 47.2669 8.74596 47.2951 8.71801L47.3232 8.52242L47.4075 8.5783C47.5481 8.38271 47.8011 8.18711 47.9979 8.07534C48.3072 7.87975 48.6726 7.7121 49.0381 7.62827C49.3193 7.54444 49.5723 7.5165 49.8534 7.54444C50.0783 7.54444 50.3033 7.60033 50.5282 7.60033C50.6125 7.62827 50.6406 7.62827 50.725 7.57239C51.0061 7.40473 51.2591 7.20914 51.5403 7.04148C51.7652 6.90177 51.9901 6.81795 52.215 6.73412C52.3556 6.48264 52.5243 6.23116 52.7773 6.06351C53.0022 5.9238 53.2833 5.83997 53.5645 5.83997C53.8737 5.81203 54.1549 5.9238 54.4079 6.09145C54.5485 6.17528 54.7172 6.31499 54.8296 6.4547C55.1389 6.48264 55.4481 6.48264 55.7574 6.56647C55.8136 6.59441 55.8979 6.62235 55.9542 6.62235C56.0947 6.67824 56.2353 6.73412 56.3759 6.81795C56.4602 6.84589 56.5446 6.90177 56.6289 6.92972C56.657 6.92972 56.6851 6.92972 56.6851 6.92972C56.7132 6.92972 56.7695 6.90177 56.7695 6.90177C57.0506 6.73412 57.2474 6.56647 57.5567 6.42676C57.9222 6.2591 58.372 6.17528 58.7937 6.17528C59.1873 6.20322 59.6371 6.31499 59.9745 6.53853C60.2275 6.70618 60.4243 6.95766 60.5086 7.26502C60.593 7.62827 60.5086 7.90769 60.4805 8.243C60.4805 8.41065 60.5086 8.49448 60.6211 8.63419C60.7336 8.7739 60.8741 8.88567 61.0147 8.99744C61.2396 9.16509 61.4364 9.33274 61.6332 9.50039C62.0549 9.8357 62.4485 10.1989 62.7859 10.6181C63.067 10.8975 63.2076 11.1769 63.4044 11.5122C63.6012 11.8755 63.8261 12.2667 63.9667 12.6579C64.0229 12.7976 64.0791 12.9373 64.1353 13.077C64.1353 13.1329 64.1635 13.1888 64.1916 13.2446C64.3321 13.4682 65.1475 13.7197 65.3724 13.8035C65.9628 13.9711 66.5532 14.1108 67.1154 14.3903C67.6496 14.6417 68.1557 15.0329 68.5774 15.4521C68.7742 15.6197 68.9428 15.8153 69.1396 16.0109C69.1678 16.0389 69.1959 16.0668 69.224 16.0947C69.4208 16.2624 69.6738 16.3742 69.955 16.43C70.5172 16.5418 71.2201 16.5139 71.8105 16.5139C72.8226 16.458 73.8628 16.3742 74.8749 16.2624C75.9714 16.1506 77.124 16.0109 78.2486 15.955C79.092 15.9271 79.8511 15.955 80.6664 16.1227C81.5098 16.2903 82.3251 16.5418 83.1404 16.7933C83.787 17.0168 84.4337 17.2963 85.0522 17.6036C85.2771 17.6874 85.6988 17.9389 85.9518 17.9669C86.2049 17.9669 86.5422 17.8551 86.7671 17.7154C87.1326 17.5198 87.3856 17.2683 87.7792 17.1286C88.6789 16.7654 90.197 16.9051 91.0967 17.2124C92.5024 17.6595 93.1209 18.6095 94.0206 19.6713C94.4985 20.2302 94.9764 20.7331 95.4544 21.292C96.101 21.9626 96.7476 22.7729 97.1974 23.6112C97.5348 24.2818 97.7597 24.8965 97.9284 25.5951ZM58.878 7.74004C58.7375 7.76798 58.5688 7.87975 58.4844 7.99152C58.3439 8.10329 58.2595 8.27094 58.1471 8.43859C57.9784 8.74596 57.8378 9.02538 57.6129 9.3048C57.5848 9.33274 57.5848 9.33274 57.5567 9.36068C57.6691 9.33274 57.7816 9.3048 57.8659 9.27686C57.9503 9.22097 58.0065 9.1092 58.0627 9.02538C58.2314 8.74596 58.4001 8.49448 58.5688 8.243C58.6531 8.10329 58.8218 7.90769 58.878 7.74004Z" fill="#FEFEFE" fill-opacity="0.501961"/>
<path d="M53.1147 9.69589C53.6892 9.69589 54.1549 9.23302 54.1549 8.66203C54.1549 8.09105 53.6892 7.62817 53.1147 7.62817C52.5402 7.62817 52.0745 8.09105 52.0745 8.66203C52.0745 9.23302 52.5402 9.69589 53.1147 9.69589Z" fill="#5CB139"/>
<path fill-rule="evenodd" clip-rule="evenodd" d="M52.9179 8.18699C52.7211 8.29876 52.7773 8.29876 52.7492 8.38259C52.6648 8.60613 52.6648 8.80172 52.8616 8.96938C53.1428 9.19291 53.4801 9.0532 53.7332 8.85761C54.0143 8.66201 54.0424 8.46642 53.7613 8.24288C53.5083 8.04728 53.0865 8.07523 52.9179 8.18699ZM60.1994 8.96938C60.4524 9.2488 60.8741 9.55616 61.2958 9.89147C61.7175 10.2547 62.1393 10.6459 62.3923 10.9533C62.6453 11.2327 62.7578 11.4562 62.9264 11.7636C63.0951 12.0989 63.3482 12.518 63.4887 12.8533C63.6293 13.1607 63.6293 13.3842 63.7418 13.5239C63.9948 13.9151 64.8382 14.1666 65.2318 14.3063C65.6816 14.4181 66.3282 14.5857 66.8624 14.8652C67.4247 15.1446 67.9026 15.5358 68.2119 15.8152C68.5211 16.1226 68.6617 16.2902 68.8866 16.4858C69.0834 16.6535 69.3646 16.8211 69.8425 16.9329C70.3204 17.0447 70.9671 17.0726 71.8386 17.0167C72.682 16.9888 73.7503 16.9049 74.9311 16.7932C76.0838 16.6535 77.3208 16.5138 78.2767 16.4858C79.2045 16.4299 79.823 16.4858 80.582 16.6535C81.313 16.7932 82.1845 17.0447 82.9717 17.2961C83.7308 17.5756 84.3774 17.827 84.8273 18.0506C85.3052 18.3021 85.5863 18.4697 85.9237 18.4976C86.2892 18.4976 86.6828 18.3579 87.0202 18.1903C87.3575 17.9947 87.6387 17.7432 87.976 17.6035C88.7632 17.2961 90.1408 17.4358 90.928 17.6873C92.1931 18.1065 92.8116 19.0285 93.6269 20.0065C94.0487 20.5095 94.5266 21.0404 95.0889 21.6272C95.623 22.2419 96.3259 23.0802 96.7195 23.8346C97.1131 24.617 97.2818 25.1758 97.4786 25.9023C97.6191 25.9861 97.6473 26.0979 98.2095 26.3494C98.7437 26.6009 100.234 26.9921 101.836 27.6627C103.439 28.3333 105.35 29.3392 106.559 30.7084C107.74 32.0775 108.218 33.8099 108.331 35.4026C108.443 36.9674 108.19 38.3925 106.559 39.9852C104.957 41.5499 102.005 43.3103 98.4907 43.8971C94.9483 44.5118 90.8718 43.9529 87.8636 42.947C84.8554 41.9411 82.8874 40.4881 82.1283 39.566C81.3411 38.616 81.7347 38.1969 82.2127 38.0572C82.6625 37.9454 83.1967 38.0851 83.7589 38.4763C84.2931 38.8395 84.8835 39.4263 85.5863 39.9013C86.2611 40.3764 87.0202 40.7396 88.3134 41.1867C89.5785 41.6058 91.3778 42.0808 93.1771 42.3323C94.9483 42.5558 96.7476 42.5558 98.4344 42.2205C100.149 41.9132 101.752 41.2426 103.101 40.4322C104.423 39.594 105.491 38.5881 106.025 37.4704C106.531 36.3527 106.531 35.0953 106.278 33.8938C106.025 32.6643 105.519 31.4628 104.732 30.7643C103.945 30.0378 102.876 29.8422 101.808 29.7863C100.74 29.7304 99.4747 29.8701 98.7999 29.9819C98.1252 30.0936 97.9565 30.1216 97.6191 30.1495C97.4786 30.2892 97.3942 30.3451 96.9725 30.4289C96.5508 30.4848 95.5668 30.4848 94.2736 30.3731C93.0084 30.2892 91.2654 30.1216 90.3376 29.9819C89.4098 29.8422 89.2412 29.7583 89.1568 29.7863C89.0444 29.7863 88.9881 29.9539 88.5102 30.0378C88.0323 30.1216 87.1045 30.1495 85.9799 30.1216C84.8554 30.1216 83.534 30.0657 82.7749 30.0378C82.0159 30.0098 81.8191 30.0378 81.566 30.1216C81.313 30.2054 81.0319 30.3451 80.7788 30.4569C80.5258 30.5407 80.329 30.5687 80.1603 30.5128C79.9635 30.4848 79.7949 30.3451 79.7105 30.2334C79.5981 30.1216 79.5699 30.0378 79.4294 30.0098C79.3169 30.0098 79.092 30.0657 78.9233 30.0657C78.7546 30.0378 78.6422 29.926 78.6141 29.8142C78.5578 29.7025 78.586 29.5627 78.5297 29.5348C78.4735 29.5069 78.361 29.5907 78.2205 29.6186C78.0799 29.6466 77.9393 29.5907 77.8831 29.451C77.7988 29.3392 77.7706 29.1157 77.4333 29.1157C77.0959 29.0877 76.4212 29.3113 75.5496 29.451C74.65 29.5627 73.5254 29.6186 72.5696 29.5907C71.6137 29.5348 70.8265 29.3951 70.2923 29.2274C69.7582 29.0598 69.5051 28.8921 69.3646 28.8083C69.0272 28.5568 69.0834 28.7245 68.1838 27.7744C67.8745 27.4391 67.7339 26.9921 67.6215 26.5729C67.509 26.1259 67.509 25.6788 67.4809 25.6508C67.4528 25.6508 67.3966 26.07 67.3966 26.4612C67.3685 26.8244 67.3966 27.1877 67.4809 27.4671C67.5653 27.7465 67.7339 27.9421 67.9589 28.1656C68.1838 28.3892 68.4649 28.5848 68.6617 28.8083C68.8304 29.0598 68.971 29.3113 68.9991 29.3113C69.1115 29.2833 69.0553 29.6186 68.971 29.8422C68.8866 30.0098 68.7179 30.2892 68.5211 30.4848C68.3243 30.6804 68.1275 30.8201 67.6777 31.2113C67.1998 31.5746 66.4969 32.1893 65.8222 32.7202C65.1193 33.2511 64.4446 33.6702 63.8261 34.0335C63.2357 34.3967 62.7297 34.6482 62.4485 34.8438C62.1674 35.0115 62.083 35.0953 61.9987 35.235C61.9143 35.3468 61.83 35.4865 61.6613 35.6541C61.5207 35.8218 61.2677 36.0174 61.1272 36.3527C60.9866 36.66 60.9304 37.1071 60.9022 37.5821C60.9022 38.0572 60.9022 38.5601 60.7617 39.0631C60.6211 39.566 60.3681 40.0969 60.1432 40.5161C59.9182 40.9352 59.7496 41.2705 59.5247 41.4661C59.3279 41.6896 59.1311 41.7735 58.9624 41.8293C58.9624 41.8293 58.9624 41.8014 58.9624 41.7455C58.9343 41.6617 58.9061 41.494 58.9624 41.2705C59.0186 41.047 59.1029 40.7396 59.1873 40.4322C59.2435 40.1528 59.2435 39.9013 59.3279 39.6778C59.3841 39.4543 59.4965 39.2866 59.5247 39.1748C59.5809 39.0631 59.5809 39.0072 59.4965 39.0351C59.4403 39.091 59.2997 39.2307 59.2435 39.4263C59.1592 39.6499 59.1311 39.9293 59.0748 40.2366C59.0186 40.544 58.9343 40.8793 58.8218 41.1308C58.7375 41.3823 58.6531 41.6058 58.625 41.6617C58.625 41.7455 58.625 41.7176 58.625 41.7455C58.625 41.7455 58.625 41.7176 58.5969 41.7176C58.5407 41.7176 58.372 41.8573 58.2314 41.9411C58.0627 41.997 57.894 41.997 57.7816 41.9411C57.641 41.8573 57.5567 41.7176 57.5286 41.6058C57.4723 41.494 57.4723 41.4382 57.4442 41.4102C57.4442 41.4102 57.4442 41.4382 57.4161 41.3543C57.4161 41.2705 57.3318 40.9352 57.3318 40.6837C57.3318 40.2366 57.5567 39.6778 57.7816 39.2866C57.894 39.0631 58.0627 38.8116 58.0627 38.7557C58.0627 38.7278 57.894 38.8954 57.7254 39.1469C57.5567 39.4263 57.3599 39.8175 57.2755 40.1528C57.1912 40.5161 57.135 41.1308 57.388 41.4382C57.3036 41.4661 57.1912 41.6896 57.0506 41.8293C56.9101 41.9411 56.7414 42.0249 56.5446 41.9691C56.3759 41.9132 56.1229 41.7455 56.0385 41.6058C55.9542 41.4661 55.9542 41.3543 55.9261 41.2984C55.9261 41.2705 55.9261 41.2984 55.9542 41.1867C55.9542 41.1028 56.0104 40.7396 56.0385 40.4602C56.0947 40.1808 56.151 39.9293 56.2353 39.6778C56.2915 39.4263 56.404 39.1469 56.404 39.0351C56.4321 38.8954 56.3478 38.9234 56.2634 39.1469C56.1791 39.3425 56.1229 39.7337 56.0385 40.1528C55.9823 40.544 55.9261 41.047 55.8979 41.1587C55.8979 41.2705 55.8979 41.2426 55.8979 41.2426C55.8417 41.2146 55.7293 41.2426 55.5887 41.1867C55.4481 41.1308 55.3076 40.9911 55.2513 40.7117C55.1951 40.4322 55.2232 39.9852 55.2794 39.6219C55.3919 39.0351 55.6168 38.6439 55.9261 38.113C56.0947 37.8895 56.2634 37.5821 56.3478 37.3027C56.404 37.0233 56.3478 36.7718 56.5446 36.5483C56.7414 36.3527 57.1631 36.213 57.4442 35.9615C57.7254 35.6821 57.8378 35.3188 58.0065 34.8438C58.1471 34.3408 58.372 33.7541 58.7375 33.2511C59.1029 32.7202 59.6371 32.2731 60.0588 31.9099C60.4805 31.5187 60.846 31.1834 61.099 30.8481C61.3802 30.5128 61.577 30.1495 61.7738 29.7863C61.9987 29.423 62.1955 29.0318 62.1955 28.976C62.2236 28.8921 62.0268 29.0877 61.8019 29.1995C61.5489 29.3113 61.2958 29.3113 61.0709 29.2554C60.846 29.1995 60.6773 29.0877 60.3118 29.0877C59.9464 29.0598 59.3841 29.1716 58.7093 29.1995C58.0065 29.2554 57.2193 29.2274 56.7414 29.2274C56.2353 29.2554 56.0104 29.2833 55.2513 29.3113C54.4922 29.3671 53.1709 29.423 52.1307 29.451C50.3595 29.4789 48.5883 29.5069 46.789 29.451C45.8894 29.423 44.9897 29.3671 44.4274 29.3671C43.8651 29.3671 43.6684 29.3951 43.3872 29.5069C43.1061 29.6186 42.7687 29.7863 42.3189 29.8701C41.8691 29.9819 41.3068 29.9819 40.8288 29.9539C40.3228 29.9539 39.873 29.9539 39.5918 29.9539C39.3107 29.926 39.1982 29.898 39.142 29.8701C39.0858 29.8142 39.0577 29.7863 39.0295 29.7583C39.0577 29.7583 39.0295 29.7583 39.0858 29.7583C39.1139 29.7304 39.142 29.5907 39.2263 29.3951C39.2826 29.1995 39.395 28.9201 39.5356 28.7524C39.6762 28.5568 39.8448 28.4171 40.0135 28.3892C40.2103 28.3333 40.4071 28.3612 40.5758 28.3612C40.7445 28.3612 40.857 28.3612 40.7164 28.3333C40.5758 28.3053 40.2103 28.2774 39.9292 28.3333C39.6199 28.4171 39.4512 28.5848 39.2545 28.7804C39.0858 28.976 38.9171 29.1716 38.8327 29.3113C38.7484 29.451 38.7484 29.5069 38.8046 29.5907C38.6922 29.5627 38.5235 29.5907 38.2705 29.5627C38.0455 29.5627 37.652 29.5069 37.5114 29.4789C37.3708 29.451 37.3708 29.423 37.3146 29.3951L37.2584 29.2833C37.2302 29.2554 37.2021 29.2274 37.2584 29.0598C37.2865 28.8921 37.3708 28.6127 37.4833 28.3612C37.5957 28.1097 37.7082 27.9142 37.9331 27.7744C38.1299 27.6347 38.3829 27.5509 38.6359 27.5509C38.889 27.5509 39.1139 27.6347 39.2263 27.6347C39.3107 27.6347 39.2545 27.5509 39.1139 27.523C38.2986 27.2994 37.9612 27.4391 37.5114 27.8862C37.2584 28.1377 37.174 28.6406 37.1178 28.8921C37.0897 29.0598 37.1178 29.2274 37.2302 29.3671C36.9772 29.2554 36.6961 29.2554 36.4431 29.1436C36.2181 29.0877 36.3306 29.1157 36.3868 29.0039C36.4149 28.8642 36.3587 28.5568 36.4712 28.3053C36.9772 26.8524 38.2423 26.8524 38.6078 26.9641C38.6359 26.9362 38.5235 26.8244 38.3267 26.7965C37.1459 26.517 36.0776 27.8862 36.2181 28.976C36.1338 28.9201 35.8245 28.473 35.7683 28.3612C35.684 28.2774 35.684 28.1377 35.8245 27.8862C35.937 27.6347 36.19 27.2715 36.4712 27.02C36.7523 26.7406 37.0334 26.545 37.427 26.4053C37.8206 26.2656 38.2986 26.2097 38.6922 26.2376C39.1139 26.2656 39.4512 26.4053 39.8448 26.517C40.2384 26.6288 40.6883 26.7406 40.9975 26.7965C41.3068 26.8524 41.4473 26.8524 41.6723 26.7965C41.8691 26.7406 42.1221 26.6568 42.4876 26.5729C42.853 26.4612 43.3591 26.3494 44.0901 26.2656C44.7929 26.2097 45.7488 26.1259 46.6484 26.07C47.5481 25.9861 48.3915 25.9023 49.1225 25.8464C49.8534 25.7626 50.5001 25.7067 51.0342 25.6229C51.5684 25.5111 51.962 25.3435 52.215 25.2317C52.468 25.1199 52.5805 25.0641 52.6929 24.617C52.8335 24.1699 52.946 23.3596 53.1147 22.661C53.2833 21.9625 53.5083 21.3757 53.7051 20.9566C53.8737 20.5374 54.0424 20.258 54.2954 19.9227C54.5485 19.6153 54.914 19.2241 55.1108 18.9168C55.3357 18.6374 55.3919 18.4138 55.3919 18.1344C55.3919 17.855 55.3076 17.5197 55.1951 17.1564C55.1108 16.7932 55.0264 16.4299 54.8577 16.1784C54.7172 15.927 54.5204 15.8152 54.1268 15.6475C53.7332 15.5078 53.199 15.3402 52.6929 15.1446C52.215 14.949 51.7652 14.7255 51.4278 14.474C51.1186 14.2504 50.8937 14.0269 50.6687 13.8593C50.4157 13.7195 50.1908 13.6357 49.9097 13.6357C49.6285 13.6357 49.3193 13.6916 49.0381 13.6916C48.504 13.7195 47.9979 13.5798 47.8855 12.993C47.8573 12.7695 47.8855 12.546 47.8855 12.3504C47.9136 12.1548 47.9136 11.9592 47.9698 11.9312C48.026 11.8754 48.026 11.9033 48.0541 11.9033C47.8573 11.7636 47.8573 11.7077 47.8292 11.6239C47.8292 11.568 47.773 11.5121 47.7449 11.3445C47.6887 11.1768 47.6324 10.9253 47.7168 10.7856C47.6887 10.5341 47.6887 10.2547 47.7168 10.0591C47.7449 9.86352 47.773 9.72381 47.773 9.61204C47.8011 9.61204 47.773 9.61204 47.8011 9.63999C47.8573 9.66793 47.9698 9.72381 48.0541 9.83558C48.2509 10.0312 48.279 10.3106 48.3072 10.5621L48.3353 10.59C48.3634 10.4503 48.3353 10.4503 48.3634 10.2268C48.3915 10.0312 48.4477 9.86352 48.504 9.80764C48.5883 9.75176 48.7008 9.69587 48.8132 9.63999C48.8976 9.61204 49.01 9.55616 48.9819 9.55616C48.9538 9.55616 48.7851 9.61204 48.6726 9.66793C48.5602 9.69587 48.504 9.72381 48.4477 9.7797C48.3634 9.83558 48.3072 9.89147 48.2509 9.89147C48.1666 9.86352 48.0823 9.7797 48.026 9.72381C47.9417 9.63999 47.8573 9.61204 47.773 9.5841C47.773 9.52822 47.8011 9.55616 47.773 9.44439C47.773 9.36057 47.6605 9.22085 47.7168 9.0532C47.773 8.88555 47.9979 8.68995 48.279 8.49436C48.5602 8.32671 48.8976 8.18699 49.1506 8.13111C49.4317 8.04728 49.6004 8.04728 49.8253 8.07523C50.0221 8.07523 50.2751 8.10317 50.4719 8.13111C50.6406 8.15905 50.7812 8.15905 50.978 8.01934C51.1748 7.90757 51.5122 7.65609 51.7933 7.48844C52.1026 7.34873 52.2994 7.2649 52.6086 7.18108C52.6086 7.15314 52.6086 7.15314 52.6367 7.12519C52.7211 6.87371 52.8335 6.65018 53.0584 6.51047C53.199 6.42664 53.3958 6.37076 53.5926 6.37076C53.7613 6.34281 53.93 6.3987 54.1268 6.53841C54.2954 6.65018 54.4922 6.87371 54.5485 6.9296C54.5766 6.98548 54.5766 6.98548 54.5766 6.98548C54.9702 6.98548 55.3076 6.98548 55.6168 7.06931C55.9542 7.15314 56.2634 7.34873 56.4883 7.40461C56.7133 7.48844 56.8538 7.4605 57.0506 7.34873C57.2474 7.23696 57.4723 7.04137 57.7535 6.90166C58.0627 6.76195 58.4282 6.70606 58.7937 6.70606C59.1311 6.734 59.4684 6.81783 59.6652 6.95754C60.1713 7.29285 60.0026 7.71198 59.9745 8.21494C59.9464 8.46642 59.9745 8.68995 60.1994 8.96938ZM53.2271 8.27082C53.2833 8.32671 53.3396 8.41053 53.4239 8.46642C53.5083 8.49436 53.6207 8.5223 53.6488 8.55024C53.6488 8.55024 53.5926 8.60613 53.4801 8.60613C53.3396 8.60613 53.1428 8.55024 53.0303 8.49436C52.8335 8.41053 52.8054 8.24288 53.0584 8.21494C53.1147 8.21494 53.1709 8.24288 53.2271 8.27082ZM90.0565 26.9082C90.0565 26.9641 89.7191 27.1597 89.5223 27.3833C89.3536 27.6068 89.3255 27.8862 89.2974 28.1377C89.2693 28.4171 89.2412 28.6686 89.2131 28.948C89.1849 29.2274 89.1849 29.5069 89.1006 29.6745C89.0444 29.8422 88.96 29.898 88.8476 29.926C88.7351 29.9819 88.6227 30.0098 88.6789 29.9819C88.7351 29.9539 88.9319 29.8701 89.0444 29.6466C89.1287 29.423 89.1287 29.0318 89.1006 28.6965C89.0725 28.3612 89.0444 28.0539 89.1006 27.7744C89.1287 27.495 89.2974 27.2715 89.5223 27.1038C89.7472 26.9362 90.0846 26.8524 90.0565 26.9082ZM81.9315 28.5009C81.6785 28.473 81.0319 28.3053 80.6664 28.473C80.3009 28.6686 79.9635 29.3113 79.823 29.7025C79.7386 29.926 79.7386 30.0657 79.7386 29.9819C79.8511 29.423 79.9917 28.6686 80.582 28.4171C80.8913 28.2774 81.3411 28.3053 81.6223 28.3333C81.9034 28.3892 82.044 28.4451 82.1002 28.473C82.1283 28.5009 82.1845 28.5289 81.9315 28.5009ZM80.2728 27.6906C80.2728 27.7186 80.076 27.6906 79.8792 27.7186C79.4294 27.8024 79.1763 28.1097 78.9795 28.5009C78.8952 28.6965 78.8109 28.9201 78.7546 29.0318C78.6984 29.1716 78.6984 29.2274 78.6984 29.3113C78.6703 29.423 78.6141 29.5348 78.6141 29.451C78.6141 29.3671 78.6703 29.0598 78.7546 28.7804C78.8109 28.5009 78.9233 28.2495 79.092 28.0539C79.2607 27.8583 79.5137 27.7186 79.7667 27.6627C79.9917 27.6347 80.2447 27.6906 80.2728 27.6906ZM87.5262 22.661C87.3294 22.8846 86.8796 23.6949 86.7952 24.0302C86.5141 25.092 86.9358 26.6568 86.4016 27.1318C85.6988 27.7744 83.9276 27.9421 82.9999 27.9421C82.3532 27.9421 81.791 27.8862 81.3411 27.7744C80.8632 27.6627 80.4696 27.495 80.1885 27.3833C79.9073 27.2994 79.7105 27.2715 79.4575 27.3274C79.2045 27.3553 78.8952 27.4391 78.6703 27.6347C78.4454 27.8024 78.3329 28.0818 78.1924 28.3612C78.0518 28.6127 77.8831 28.9201 77.8831 29.1157C77.8831 29.3392 78.0518 29.4789 78.0518 29.4789C78.0518 29.4789 77.8831 29.3392 77.9112 29.0318C77.9112 28.7245 78.108 28.2774 78.3048 27.9142C78.5016 27.5788 78.7265 27.3553 79.092 27.2435C79.4575 27.1318 79.9354 27.1038 80.2728 27.1597C80.6383 27.2156 80.8351 27.3833 81.1443 27.495C81.4817 27.5788 81.9315 27.6347 82.4938 27.6627C83.5059 27.7186 84.6867 27.6906 85.6707 27.3274C86.0081 27.2156 86.1767 26.9362 86.1767 26.6009C86.233 25.0361 86.2611 22.9125 87.5262 22.661ZM56.5727 29.0318C56.5446 28.8642 56.4602 28.6686 56.3478 28.3612C56.2353 28.0539 56.0104 27.6347 55.673 27.2994C55.3076 26.9641 54.9421 26.6009 54.914 26.545C54.8577 26.4891 55.2513 26.6847 55.5887 26.9641C55.9261 27.2435 56.2353 27.5788 56.4321 27.9421C56.657 28.2774 56.7976 28.6406 56.8538 28.8362C56.8819 29.0598 56.7976 29.1436 56.7414 29.1716C56.657 29.1995 56.6008 29.1716 56.5727 29.0318ZM61.9143 19.0565C61.9425 19.0565 61.5207 19.4756 61.1272 19.8668C59.8901 21.1522 59.4684 22.4934 59.4965 24.1978C59.4965 24.9243 59.6371 25.6508 59.9745 26.4053C60.3118 27.1877 60.8741 28.0259 60.9304 28.1656C60.9585 28.3053 60.4805 27.7465 60.0869 27.0479C59.7215 26.3494 59.2435 25.5111 59.1592 24.6449C58.9905 22.8566 59.2435 20.3698 61.9143 19.0565ZM49.0381 9.27674C48.9819 9.19291 48.7008 9.0532 48.5883 9.13703C48.504 9.19291 48.5321 9.50028 48.5883 9.52822C48.6445 9.52822 48.7008 9.44439 48.7851 9.41645C48.8694 9.38851 48.9819 9.41645 49.0381 9.38851C49.0944 9.36057 49.0944 9.33262 49.0381 9.27674ZM48.1385 9.63999C48.1947 9.5841 48.2228 9.44439 48.1947 9.30468C48.1666 9.19291 48.0823 9.13703 47.9979 9.10909C47.9136 9.08114 47.8292 9.13703 47.8011 9.19291C47.6887 9.33262 47.8855 9.50028 47.9979 9.5841C48.0541 9.63999 48.1104 9.69587 48.1385 9.63999ZM54.0424 8.55024C54.0424 8.41053 53.8456 8.24288 53.6769 8.13111C53.5083 8.04728 53.3115 7.9914 53.1428 8.01934C52.8054 8.04728 52.5243 8.32671 52.3275 8.55024C52.2431 8.63407 52.215 8.68995 52.215 8.7179C52.1869 8.77378 52.215 8.77378 52.2994 8.80172C52.3837 8.82966 52.5243 8.85761 52.6648 8.96938C52.7773 9.0532 52.8897 9.19291 53.0865 9.22085C53.2833 9.22085 53.5364 9.13703 53.7332 8.99732C53.93 8.85761 54.0705 8.7179 54.0424 8.55024ZM59.0467 7.04137C59.0467 7.04137 58.7656 6.98548 58.5407 7.04137C58.3158 7.09725 58.119 7.29285 57.9222 7.51638C57.7535 7.73992 57.5567 7.9914 57.4723 8.24288C57.3599 8.46642 57.3318 8.66201 57.1912 8.85761C57.0787 9.0532 56.8819 9.2488 56.657 9.38851C56.4321 9.52822 56.2072 9.61204 56.2072 9.5841C56.2072 9.55616 56.4321 9.41645 56.6851 9.19291C56.9101 8.96938 57.1631 8.68995 57.3036 8.38259C57.5567 7.87963 57.5286 7.37667 58.0346 7.04137C58.1752 6.95754 58.3158 6.90166 58.5407 6.9296C58.7375 6.95754 59.0186 7.04137 59.0467 7.04137ZM59.4122 7.4605C59.4684 7.57227 59.4403 7.76786 59.356 7.96346C59.2997 8.13111 59.1592 8.29876 58.9905 8.5223C58.8499 8.74584 58.6531 9.0532 58.5125 9.27674C58.4001 9.50028 58.3158 9.63999 58.0908 9.75176C57.8659 9.83558 57.5286 9.91941 57.1912 9.91941C56.8819 9.91941 56.5727 9.80764 56.4602 9.7797C56.3197 9.72381 56.3478 9.72381 56.5165 9.5841C56.6851 9.47233 56.9944 9.22085 57.2193 8.96938C57.4161 8.68995 57.5567 8.41053 57.6972 8.15905C57.8378 7.93552 57.9503 7.76786 58.119 7.60021C58.372 7.34873 58.7375 7.12519 59.1029 7.20902C59.2435 7.2649 59.356 7.32079 59.4122 7.4605Z" fill="#010125"/>
<path fill-rule="evenodd" clip-rule="evenodd" d="M104.788 50.9106H108.218L103.579 39.2029L108.218 29.7864H104.873L100.487 39.0073V29.7864H97.1412V50.9106H100.487V44.4281L101.527 42.5001L104.788 50.9106Z" fill="#FEFEFE"/>
<path fill-rule="evenodd" clip-rule="evenodd" d="M159.863 36.4926V26.0981H157.755V25.2878H163.012V26.0981H160.932V36.4926H159.863ZM164.249 36.4926V25.2878H166.948C167.623 25.2878 168.157 25.3996 168.551 25.651C168.944 25.9025 169.225 26.2378 169.366 26.6849C169.535 27.132 169.619 27.6629 169.619 28.2497C169.619 28.7806 169.535 29.2835 169.366 29.7306C169.197 30.1777 168.916 30.513 168.494 30.7924C168.129 31.0718 167.595 31.1836 166.948 31.1836H165.318V36.4926H164.249ZM165.318 30.4012H166.667C167.117 30.4012 167.482 30.3453 167.764 30.2056C168.045 30.0659 168.241 29.8424 168.382 29.535C168.523 29.2276 168.579 28.7806 168.579 28.2497C168.579 27.6908 168.523 27.2437 168.41 26.9364C168.298 26.6011 168.101 26.3775 167.82 26.2658C167.567 26.1261 167.173 26.0702 166.667 26.0702H165.318V30.4012ZM170.153 36.4926L172.515 25.2878H173.639L176.029 36.4926H174.989L174.427 33.5028H171.756L171.165 36.4926H170.153ZM171.896 32.7204H174.286L173.105 26.6849L171.896 32.7204ZM177.379 36.4926V25.2878H178.447V30.2615H182.017V25.2878H183.058V36.4926H182.017V31.0439H178.447V36.4926H177.379ZM187.668 36.6323C186.909 36.6323 186.319 36.4647 185.897 36.1573C185.475 35.8499 185.194 35.4308 185.054 34.8999C184.885 34.369 184.801 33.7822 184.801 33.1395V28.6688C184.801 27.9702 184.885 27.3835 185.054 26.8526C185.194 26.3217 185.503 25.9025 185.925 25.6231C186.347 25.3157 186.909 25.176 187.668 25.176C188.343 25.176 188.877 25.2878 189.243 25.5672C189.636 25.8187 189.917 26.1819 190.086 26.657C190.255 27.132 190.339 27.6908 190.339 28.3614V29.032H189.327V28.3894C189.327 27.8864 189.299 27.4673 189.215 27.132C189.13 26.7687 188.961 26.4893 188.737 26.2937C188.484 26.1261 188.146 26.0143 187.668 26.0143C187.162 26.0143 186.769 26.1261 186.516 26.3217C186.263 26.5452 186.094 26.8246 186.01 27.2158C185.925 27.579 185.869 28.0261 185.869 28.5291V33.3072C185.869 33.8381 185.925 34.3131 186.038 34.6764C186.15 35.0396 186.319 35.319 186.572 35.5146C186.853 35.6823 187.218 35.794 187.668 35.794C188.146 35.794 188.512 35.6823 188.737 35.4867C188.961 35.2911 189.13 35.0117 189.215 34.6484C189.299 34.2572 189.327 33.8381 189.327 33.3631V32.6086H190.339V33.2792C190.339 33.9499 190.255 34.5087 190.086 35.0396C189.945 35.5146 189.664 35.9058 189.299 36.2132C188.905 36.4926 188.371 36.6323 187.668 36.6323ZM191.998 36.4926V25.2878H197.761V36.4926H196.693V26.0702H193.038V36.4926H191.998ZM202.4 36.6323C201.641 36.6323 201.051 36.4926 200.629 36.2132C200.207 35.9058 199.898 35.5146 199.729 34.9837C199.56 34.4528 199.476 33.866 199.476 33.1954V28.5291C199.476 27.8585 199.56 27.2717 199.729 26.7687C199.926 26.2658 200.235 25.8746 200.657 25.5952C201.079 25.3157 201.641 25.176 202.4 25.176C203.103 25.176 203.693 25.3157 204.087 25.5952C204.537 25.8746 204.818 26.2658 205.015 26.7687C205.183 27.2717 205.268 27.8585 205.268 28.5291V33.1954C205.268 33.866 205.183 34.4808 205.015 34.9837C204.846 35.4867 204.537 35.9058 204.115 36.1852C203.721 36.4926 203.131 36.6323 202.4 36.6323ZM202.4 35.794C202.878 35.794 203.243 35.6823 203.525 35.4867C203.778 35.2911 203.946 35.0117 204.059 34.6764C204.143 34.3131 204.199 33.894 204.199 33.419V28.3335C204.199 27.8585 204.143 27.4673 204.059 27.104C203.946 26.7687 203.778 26.4893 203.525 26.2937C203.243 26.1261 202.878 26.0143 202.4 26.0143C201.894 26.0143 201.5 26.1261 201.219 26.2937C200.966 26.4893 200.797 26.7687 200.685 27.104C200.601 27.4673 200.544 27.8585 200.544 28.3335V33.419C200.544 33.894 200.601 34.3131 200.685 34.6764C200.797 35.0117 200.966 35.2911 201.219 35.4867C201.5 35.6823 201.894 35.794 202.4 35.794ZM207.039 36.4926V25.2878H209.738C210.412 25.2878 210.947 25.3996 211.34 25.651C211.734 25.9025 211.987 26.2378 212.156 26.6849C212.324 27.132 212.409 27.6629 212.409 28.2497C212.409 28.7806 212.324 29.2835 212.156 29.7306C211.987 30.1777 211.678 30.513 211.284 30.7924C210.89 31.0718 210.384 31.1836 209.738 31.1836H208.079V36.4926H207.039ZM208.079 30.4012H209.428C209.906 30.4012 210.272 30.3453 210.553 30.2056C210.834 30.0659 211.031 29.8424 211.172 29.535C211.284 29.2276 211.368 28.7806 211.368 28.2497C211.368 27.6908 211.312 27.2437 211.2 26.9364C211.087 26.6011 210.89 26.3775 210.609 26.2658C210.328 26.1261 209.963 26.0702 209.457 26.0702H208.079V30.4012ZM215.164 36.4926V26.0981H213.027V25.2878H218.284V26.0981H216.204V36.4926H215.164ZM219.521 36.4926V25.2878H220.59V30.2615H224.132V25.2878H225.2V36.4926H224.132V31.0439H220.59V36.4926H219.521ZM226.55 36.4926L228.94 25.2878H230.064L232.454 36.4926H231.414L230.851 33.5028H228.152L227.59 36.4926H226.55ZM228.321 32.7204H230.711L229.502 26.6849L228.321 32.7204ZM233.072 36.4926L235.378 31.4071C234.844 31.1836 234.422 30.8203 234.169 30.2894C233.888 29.7306 233.747 29.0879 233.747 28.3335C233.747 27.7746 233.86 27.2437 234.028 26.7967C234.225 26.3496 234.562 25.9863 235.012 25.7069C235.462 25.4275 236.109 25.2878 236.896 25.2878H239.286V36.4926H238.217V31.6865H236.783C236.727 31.6865 236.643 31.6865 236.53 31.6865C236.446 31.6865 236.362 31.6865 236.305 31.6865L234.281 36.4926H233.072ZM236.98 30.9042H238.217V26.0702H236.924C236.249 26.0702 235.715 26.2378 235.35 26.6011C234.956 26.9364 234.787 27.5232 234.787 28.3055C234.787 29.1718 234.956 29.8424 235.265 30.2615C235.603 30.7086 236.165 30.9042 236.98 30.9042ZM157.727 57.2816V56.4712C157.98 56.4433 158.205 56.4433 158.402 56.3874C158.57 56.3315 158.739 56.2197 158.851 56.0242C158.992 55.8565 159.104 55.5771 159.189 55.1859C159.273 54.7947 159.357 54.2359 159.414 53.5373C159.498 52.8667 159.582 51.9725 159.667 50.8828L160.004 46.0488H164.39V57.2536H163.321V46.8591H160.96L160.707 50.8828C160.623 51.9446 160.538 52.8667 160.454 53.5932C160.37 54.3476 160.257 54.9624 160.145 55.4374C160.032 55.9124 159.863 56.3036 159.667 56.583C159.47 56.8345 159.217 57.0301 158.908 57.1418C158.57 57.2257 158.177 57.2816 157.727 57.2816ZM169.029 57.3933C168.298 57.3933 167.707 57.2536 167.286 56.9742C166.864 56.6668 166.555 56.2756 166.386 55.7447C166.217 55.2138 166.133 54.627 166.133 53.9564V49.2901C166.133 48.6195 166.217 48.0327 166.386 47.5297C166.583 47.0268 166.892 46.6356 167.314 46.3562C167.735 46.0767 168.298 45.937 169.029 45.937C169.76 45.937 170.35 46.0767 170.744 46.3562C171.193 46.6356 171.475 47.0268 171.671 47.5297C171.84 48.0327 171.924 48.6195 171.924 49.2901V53.9564C171.924 54.627 171.84 55.2418 171.671 55.7447C171.503 56.2477 171.193 56.6668 170.772 56.9462C170.378 57.2536 169.788 57.3933 169.029 57.3933ZM169.029 56.5551C169.535 56.5551 169.9 56.4433 170.181 56.2477C170.434 56.0521 170.603 55.7727 170.687 55.4374C170.8 55.0741 170.856 54.655 170.856 54.18V49.0945C170.856 48.6195 170.8 48.2283 170.687 47.865C170.603 47.5297 170.434 47.2503 170.181 47.0547C169.9 46.8871 169.535 46.7753 169.029 46.7753C168.551 46.7753 168.157 46.8871 167.876 47.0547C167.623 47.2503 167.454 47.5297 167.342 47.865C167.257 48.2283 167.201 48.6195 167.201 49.0945V54.18C167.201 54.655 167.257 55.0741 167.342 55.4374C167.454 55.7727 167.623 56.0521 167.876 56.2477C168.157 56.4433 168.551 56.5551 169.029 56.5551ZM173.696 57.2536V46.0488H177.688V46.8591H174.736V57.2536H173.696ZM178.897 57.2536V46.0488H179.853V54.9344L183.479 46.0488H184.323V57.2536H183.367V48.3401L179.74 57.2536H178.897ZM188.905 57.3933C188.146 57.3933 187.556 57.2257 187.134 56.9183C186.712 56.6109 186.431 56.1918 186.291 55.6609C186.122 55.13 186.038 54.5432 186.038 53.9006V49.4298C186.038 48.7313 186.122 48.1445 186.291 47.6136C186.431 47.0827 186.74 46.6635 187.162 46.3841C187.584 46.0767 188.146 45.937 188.905 45.937C189.58 45.937 190.114 46.0488 190.48 46.3282C190.873 46.5797 191.154 46.943 191.323 47.418C191.492 47.893 191.576 48.4518 191.576 49.1224V49.7931H190.564V49.1504C190.564 48.6474 190.536 48.2283 190.452 47.893C190.367 47.5297 190.198 47.2503 189.974 47.0547C189.721 46.8871 189.383 46.7753 188.905 46.7753C188.399 46.7753 188.006 46.8871 187.753 47.0827C187.5 47.3062 187.331 47.5856 187.247 47.9768C187.162 48.3401 187.106 48.7871 187.106 49.2901V54.0682C187.106 54.5991 187.162 55.0741 187.275 55.4374C187.387 55.8006 187.556 56.08 187.837 56.2756C188.09 56.4433 188.455 56.5551 188.905 56.5551C189.383 56.5551 189.749 56.4433 189.974 56.2477C190.198 56.0521 190.367 55.7727 190.452 55.4094C190.536 55.0182 190.564 54.5991 190.564 54.1241V53.3696H191.576V54.0403C191.576 54.7109 191.492 55.2697 191.323 55.8006C191.182 56.2756 190.901 56.6668 190.536 56.9742C190.142 57.2536 189.608 57.3933 188.905 57.3933ZM194.612 57.2536V46.8591H192.476V46.0488H197.761V46.8591H195.681V57.2536H194.612ZM198.97 57.2536V46.0488H199.926V54.9344L203.581 46.0488H204.396V57.2536H203.44V48.3401L199.813 57.2536H198.97ZM210.581 57.2536V52.0564C209.991 52.224 209.428 52.3078 208.922 52.3078C208.332 52.3078 207.798 52.224 207.376 52.0284C206.954 51.8608 206.645 51.5814 206.42 51.246C206.195 50.8549 206.083 50.3798 206.083 49.821V46.0488H207.151V49.821C207.151 50.2401 207.236 50.6034 207.404 50.8549C207.573 51.1063 207.798 51.3019 208.079 51.4137C208.36 51.5255 208.726 51.5534 209.119 51.5534C209.372 51.5534 209.625 51.5534 209.878 51.4975C210.131 51.4696 210.356 51.4137 210.581 51.3299V46.0488H211.649V57.2536H210.581ZM213.617 57.2536V46.0488H217.694V46.8591H214.686V51.0784H217.16V51.8328H214.686V56.4712H217.722V57.2536H213.617ZM221.799 57.3933C221.04 57.3933 220.449 57.2257 220.027 56.9183C219.634 56.6109 219.353 56.1918 219.184 55.6609C219.043 55.13 218.959 54.5432 218.959 53.9006V49.4298C218.959 48.7313 219.043 48.1445 219.184 47.6136C219.353 47.0827 219.662 46.6635 220.056 46.3841C220.477 46.0767 221.068 45.937 221.799 45.937C222.473 45.937 223.008 46.0488 223.401 46.3282C223.795 46.5797 224.076 46.943 224.216 47.418C224.385 47.893 224.469 48.4518 224.469 49.1224V49.7931H223.485V49.1504C223.485 48.6474 223.429 48.2283 223.345 47.893C223.289 47.5297 223.12 47.2503 222.867 47.0547C222.642 46.8871 222.277 46.7753 221.827 46.7753C221.321 46.7753 220.927 46.8871 220.674 47.0827C220.421 47.3062 220.252 47.5856 220.14 47.9768C220.056 48.3401 220.027 48.7871 220.027 49.2901V54.0682C220.027 54.5991 220.084 55.0741 220.168 55.4374C220.28 55.8006 220.477 56.08 220.73 56.2756C220.983 56.4433 221.349 56.5551 221.827 56.5551C222.305 56.5551 222.642 56.4433 222.867 56.2477C223.12 56.0521 223.289 55.7727 223.345 55.4094C223.429 55.0182 223.485 54.5991 223.485 54.1241V53.3696H224.469V54.0403C224.469 54.7109 224.413 55.2697 224.245 55.8006C224.104 56.2756 223.823 56.6668 223.429 56.9742C223.064 57.2536 222.501 57.3933 221.799 57.3933ZM226.128 57.2536V46.0488H227.197V51.1902H227.984L230.289 46.0488H231.386L228.911 51.4416L231.751 57.2536H230.683L228.012 51.749H227.197V57.2536H226.128ZM232.285 57.2536L234.647 46.0488H235.771L238.161 57.2536H237.121L236.559 54.2638H233.86L233.297 57.2536H232.285ZM234.028 53.4814H236.418L235.237 47.4459L234.028 53.4814ZM238.808 57.2536L241.085 52.1681C240.551 51.9446 240.129 51.5814 239.876 51.0505C239.595 50.4916 239.454 49.8489 239.454 49.0945C239.454 48.5357 239.567 48.0048 239.735 47.5577C239.932 47.1106 240.27 46.7474 240.719 46.4679C241.169 46.1885 241.816 46.0488 242.603 46.0488H244.993V57.2536H243.924V52.4476H242.491C242.434 52.4476 242.35 52.4476 242.238 52.4476C242.153 52.4476 242.069 52.4476 242.013 52.4476L239.988 57.2536H238.808ZM242.687 51.6652H243.924V46.8312H242.631C241.956 46.8312 241.422 46.9988 241.057 47.3621C240.691 47.6974 240.494 48.2842 240.494 49.0666C240.494 49.9328 240.663 50.6034 240.972 51.0225C241.31 51.4696 241.872 51.6652 242.687 51.6652ZM158.458 78.0146V66.8098H159.526V71.9512H160.341L162.647 66.8098H163.715L161.269 72.2027L164.081 78.0146H163.012L160.341 72.51H159.526V78.0146H158.458ZM167.904 78.1543C167.145 78.1543 166.555 78.0146 166.133 77.7352C165.711 77.4278 165.402 77.0366 165.233 76.5057C165.065 75.9748 164.98 75.3881 164.98 74.7174V70.0511C164.98 69.3805 165.065 68.7937 165.261 68.2908C165.43 67.7878 165.739 67.3966 166.161 67.1172C166.583 66.8378 167.173 66.6981 167.904 66.6981C168.635 66.6981 169.197 66.8378 169.619 67.1172C170.041 67.3966 170.35 67.7878 170.519 68.2908C170.687 68.7937 170.772 69.3805 170.772 70.0511V74.7174C170.772 75.3881 170.687 76.0028 170.519 76.5057C170.35 77.0087 170.069 77.4278 169.647 77.7073C169.225 78.0146 168.635 78.1543 167.904 78.1543ZM167.904 77.3161C168.382 77.3161 168.776 77.2043 169.029 77.0087C169.282 76.8131 169.45 76.5337 169.563 76.1984C169.647 75.8351 169.703 75.416 169.703 74.941V69.8555C169.703 69.3805 169.647 68.9893 169.563 68.6261C169.45 68.2908 169.282 68.0113 169.029 67.8437C168.776 67.6481 168.382 67.5363 167.904 67.5363C167.398 67.5363 167.004 67.6481 166.751 67.8437C166.47 68.0113 166.302 68.2908 166.189 68.6261C166.105 68.9893 166.049 69.3805 166.049 69.8555V74.941C166.049 75.416 166.105 75.8351 166.189 76.1984C166.302 76.5337 166.47 76.8131 166.751 77.0087C167.004 77.2043 167.398 77.3161 167.904 77.3161ZM172.43 78.0146L172.712 66.8098H173.78L176.001 76.5337L178.278 66.8098H179.346L179.628 78.0146H178.728L178.503 69.1011L176.366 78.0146H175.664L173.555 69.1011L173.33 78.0146H172.43ZM181.483 78.0146V66.8098H187.247V78.0146H186.206V67.5922H182.551V78.0146H181.483ZM188.596 78.0146L190.986 66.8098H192.11L194.5 78.0146H193.46L192.897 75.0248H190.198L189.636 78.0146H188.596ZM190.367 74.2424H192.757L191.548 68.2069L190.367 74.2424ZM195.849 78.0146V66.8098H196.918V71.7835H200.46V66.8098H201.528V78.0146H200.46V72.5659H196.918V78.0146H195.849ZM203.468 78.0146V66.8098H204.424V75.6954L208.079 66.8098H208.894V78.0146H207.938V69.1011L204.312 78.0146H203.468ZM210.131 78.0146L212.437 72.9292C211.903 72.7056 211.481 72.3424 211.228 71.8115C210.947 71.2526 210.806 70.61 210.806 69.8555C210.806 69.2967 210.89 68.7937 211.087 68.3187C211.284 67.8716 211.621 67.5084 212.071 67.229C212.521 66.9495 213.168 66.8098 213.955 66.8098H216.345V78.0146H215.276V73.2086H213.842C213.786 73.2086 213.702 73.2086 213.589 73.2086C213.505 73.2086 213.421 73.2086 213.364 73.2086L211.34 78.0146H210.131ZM214.039 72.4262H215.276V67.5922H213.983C213.308 67.5922 212.774 67.7599 212.409 68.1231C212.015 68.4584 211.846 69.0452 211.846 69.8276C211.846 70.6938 212.015 71.3644 212.324 71.7835C212.662 72.2306 213.224 72.4262 214.039 72.4262Z" fill="#FEFEFE"/>
<path d="M145.047 7.65625V85.0001" stroke="white"/>
</g>
<defs>
<clipPath id="clip0">
<rect width="245" height="85" fill="white"/>
</clipPath>
</defs>
</svg>
